<?xml version="1.0" encoding="utf-8" standalone="no"?>
<!DOCTYPE svg PUBLIC "-//W3C//DTD SVG 1.1//EN"
  "http://www.w3.org/Graphics/SVG/1.1/DTD/svg11.dtd">
<svg xmlns:xlink="http://www.w3.org/1999/xlink" width="576pt" height="432pt" viewBox="0 0 576 432" xmlns="http://www.w3.org/2000/svg" version="1.1">
 <metadata>
  <rdf:RDF xmlns:dc="http://purl.org/dc/elements/1.1/" xmlns:cc="http://creativecommons.org/ns#" xmlns:rdf="http://www.w3.org/1999/02/22-rdf-syntax-ns#">
   <cc:Work>
    <dc:type rdf:resource="http://purl.org/dc/dcmitype/StillImage"/>
    <dc:date>2025-04-27T12:12:54.758526</dc:date>
    <dc:format>image/svg+xml</dc:format>
    <dc:creator>
     <cc:Agent>
      <dc:title>Matplotlib v3.10.1, https://matplotlib.org/</dc:title>
     </cc:Agent>
    </dc:creator>
   </cc:Work>
  </rdf:RDF>
 </metadata>
 <defs>
  <style type="text/css">*{stroke-linejoin: round; stroke-linecap: butt}</style>
 </defs>
 <g id="figure_1">
  <g id="patch_1">
   <path d="M 0 432 
L 576 432 
L 576 0 
L 0 0 
z
" style="fill: #ffffff"/>
  </g>
  <g id="axes_1">
   <g id="patch_2">
    <path d="M 279.648531 48.701665 
Q 162.877913 81.506639 66.70323 153.562035 
" clip-path="url(#p668775d43a)" style="fill: none; stroke: #000000; stroke-opacity: 0.5; stroke-linecap: round"/>
    <path d="M 71.103632 152.76425 
L 66.70323 153.562035 
L 68.705243 149.563042 
z
" clip-path="url(#p668775d43a)" style="fill-opacity: 0.5; stroke: #000000; stroke-opacity: 0.5; stroke-linecap: round"/>
   </g>
   <g id="patch_3">
    <path d="M 294.896555 51.649781 
Q 391.965717 124.376126 507.659685 156.879286 
" clip-path="url(#p668775d43a)" style="fill: none; stroke: #000000; stroke-opacity: 0.5; stroke-linecap: round"/>
    <path d="M 504.349711 153.87195 
L 507.659685 156.879286 
L 503.267832 157.722864 
z
" clip-path="url(#p668775d43a)" style="fill-opacity: 0.5; stroke: #000000; stroke-opacity: 0.5; stroke-linecap: round"/>
   </g>
   <g id="patch_4">
    <path d="M 57.333729 167.989746 
Q 49.178344 216.001904 57.147133 262.911818 
" clip-path="url(#p668775d43a)" style="fill: none; stroke: #000000; stroke-opacity: 0.5; stroke-linecap: round"/>
    <path d="M 58.448986 258.633363 
L 57.147133 262.911818 
L 54.50548 259.303263 
z
" clip-path="url(#p668775d43a)" style="fill-opacity: 0.5; stroke: #000000; stroke-opacity: 0.5; stroke-linecap: round"/>
   </g>
   <g id="patch_5">
    <path d="M 57.333729 281.047597 
Q 49.178344 329.059755 57.147133 375.969669 
" clip-path="url(#p668775d43a)" style="fill: none; stroke: #000000; stroke-opacity: 0.5; stroke-linecap: round"/>
    <path d="M 58.448986 371.691214 
L 57.147133 375.969669 
L 54.50548 372.361114 
z
" clip-path="url(#p668775d43a)" style="fill-opacity: 0.5; stroke: #000000; stroke-opacity: 0.5; stroke-linecap: round"/>
   </g>
   <g id="patch_6">
    <path d="M 279.648531 48.701665 
Q 162.877913 81.506639 68.49276 152.221294 
" clip-path="url(#p668775d43a)" style="fill: none; stroke: #ff0000; stroke-width: 3; stroke-linecap: round"/>
    <path d="M 72.893162 151.423509 
L 68.49276 152.221294 
L 70.494773 148.222302 
z
" clip-path="url(#p668775d43a)" style="fill: #ff0000; stroke: #ff0000; stroke-width: 3; stroke-linecap: round"/>
   </g>
   <g id="patch_7">
    <path d="M 57.333729 167.989746 
Q 49.178344 216.001904 56.772648 260.707332 
" clip-path="url(#p668775d43a)" style="fill: none; stroke: #ff0000; stroke-width: 3; stroke-linecap: round"/>
    <path d="M 58.0745 256.428876 
L 56.772648 260.707332 
L 54.130995 257.098777 
z
" clip-path="url(#p668775d43a)" style="fill: #ff0000; stroke: #ff0000; stroke-width: 3; stroke-linecap: round"/>
   </g>
   <g id="patch_8">
    <path d="M 57.333729 281.047597 
Q 49.178344 329.059755 56.772648 373.765183 
" clip-path="url(#p668775d43a)" style="fill: none; stroke: #ff0000; stroke-width: 3; stroke-linecap: round"/>
    <path d="M 58.0745 369.486728 
L 56.772648 373.765183 
L 54.130995 370.156628 
z
" clip-path="url(#p668775d43a)" style="fill: #ff0000; stroke: #ff0000; stroke-width: 3; stroke-linecap: round"/>
   </g>
   <g id="PathCollection_1">
    <defs>
     <path id="m47f2183bc1" d="M 0 17.320508 
C 4.593452 17.320508 8.999387 15.49551 12.247449 12.247449 
C 15.49551 8.999387 17.320508 4.593452 17.320508 0 
C 17.320508 -4.593452 15.49551 -8.999387 12.247449 -12.247449 
C 8.999387 -15.49551 4.593452 -17.320508 0 -17.320508 
C -4.593452 -17.320508 -8.999387 -15.49551 -12.247449 -12.247449 
C -15.49551 -8.999387 -17.320508 -4.593452 -17.320508 0 
C -17.320508 4.593452 -15.49551 8.999387 -12.247449 12.247449 
C -8.999387 15.49551 -4.593452 17.320508 0 17.320508 
z
" style="stroke: #333333"/>
    </defs>
    <g clip-path="url(#p668775d43a)">
     <use xlink:href="#m47f2183bc1" x="288" y="46.413223" style="fill: #ccccff; stroke: #333333"/>
     <use xlink:href="#m47f2183bc1" x="58.909091" y="159.471074" style="fill: #ccccff; stroke: #333333"/>
     <use xlink:href="#m47f2183bc1" x="58.909091" y="272.528926" style="fill: #ccccff; stroke: #333333"/>
     <use xlink:href="#m47f2183bc1" x="58.909091" y="385.586777" style="fill: #ccccff; stroke: #333333"/>
     <use xlink:href="#m47f2183bc1" x="517.090909" y="159.471074" style="fill: #ccccff; stroke: #333333"/>
    </g>
   </g>
   <g id="PathCollection_2">
    <defs>
     <path id="m379b86b501" d="M 0 18.708287 
C 4.961496 18.708287 9.720449 16.737064 13.228757 13.228757 
C 16.737064 9.720449 18.708287 4.961496 18.708287 0 
C 18.708287 -4.961496 16.737064 -9.720449 13.228757 -13.228757 
C 9.720449 -16.737064 4.961496 -18.708287 0 -18.708287 
C -4.961496 -18.708287 -9.720449 -16.737064 -13.228757 -13.228757 
C -16.737064 -9.720449 -18.708287 -4.961496 -18.708287 0 
C -18.708287 4.961496 -16.737064 9.720449 -13.228757 13.228757 
C -9.720449 16.737064 -4.961496 18.708287 0 18.708287 
z
" style="stroke: #aa0000"/>
    </defs>
    <g clip-path="url(#p668775d43a)">
     <use xlink:href="#m379b86b501" x="288" y="46.413223" style="fill: #ffcccc; stroke: #aa0000"/>
     <use xlink:href="#m379b86b501" x="58.909091" y="159.471074" style="fill: #ffcccc; stroke: #aa0000"/>
     <use xlink:href="#m379b86b501" x="58.909091" y="272.528926" style="fill: #ffcccc; stroke: #aa0000"/>
     <use xlink:href="#m379b86b501" x="58.909091" y="385.586777" style="fill: #ffcccc; stroke: #aa0000"/>
    </g>
   </g>
   <g id="text_1">
    <g clip-path="url(#p668775d43a)">
     <!-- main -->
     <g transform="translate(274.755313 49.477754) scale(0.11 -0.11)">
      <defs>
       <path id="DejaVuSansMono-6d" d="M 2113 3144 
Q 2219 3369 2383 3476 
Q 2547 3584 2778 3584 
Q 3200 3584 3373 3257 
Q 3547 2931 3547 2028 
L 3547 0 
L 3022 0 
L 3022 2003 
Q 3022 2744 2939 2923 
Q 2856 3103 2638 3103 
Q 2388 3103 2295 2911 
Q 2203 2719 2203 2003 
L 2203 0 
L 1678 0 
L 1678 2003 
Q 1678 2753 1589 2928 
Q 1500 3103 1269 3103 
Q 1041 3103 952 2911 
Q 863 2719 863 2003 
L 863 0 
L 341 0 
L 341 3500 
L 863 3500 
L 863 3200 
Q 966 3388 1120 3486 
Q 1275 3584 1472 3584 
Q 1709 3584 1867 3475 
Q 2025 3366 2113 3144 
z
" transform="scale(0.015625)"/>
       <path id="DejaVuSansMono-61" d="M 2194 1759 
L 2003 1759 
Q 1500 1759 1245 1582 
Q 991 1406 991 1056 
Q 991 741 1181 566 
Q 1372 391 1709 391 
Q 2184 391 2456 720 
Q 2728 1050 2731 1631 
L 2731 1759 
L 2194 1759 
z
M 3309 1997 
L 3309 0 
L 2731 0 
L 2731 519 
Q 2547 206 2267 57 
Q 1988 -91 1588 -91 
Q 1053 -91 734 211 
Q 416 513 416 1019 
Q 416 1603 808 1906 
Q 1200 2209 1959 2209 
L 2731 2209 
L 2731 2300 
Q 2728 2719 2518 2908 
Q 2309 3097 1850 3097 
Q 1556 3097 1256 3012 
Q 956 2928 672 2766 
L 672 3341 
Q 991 3463 1283 3523 
Q 1575 3584 1850 3584 
Q 2284 3584 2592 3456 
Q 2900 3328 3091 3072 
Q 3209 2916 3259 2686 
Q 3309 2456 3309 1997 
z
" transform="scale(0.015625)"/>
       <path id="DejaVuSansMono-69" d="M 800 3500 
L 2272 3500 
L 2272 447 
L 3413 447 
L 3413 0 
L 556 0 
L 556 447 
L 1697 447 
L 1697 3053 
L 800 3053 
L 800 3500 
z
M 1697 4863 
L 2272 4863 
L 2272 4134 
L 1697 4134 
L 1697 4863 
z
" transform="scale(0.015625)"/>
       <path id="DejaVuSansMono-6e" d="M 3284 2169 
L 3284 0 
L 2706 0 
L 2706 2169 
Q 2706 2641 2540 2862 
Q 2375 3084 2022 3084 
Q 1619 3084 1401 2798 
Q 1184 2513 1184 1978 
L 1184 0 
L 609 0 
L 609 3500 
L 1184 3500 
L 1184 2975 
Q 1338 3275 1600 3429 
Q 1863 3584 2222 3584 
Q 2756 3584 3020 3232 
Q 3284 2881 3284 2169 
z
" transform="scale(0.015625)"/>
      </defs>
      <use xlink:href="#DejaVuSansMono-6d"/>
      <use xlink:href="#DejaVuSansMono-61" transform="translate(60.205078 0)"/>
      <use xlink:href="#DejaVuSansMono-69" transform="translate(120.410156 0)"/>
      <use xlink:href="#DejaVuSansMono-6e" transform="translate(180.615234 0)"/>
     </g>
    </g>
   </g>
   <g id="text_2">
    <g clip-path="url(#p668775d43a)">
     <!-- a -->
     <g transform="translate(55.597919 162.535606) scale(0.11 -0.11)">
      <use xlink:href="#DejaVuSansMono-61"/>
     </g>
    </g>
   </g>
   <g id="text_3">
    <g clip-path="url(#p668775d43a)">
     <!-- b -->
     <g transform="translate(55.597919 275.593457) scale(0.11 -0.11)">
      <defs>
       <path id="DejaVuSansMono-62" d="M 2869 1747 
Q 2869 2416 2656 2756 
Q 2444 3097 2028 3097 
Q 1609 3097 1393 2755 
Q 1178 2413 1178 1747 
Q 1178 1084 1393 740 
Q 1609 397 2028 397 
Q 2444 397 2656 737 
Q 2869 1078 2869 1747 
z
M 1178 3053 
Q 1316 3309 1558 3446 
Q 1800 3584 2119 3584 
Q 2750 3584 3112 3098 
Q 3475 2613 3475 1759 
Q 3475 894 3111 401 
Q 2747 -91 2113 -91 
Q 1800 -91 1561 45 
Q 1322 181 1178 441 
L 1178 0 
L 603 0 
L 603 4863 
L 1178 4863 
L 1178 3053 
z
" transform="scale(0.015625)"/>
      </defs>
      <use xlink:href="#DejaVuSansMono-62"/>
     </g>
    </g>
   </g>
   <g id="text_4">
    <g clip-path="url(#p668775d43a)">
     <!-- c -->
     <g transform="translate(55.597919 388.651308) scale(0.11 -0.11)">
      <defs>
       <path id="DejaVuSansMono-63" d="M 3316 178 
Q 3084 44 2839 -23 
Q 2594 -91 2338 -91 
Q 1525 -91 1067 396 
Q 609 884 609 1747 
Q 609 2609 1067 3096 
Q 1525 3584 2338 3584 
Q 2591 3584 2831 3518 
Q 3072 3453 3316 3316 
L 3316 2713 
Q 3088 2916 2858 3006 
Q 2628 3097 2338 3097 
Q 1797 3097 1506 2747 
Q 1216 2397 1216 1747 
Q 1216 1100 1508 748 
Q 1800 397 2338 397 
Q 2638 397 2875 489 
Q 3113 581 3316 775 
L 3316 178 
z
" transform="scale(0.015625)"/>
      </defs>
      <use xlink:href="#DejaVuSansMono-63"/>
     </g>
    </g>
   </g>
   <g id="text_5">
    <g clip-path="url(#p668775d43a)">
     <!-- d -->
     <g transform="translate(513.779737 162.535606) scale(0.11 -0.11)">
      <defs>
       <path id="DejaVuSansMono-64" d="M 2681 3053 
L 2681 4863 
L 3256 4863 
L 3256 0 
L 2681 0 
L 2681 441 
Q 2538 181 2298 45 
Q 2059 -91 1747 -91 
Q 1113 -91 748 401 
Q 384 894 384 1759 
Q 384 2613 750 3098 
Q 1116 3584 1747 3584 
Q 2063 3584 2303 3448 
Q 2544 3313 2681 3053 
z
M 991 1747 
Q 991 1078 1203 737 
Q 1416 397 1831 397 
Q 2247 397 2464 740 
Q 2681 1084 2681 1747 
Q 2681 2413 2464 2755 
Q 2247 3097 1831 3097 
Q 1416 3097 1203 2756 
Q 991 2416 991 1747 
z
" transform="scale(0.015625)"/>
      </defs>
      <use xlink:href="#DejaVuSansMono-64"/>
     </g>
    </g>
   </g>
  </g>
 </g>
 <defs>
  <clipPath id="p668775d43a">
   <rect x="10.8" y="10.8" width="554.4" height="410.4"/>
  </clipPath>
 </defs>
</svg>
