<?xml version="1.0" encoding="utf-8" standalone="no"?>
<!DOCTYPE svg PUBLIC "-//W3C//DTD SVG 1.1//EN"
  "http://www.w3.org/Graphics/SVG/1.1/DTD/svg11.dtd">
<svg xmlns:xlink="http://www.w3.org/1999/xlink" width="907.2pt" height="763.6755pt" viewBox="0 0 907.2 763.6755" xmlns="http://www.w3.org/2000/svg" version="1.1">
 <metadata>
  <rdf:RDF xmlns:dc="http://purl.org/dc/elements/1.1/" xmlns:cc="http://creativecommons.org/ns#" xmlns:rdf="http://www.w3.org/1999/02/22-rdf-syntax-ns#">
   <cc:Work>
    <dc:type rdf:resource="http://purl.org/dc/dcmitype/StillImage"/>
    <dc:date>2025-04-27T12:59:38.303101</dc:date>
    <dc:format>image/svg+xml</dc:format>
    <dc:creator>
     <cc:Agent>
      <dc:title>Matplotlib v3.10.1, https://matplotlib.org/</dc:title>
     </cc:Agent>
    </dc:creator>
   </cc:Work>
  </rdf:RDF>
 </metadata>
 <defs>
  <style type="text/css">*{stroke-linejoin: round; stroke-linecap: butt}</style>
 </defs>
 <g id="figure_1">
  <g id="patch_1">
   <path d="M 0 763.6755 
L 907.2 763.6755 
L 907.2 0 
L 0 0 
z
" style="fill: #ffffff"/>
  </g>
  <g id="axes_1">
   <g id="patch_2">
    <path d="M 484.650632 195.197855 
Q 325.145709 85.541311 140.771086 140.682671 
" clip-path="url(#pe5a0501096)" style="fill: none; stroke: #aaaaaa; stroke-opacity: 0.7; stroke-linecap: round"/>
    <path d="M 149.58178 142.222693 
L 140.771086 140.682671 
L 147.28952 134.558129 
z
" clip-path="url(#pe5a0501096)" style="fill: #aaaaaa; fill-opacity: 0.7; stroke: #aaaaaa; stroke-opacity: 0.7; stroke-linecap: round"/>
   </g>
   <g id="patch_3">
    <path d="M 497.69633 206.453504 
Q 627.525857 341.178021 812.79024 324.86256 
" clip-path="url(#pe5a0501096)" style="fill: none; stroke: #aaaaaa; stroke-opacity: 0.7; stroke-linecap: round"/>
    <path d="M 804.470178 321.579792 
L 812.79024 324.86256 
L 805.171988 329.548949 
z
" clip-path="url(#pe5a0501096)" style="fill: #aaaaaa; fill-opacity: 0.7; stroke: #aaaaaa; stroke-opacity: 0.7; stroke-linecap: round"/>
   </g>
   <g id="patch_4">
    <path d="M 131.777351 152.213612 
Q 139.536191 301.071082 258.5852 388.901049 
" clip-path="url(#pe5a0501096)" style="fill: none; stroke: #aaaaaa; stroke-opacity: 0.7; stroke-linecap: round"/>
    <path d="M 254.522303 380.932807 
L 258.5852 388.901049 
L 249.772869 387.370421 
z
" clip-path="url(#pe5a0501096)" style="fill: #aaaaaa; fill-opacity: 0.7; stroke: #aaaaaa; stroke-opacity: 0.7; stroke-linecap: round"/>
   </g>
   <g id="patch_5">
    <path d="M 259.235557 399.327751 
Q 103.487148 501.864573 85.543966 686.346531 
" clip-path="url(#pe5a0501096)" style="fill: none; stroke: #aaaaaa; stroke-opacity: 0.7; stroke-linecap: round"/>
    <path d="M 90.299625 678.771328 
L 85.543966 686.346531 
L 82.337198 677.996882 
z
" clip-path="url(#pe5a0501096)" style="fill: #aaaaaa; fill-opacity: 0.7; stroke: #aaaaaa; stroke-opacity: 0.7; stroke-linecap: round"/>
   </g>
   <g id="PathCollection_1">
    <path d="M 491.743483 220.164823 
C 497.047545 220.164823 502.135081 218.057497 505.885619 214.306959 
C 509.636157 210.556421 511.743483 205.468885 511.743483 200.164823 
C 511.743483 194.860761 509.636157 189.773226 505.885619 186.022687 
C 502.135081 182.272149 497.047545 180.164823 491.743483 180.164823 
C 486.439421 180.164823 481.351886 182.272149 477.601348 186.022687 
C 473.850809 189.773226 471.743483 194.860761 471.743483 200.164823 
C 471.743483 205.468885 473.850809 210.556421 477.601348 214.306959 
C 481.351886 218.057497 486.439421 220.164823 491.743483 220.164823 
z
" clip-path="url(#pe5a0501096)" style="fill: #ccccff; stroke: #333333"/>
    <path d="M 822.52562 343.927559 
C 827.829682 343.927559 832.917217 341.820233 836.667755 338.069695 
C 840.418294 334.319157 842.52562 329.231621 842.52562 323.927559 
C 842.52562 318.623497 840.418294 313.535962 836.667755 309.785424 
C 832.917217 306.034886 827.829682 303.927559 822.52562 303.927559 
C 817.221558 303.927559 812.134022 306.034886 808.383484 309.785424 
C 804.632946 313.535962 802.52562 318.623497 802.52562 323.927559 
C 802.52562 329.231621 804.632946 334.319157 808.383484 338.069695 
C 812.134022 341.820233 817.221558 343.927559 822.52562 343.927559 
z
" clip-path="url(#pe5a0501096)" style="fill: #ccccff; stroke: #333333"/>
    <path d="M 84.67438 716.088891 
C 89.978442 716.088891 95.065978 713.981564 98.816516 710.231026 
C 102.567054 706.480488 104.67438 701.392953 104.67438 696.088891 
C 104.67438 690.784829 102.567054 685.697293 98.816516 681.946755 
C 95.065978 678.196217 89.978442 676.088891 84.67438 676.088891 
C 79.370318 676.088891 74.282783 678.196217 70.532245 681.946755 
C 66.781706 685.697293 64.67438 690.784829 64.67438 696.088891 
C 64.67438 701.392953 66.781706 706.480488 70.532245 710.231026 
C 74.282783 713.981564 79.370318 716.088891 84.67438 716.088891 
z
" clip-path="url(#pe5a0501096)" style="fill: #ccccff; stroke: #333333"/>
    <path d="M 131.422516 163.556703 
C 136.726578 163.556703 141.814114 161.449377 145.564652 157.698839 
C 149.31519 153.948301 151.422516 148.860765 151.422516 143.556703 
C 151.422516 138.252641 149.31519 133.165106 145.564652 129.414568 
C 141.814114 125.66403 136.726578 123.556703 131.422516 123.556703 
C 126.118454 123.556703 121.030919 125.66403 117.280381 129.414568 
C 113.529842 133.165106 111.422516 138.252641 111.422516 143.556703 
C 111.422516 148.860765 113.529842 153.948301 117.280381 157.698839 
C 121.030919 161.449377 126.118454 163.556703 131.422516 163.556703 
z
" clip-path="url(#pe5a0501096)" style="fill: #ccccff; stroke: #333333"/>
    <path d="M 266.512451 414.629907 
C 271.816513 414.629907 276.904048 412.522581 280.654586 408.772043 
C 284.405124 405.021504 286.512451 399.933969 286.512451 394.629907 
C 286.512451 389.325845 284.405124 384.23831 280.654586 380.487771 
C 276.904048 376.737233 271.816513 374.629907 266.512451 374.629907 
C 261.208389 374.629907 256.120853 376.737233 252.370315 380.487771 
C 248.619777 384.23831 246.512451 389.325845 246.512451 394.629907 
C 246.512451 399.933969 248.619777 405.021504 252.370315 408.772043 
C 256.120853 412.522581 261.208389 414.629907 266.512451 414.629907 
z
" clip-path="url(#pe5a0501096)" style="fill: #ccccff; stroke: #333333"/>
   </g>
   <g id="text_1">
    <g clip-path="url(#pe5a0501096)">
     <!-- linear::main::h7736007ed1673b53 -->
     <g transform="translate(417.091608 202.393573) scale(0.08 -0.08)">
      <defs>
       <path id="DejaVuSansMono-6c" d="M 1997 1269 
Q 1997 881 2139 684 
Q 2281 488 2559 488 
L 3231 488 
L 3231 0 
L 2503 0 
Q 1988 0 1705 331 
Q 1422 663 1422 1269 
L 1422 4447 
L 500 4447 
L 500 4897 
L 1997 4897 
L 1997 1269 
z
" transform="scale(0.015625)"/>
       <path id="DejaVuSansMono-69" d="M 800 3500 
L 2272 3500 
L 2272 447 
L 3413 447 
L 3413 0 
L 556 0 
L 556 447 
L 1697 447 
L 1697 3053 
L 800 3053 
L 800 3500 
z
M 1697 4863 
L 2272 4863 
L 2272 4134 
L 1697 4134 
L 1697 4863 
z
" transform="scale(0.015625)"/>
       <path id="DejaVuSansMono-6e" d="M 3284 2169 
L 3284 0 
L 2706 0 
L 2706 2169 
Q 2706 2641 2540 2862 
Q 2375 3084 2022 3084 
Q 1619 3084 1401 2798 
Q 1184 2513 1184 1978 
L 1184 0 
L 609 0 
L 609 3500 
L 1184 3500 
L 1184 2975 
Q 1338 3275 1600 3429 
Q 1863 3584 2222 3584 
Q 2756 3584 3020 3232 
Q 3284 2881 3284 2169 
z
" transform="scale(0.015625)"/>
       <path id="DejaVuSansMono-65" d="M 3475 1894 
L 3475 1613 
L 984 1613 
L 984 1594 
Q 984 1022 1282 709 
Q 1581 397 2125 397 
Q 2400 397 2700 484 
Q 3000 572 3341 750 
L 3341 178 
Q 3013 44 2708 -23 
Q 2403 -91 2119 -91 
Q 1303 -91 843 398 
Q 384 888 384 1747 
Q 384 2584 834 3084 
Q 1284 3584 2034 3584 
Q 2703 3584 3089 3131 
Q 3475 2678 3475 1894 
z
M 2900 2063 
Q 2888 2569 2661 2833 
Q 2434 3097 2009 3097 
Q 1594 3097 1325 2822 
Q 1056 2547 1006 2059 
L 2900 2063 
z
" transform="scale(0.015625)"/>
       <path id="DejaVuSansMono-61" d="M 2194 1759 
L 2003 1759 
Q 1500 1759 1245 1582 
Q 991 1406 991 1056 
Q 991 741 1181 566 
Q 1372 391 1709 391 
Q 2184 391 2456 720 
Q 2728 1050 2731 1631 
L 2731 1759 
L 2194 1759 
z
M 3309 1997 
L 3309 0 
L 2731 0 
L 2731 519 
Q 2547 206 2267 57 
Q 1988 -91 1588 -91 
Q 1053 -91 734 211 
Q 416 513 416 1019 
Q 416 1603 808 1906 
Q 1200 2209 1959 2209 
L 2731 2209 
L 2731 2300 
Q 2728 2719 2518 2908 
Q 2309 3097 1850 3097 
Q 1556 3097 1256 3012 
Q 956 2928 672 2766 
L 672 3341 
Q 991 3463 1283 3523 
Q 1575 3584 1850 3584 
Q 2284 3584 2592 3456 
Q 2900 3328 3091 3072 
Q 3209 2916 3259 2686 
Q 3309 2456 3309 1997 
z
" transform="scale(0.015625)"/>
       <path id="DejaVuSansMono-72" d="M 3609 2778 
Q 3425 2922 3234 2987 
Q 3044 3053 2816 3053 
Q 2278 3053 1993 2715 
Q 1709 2378 1709 1741 
L 1709 0 
L 1131 0 
L 1131 3500 
L 1709 3500 
L 1709 2816 
Q 1853 3188 2151 3386 
Q 2450 3584 2859 3584 
Q 3072 3584 3256 3531 
Q 3441 3478 3609 3366 
L 3609 2778 
z
" transform="scale(0.015625)"/>
       <path id="DejaVuSansMono-3a" d="M 1528 3322 
L 2316 3322 
L 2316 2375 
L 1528 2375 
L 1528 3322 
z
M 1528 953 
L 2316 953 
L 2316 0 
L 1528 0 
L 1528 953 
z
" transform="scale(0.015625)"/>
       <path id="DejaVuSansMono-6d" d="M 2113 3144 
Q 2219 3369 2383 3476 
Q 2547 3584 2778 3584 
Q 3200 3584 3373 3257 
Q 3547 2931 3547 2028 
L 3547 0 
L 3022 0 
L 3022 2003 
Q 3022 2744 2939 2923 
Q 2856 3103 2638 3103 
Q 2388 3103 2295 2911 
Q 2203 2719 2203 2003 
L 2203 0 
L 1678 0 
L 1678 2003 
Q 1678 2753 1589 2928 
Q 1500 3103 1269 3103 
Q 1041 3103 952 2911 
Q 863 2719 863 2003 
L 863 0 
L 341 0 
L 341 3500 
L 863 3500 
L 863 3200 
Q 966 3388 1120 3486 
Q 1275 3584 1472 3584 
Q 1709 3584 1867 3475 
Q 2025 3366 2113 3144 
z
" transform="scale(0.015625)"/>
       <path id="DejaVuSansMono-68" d="M 3284 2169 
L 3284 0 
L 2706 0 
L 2706 2169 
Q 2706 2641 2540 2862 
Q 2375 3084 2022 3084 
Q 1619 3084 1401 2798 
Q 1184 2513 1184 1978 
L 1184 0 
L 609 0 
L 609 4863 
L 1184 4863 
L 1184 2975 
Q 1338 3275 1600 3429 
Q 1863 3584 2222 3584 
Q 2756 3584 3020 3232 
Q 3284 2881 3284 2169 
z
" transform="scale(0.015625)"/>
       <path id="DejaVuSansMono-37" d="M 434 4666 
L 3372 4666 
L 3372 4397 
L 1703 0 
L 1044 0 
L 2669 4134 
L 434 4134 
L 434 4666 
z
" transform="scale(0.015625)"/>
       <path id="DejaVuSansMono-33" d="M 2425 2497 
Q 2884 2375 3128 2064 
Q 3372 1753 3372 1288 
Q 3372 644 2939 276 
Q 2506 -91 1741 -91 
Q 1419 -91 1084 -31 
Q 750 28 428 141 
L 428 769 
Q 747 603 1056 522 
Q 1366 441 1672 441 
Q 2191 441 2469 675 
Q 2747 909 2747 1350 
Q 2747 1756 2469 1995 
Q 2191 2234 1716 2234 
L 1234 2234 
L 1234 2753 
L 1716 2753 
Q 2150 2753 2394 2943 
Q 2638 3134 2638 3475 
Q 2638 3834 2411 4026 
Q 2184 4219 1766 4219 
Q 1488 4219 1191 4156 
Q 894 4094 569 3969 
L 569 4550 
Q 947 4650 1242 4700 
Q 1538 4750 1766 4750 
Q 2447 4750 2855 4408 
Q 3263 4066 3263 3500 
Q 3263 3116 3048 2859 
Q 2834 2603 2425 2497 
z
" transform="scale(0.015625)"/>
       <path id="DejaVuSansMono-36" d="M 3097 4563 
L 3097 3981 
Q 2900 4097 2678 4158 
Q 2456 4219 2216 4219 
Q 1616 4219 1306 3767 
Q 997 3316 997 2438 
Q 1147 2750 1412 2917 
Q 1678 3084 2022 3084 
Q 2697 3084 3067 2670 
Q 3438 2256 3438 1497 
Q 3438 741 3056 325 
Q 2675 -91 1984 -91 
Q 1172 -91 794 492 
Q 416 1075 416 2328 
Q 416 3509 870 4129 
Q 1325 4750 2188 4750 
Q 2419 4750 2650 4701 
Q 2881 4653 3097 4563 
z
M 1972 2591 
Q 1569 2591 1337 2300 
Q 1106 2009 1106 1497 
Q 1106 984 1337 693 
Q 1569 403 1972 403 
Q 2391 403 2603 679 
Q 2816 956 2816 1497 
Q 2816 2041 2603 2316 
Q 2391 2591 1972 2591 
z
" transform="scale(0.015625)"/>
       <path id="DejaVuSansMono-30" d="M 1509 2344 
Q 1509 2516 1629 2641 
Q 1750 2766 1919 2766 
Q 2094 2766 2219 2641 
Q 2344 2516 2344 2344 
Q 2344 2169 2220 2047 
Q 2097 1925 1919 1925 
Q 1744 1925 1626 2044 
Q 1509 2163 1509 2344 
z
M 1925 4250 
Q 1484 4250 1267 3775 
Q 1050 3300 1050 2328 
Q 1050 1359 1267 884 
Q 1484 409 1925 409 
Q 2369 409 2586 884 
Q 2803 1359 2803 2328 
Q 2803 3300 2586 3775 
Q 2369 4250 1925 4250 
z
M 1925 4750 
Q 2672 4750 3055 4137 
Q 3438 3525 3438 2328 
Q 3438 1134 3055 521 
Q 2672 -91 1925 -91 
Q 1178 -91 797 521 
Q 416 1134 416 2328 
Q 416 3525 797 4137 
Q 1178 4750 1925 4750 
z
" transform="scale(0.015625)"/>
       <path id="DejaVuSansMono-64" d="M 2681 3053 
L 2681 4863 
L 3256 4863 
L 3256 0 
L 2681 0 
L 2681 441 
Q 2538 181 2298 45 
Q 2059 -91 1747 -91 
Q 1113 -91 748 401 
Q 384 894 384 1759 
Q 384 2613 750 3098 
Q 1116 3584 1747 3584 
Q 2063 3584 2303 3448 
Q 2544 3313 2681 3053 
z
M 991 1747 
Q 991 1078 1203 737 
Q 1416 397 1831 397 
Q 2247 397 2464 740 
Q 2681 1084 2681 1747 
Q 2681 2413 2464 2755 
Q 2247 3097 1831 3097 
Q 1416 3097 1203 2756 
Q 991 2416 991 1747 
z
" transform="scale(0.015625)"/>
       <path id="DejaVuSansMono-31" d="M 844 531 
L 1825 531 
L 1825 4097 
L 769 3859 
L 769 4434 
L 1819 4666 
L 2450 4666 
L 2450 531 
L 3419 531 
L 3419 0 
L 844 0 
L 844 531 
z
" transform="scale(0.015625)"/>
       <path id="DejaVuSansMono-62" d="M 2869 1747 
Q 2869 2416 2656 2756 
Q 2444 3097 2028 3097 
Q 1609 3097 1393 2755 
Q 1178 2413 1178 1747 
Q 1178 1084 1393 740 
Q 1609 397 2028 397 
Q 2444 397 2656 737 
Q 2869 1078 2869 1747 
z
M 1178 3053 
Q 1316 3309 1558 3446 
Q 1800 3584 2119 3584 
Q 2750 3584 3112 3098 
Q 3475 2613 3475 1759 
Q 3475 894 3111 401 
Q 2747 -91 2113 -91 
Q 1800 -91 1561 45 
Q 1322 181 1178 441 
L 1178 0 
L 603 0 
L 603 4863 
L 1178 4863 
L 1178 3053 
z
" transform="scale(0.015625)"/>
       <path id="DejaVuSansMono-35" d="M 647 4666 
L 3009 4666 
L 3009 4134 
L 1222 4134 
L 1222 2988 
Q 1356 3038 1492 3061 
Q 1628 3084 1766 3084 
Q 2491 3084 2916 2656 
Q 3341 2228 3341 1497 
Q 3341 759 2895 334 
Q 2450 -91 1678 -91 
Q 1306 -91 998 -41 
Q 691 9 447 109 
L 447 750 
Q 734 594 1025 517 
Q 1316 441 1619 441 
Q 2141 441 2423 716 
Q 2706 991 2706 1497 
Q 2706 1997 2414 2275 
Q 2122 2553 1600 2553 
Q 1347 2553 1106 2495 
Q 866 2438 647 2322 
L 647 4666 
z
" transform="scale(0.015625)"/>
      </defs>
      <use xlink:href="#DejaVuSansMono-6c"/>
      <use xlink:href="#DejaVuSansMono-69" transform="translate(60.205078 0)"/>
      <use xlink:href="#DejaVuSansMono-6e" transform="translate(120.410156 0)"/>
      <use xlink:href="#DejaVuSansMono-65" transform="translate(180.615234 0)"/>
      <use xlink:href="#DejaVuSansMono-61" transform="translate(240.820312 0)"/>
      <use xlink:href="#DejaVuSansMono-72" transform="translate(301.025391 0)"/>
      <use xlink:href="#DejaVuSansMono-3a" transform="translate(361.230469 0)"/>
      <use xlink:href="#DejaVuSansMono-3a" transform="translate(421.435547 0)"/>
      <use xlink:href="#DejaVuSansMono-6d" transform="translate(481.640625 0)"/>
      <use xlink:href="#DejaVuSansMono-61" transform="translate(541.845703 0)"/>
      <use xlink:href="#DejaVuSansMono-69" transform="translate(602.050781 0)"/>
      <use xlink:href="#DejaVuSansMono-6e" transform="translate(662.255859 0)"/>
      <use xlink:href="#DejaVuSansMono-3a" transform="translate(722.460938 0)"/>
      <use xlink:href="#DejaVuSansMono-3a" transform="translate(782.666016 0)"/>
      <use xlink:href="#DejaVuSansMono-68" transform="translate(842.871094 0)"/>
      <use xlink:href="#DejaVuSansMono-37" transform="translate(903.076172 0)"/>
      <use xlink:href="#DejaVuSansMono-37" transform="translate(963.28125 0)"/>
      <use xlink:href="#DejaVuSansMono-33" transform="translate(1023.486328 0)"/>
      <use xlink:href="#DejaVuSansMono-36" transform="translate(1083.691406 0)"/>
      <use xlink:href="#DejaVuSansMono-30" transform="translate(1143.896484 0)"/>
      <use xlink:href="#DejaVuSansMono-30" transform="translate(1204.101562 0)"/>
      <use xlink:href="#DejaVuSansMono-37" transform="translate(1264.306641 0)"/>
      <use xlink:href="#DejaVuSansMono-65" transform="translate(1324.511719 0)"/>
      <use xlink:href="#DejaVuSansMono-64" transform="translate(1384.716797 0)"/>
      <use xlink:href="#DejaVuSansMono-31" transform="translate(1444.921875 0)"/>
      <use xlink:href="#DejaVuSansMono-36" transform="translate(1505.126953 0)"/>
      <use xlink:href="#DejaVuSansMono-37" transform="translate(1565.332031 0)"/>
      <use xlink:href="#DejaVuSansMono-33" transform="translate(1625.537109 0)"/>
      <use xlink:href="#DejaVuSansMono-62" transform="translate(1685.742188 0)"/>
      <use xlink:href="#DejaVuSansMono-35" transform="translate(1745.947266 0)"/>
      <use xlink:href="#DejaVuSansMono-33" transform="translate(1806.152344 0)"/>
     </g>
    </g>
   </g>
   <g id="text_2">
    <g clip-path="url(#pe5a0501096)">
     <!-- linear::d::h7cdf8599716e7201 -->
     <g transform="translate(755.09812 326.156309) scale(0.08 -0.08)">
      <defs>
       <path id="DejaVuSansMono-63" d="M 3316 178 
Q 3084 44 2839 -23 
Q 2594 -91 2338 -91 
Q 1525 -91 1067 396 
Q 609 884 609 1747 
Q 609 2609 1067 3096 
Q 1525 3584 2338 3584 
Q 2591 3584 2831 3518 
Q 3072 3453 3316 3316 
L 3316 2713 
Q 3088 2916 2858 3006 
Q 2628 3097 2338 3097 
Q 1797 3097 1506 2747 
Q 1216 2397 1216 1747 
Q 1216 1100 1508 748 
Q 1800 397 2338 397 
Q 2638 397 2875 489 
Q 3113 581 3316 775 
L 3316 178 
z
" transform="scale(0.015625)"/>
       <path id="DejaVuSansMono-66" d="M 3322 4863 
L 3322 4384 
L 2669 4384 
Q 2359 4384 2239 4257 
Q 2119 4131 2119 3809 
L 2119 3500 
L 3322 3500 
L 3322 3053 
L 2119 3053 
L 2119 0 
L 1544 0 
L 1544 3053 
L 609 3053 
L 609 3500 
L 1544 3500 
L 1544 3744 
Q 1544 4319 1808 4591 
Q 2072 4863 2631 4863 
L 3322 4863 
z
" transform="scale(0.015625)"/>
       <path id="DejaVuSansMono-38" d="M 1925 2216 
Q 1503 2216 1273 1980 
Q 1044 1744 1044 1313 
Q 1044 881 1276 642 
Q 1509 403 1925 403 
Q 2350 403 2579 639 
Q 2809 875 2809 1313 
Q 2809 1741 2576 1978 
Q 2344 2216 1925 2216 
z
M 1375 2478 
Q 972 2581 745 2862 
Q 519 3144 519 3541 
Q 519 4097 897 4423 
Q 1275 4750 1925 4750 
Q 2578 4750 2956 4423 
Q 3334 4097 3334 3541 
Q 3334 3144 3107 2862 
Q 2881 2581 2478 2478 
Q 2947 2375 3195 2062 
Q 3444 1750 3444 1253 
Q 3444 622 3041 265 
Q 2638 -91 1925 -91 
Q 1213 -91 811 264 
Q 409 619 409 1247 
Q 409 1747 657 2061 
Q 906 2375 1375 2478 
z
M 1147 3481 
Q 1147 3106 1347 2909 
Q 1547 2713 1925 2713 
Q 2306 2713 2506 2909 
Q 2706 3106 2706 3481 
Q 2706 3863 2507 4063 
Q 2309 4263 1925 4263 
Q 1547 4263 1347 4061 
Q 1147 3859 1147 3481 
z
" transform="scale(0.015625)"/>
       <path id="DejaVuSansMono-39" d="M 1863 2069 
Q 2266 2069 2495 2359 
Q 2725 2650 2725 3163 
Q 2725 3675 2495 3965 
Q 2266 4256 1863 4256 
Q 1444 4256 1231 3979 
Q 1019 3703 1019 3163 
Q 1019 2619 1230 2344 
Q 1441 2069 1863 2069 
z
M 738 97 
L 738 678 
Q 934 563 1156 502 
Q 1378 441 1619 441 
Q 2219 441 2526 892 
Q 2834 1344 2834 2222 
Q 2688 1909 2422 1742 
Q 2156 1575 1813 1575 
Q 1138 1575 767 1990 
Q 397 2406 397 3169 
Q 397 3922 776 4336 
Q 1156 4750 1850 4750 
Q 2663 4750 3041 4165 
Q 3419 3581 3419 2328 
Q 3419 1150 2964 529 
Q 2509 -91 1644 -91 
Q 1416 -91 1184 -42 
Q 953 6 738 97 
z
" transform="scale(0.015625)"/>
       <path id="DejaVuSansMono-32" d="M 1166 531 
L 3309 531 
L 3309 0 
L 475 0 
L 475 531 
Q 1059 1147 1496 1619 
Q 1934 2091 2100 2284 
Q 2413 2666 2522 2902 
Q 2631 3138 2631 3384 
Q 2631 3775 2401 3997 
Q 2172 4219 1772 4219 
Q 1488 4219 1175 4116 
Q 863 4013 513 3803 
L 513 4441 
Q 834 4594 1145 4672 
Q 1456 4750 1759 4750 
Q 2444 4750 2861 4386 
Q 3278 4022 3278 3431 
Q 3278 3131 3139 2831 
Q 3000 2531 2688 2169 
Q 2513 1966 2180 1606 
Q 1847 1247 1166 531 
z
" transform="scale(0.015625)"/>
      </defs>
      <use xlink:href="#DejaVuSansMono-6c"/>
      <use xlink:href="#DejaVuSansMono-69" transform="translate(60.205078 0)"/>
      <use xlink:href="#DejaVuSansMono-6e" transform="translate(120.410156 0)"/>
      <use xlink:href="#DejaVuSansMono-65" transform="translate(180.615234 0)"/>
      <use xlink:href="#DejaVuSansMono-61" transform="translate(240.820312 0)"/>
      <use xlink:href="#DejaVuSansMono-72" transform="translate(301.025391 0)"/>
      <use xlink:href="#DejaVuSansMono-3a" transform="translate(361.230469 0)"/>
      <use xlink:href="#DejaVuSansMono-3a" transform="translate(421.435547 0)"/>
      <use xlink:href="#DejaVuSansMono-64" transform="translate(481.640625 0)"/>
      <use xlink:href="#DejaVuSansMono-3a" transform="translate(541.845703 0)"/>
      <use xlink:href="#DejaVuSansMono-3a" transform="translate(602.050781 0)"/>
      <use xlink:href="#DejaVuSansMono-68" transform="translate(662.255859 0)"/>
      <use xlink:href="#DejaVuSansMono-37" transform="translate(722.460938 0)"/>
      <use xlink:href="#DejaVuSansMono-63" transform="translate(782.666016 0)"/>
      <use xlink:href="#DejaVuSansMono-64" transform="translate(842.871094 0)"/>
      <use xlink:href="#DejaVuSansMono-66" transform="translate(903.076172 0)"/>
      <use xlink:href="#DejaVuSansMono-38" transform="translate(963.28125 0)"/>
      <use xlink:href="#DejaVuSansMono-35" transform="translate(1023.486328 0)"/>
      <use xlink:href="#DejaVuSansMono-39" transform="translate(1083.691406 0)"/>
      <use xlink:href="#DejaVuSansMono-39" transform="translate(1143.896484 0)"/>
      <use xlink:href="#DejaVuSansMono-37" transform="translate(1204.101562 0)"/>
      <use xlink:href="#DejaVuSansMono-31" transform="translate(1264.306641 0)"/>
      <use xlink:href="#DejaVuSansMono-36" transform="translate(1324.511719 0)"/>
      <use xlink:href="#DejaVuSansMono-65" transform="translate(1384.716797 0)"/>
      <use xlink:href="#DejaVuSansMono-37" transform="translate(1444.921875 0)"/>
      <use xlink:href="#DejaVuSansMono-32" transform="translate(1505.126953 0)"/>
      <use xlink:href="#DejaVuSansMono-30" transform="translate(1565.332031 0)"/>
      <use xlink:href="#DejaVuSansMono-31" transform="translate(1625.537109 0)"/>
     </g>
    </g>
   </g>
   <g id="text_3">
    <g clip-path="url(#pe5a0501096)">
     <!-- linear::c::h88729c0059217180 -->
     <g transform="translate(17.24688 698.317641) scale(0.08 -0.08)">
      <use xlink:href="#DejaVuSansMono-6c"/>
      <use xlink:href="#DejaVuSansMono-69" transform="translate(60.205078 0)"/>
      <use xlink:href="#DejaVuSansMono-6e" transform="translate(120.410156 0)"/>
      <use xlink:href="#DejaVuSansMono-65" transform="translate(180.615234 0)"/>
      <use xlink:href="#DejaVuSansMono-61" transform="translate(240.820312 0)"/>
      <use xlink:href="#DejaVuSansMono-72" transform="translate(301.025391 0)"/>
      <use xlink:href="#DejaVuSansMono-3a" transform="translate(361.230469 0)"/>
      <use xlink:href="#DejaVuSansMono-3a" transform="translate(421.435547 0)"/>
      <use xlink:href="#DejaVuSansMono-63" transform="translate(481.640625 0)"/>
      <use xlink:href="#DejaVuSansMono-3a" transform="translate(541.845703 0)"/>
      <use xlink:href="#DejaVuSansMono-3a" transform="translate(602.050781 0)"/>
      <use xlink:href="#DejaVuSansMono-68" transform="translate(662.255859 0)"/>
      <use xlink:href="#DejaVuSansMono-38" transform="translate(722.460938 0)"/>
      <use xlink:href="#DejaVuSansMono-38" transform="translate(782.666016 0)"/>
      <use xlink:href="#DejaVuSansMono-37" transform="translate(842.871094 0)"/>
      <use xlink:href="#DejaVuSansMono-32" transform="translate(903.076172 0)"/>
      <use xlink:href="#DejaVuSansMono-39" transform="translate(963.28125 0)"/>
      <use xlink:href="#DejaVuSansMono-63" transform="translate(1023.486328 0)"/>
      <use xlink:href="#DejaVuSansMono-30" transform="translate(1083.691406 0)"/>
      <use xlink:href="#DejaVuSansMono-30" transform="translate(1143.896484 0)"/>
      <use xlink:href="#DejaVuSansMono-35" transform="translate(1204.101562 0)"/>
      <use xlink:href="#DejaVuSansMono-39" transform="translate(1264.306641 0)"/>
      <use xlink:href="#DejaVuSansMono-32" transform="translate(1324.511719 0)"/>
      <use xlink:href="#DejaVuSansMono-31" transform="translate(1384.716797 0)"/>
      <use xlink:href="#DejaVuSansMono-37" transform="translate(1444.921875 0)"/>
      <use xlink:href="#DejaVuSansMono-31" transform="translate(1505.126953 0)"/>
      <use xlink:href="#DejaVuSansMono-38" transform="translate(1565.332031 0)"/>
      <use xlink:href="#DejaVuSansMono-30" transform="translate(1625.537109 0)"/>
     </g>
    </g>
   </g>
   <g id="text_4">
    <g clip-path="url(#pe5a0501096)">
     <!-- linear::a::h50c02d9a9106acec -->
     <g transform="translate(63.995016 145.785453) scale(0.08 -0.08)">
      <use xlink:href="#DejaVuSansMono-6c"/>
      <use xlink:href="#DejaVuSansMono-69" transform="translate(60.205078 0)"/>
      <use xlink:href="#DejaVuSansMono-6e" transform="translate(120.410156 0)"/>
      <use xlink:href="#DejaVuSansMono-65" transform="translate(180.615234 0)"/>
      <use xlink:href="#DejaVuSansMono-61" transform="translate(240.820312 0)"/>
      <use xlink:href="#DejaVuSansMono-72" transform="translate(301.025391 0)"/>
      <use xlink:href="#DejaVuSansMono-3a" transform="translate(361.230469 0)"/>
      <use xlink:href="#DejaVuSansMono-3a" transform="translate(421.435547 0)"/>
      <use xlink:href="#DejaVuSansMono-61" transform="translate(481.640625 0)"/>
      <use xlink:href="#DejaVuSansMono-3a" transform="translate(541.845703 0)"/>
      <use xlink:href="#DejaVuSansMono-3a" transform="translate(602.050781 0)"/>
      <use xlink:href="#DejaVuSansMono-68" transform="translate(662.255859 0)"/>
      <use xlink:href="#DejaVuSansMono-35" transform="translate(722.460938 0)"/>
      <use xlink:href="#DejaVuSansMono-30" transform="translate(782.666016 0)"/>
      <use xlink:href="#DejaVuSansMono-63" transform="translate(842.871094 0)"/>
      <use xlink:href="#DejaVuSansMono-30" transform="translate(903.076172 0)"/>
      <use xlink:href="#DejaVuSansMono-32" transform="translate(963.28125 0)"/>
      <use xlink:href="#DejaVuSansMono-64" transform="translate(1023.486328 0)"/>
      <use xlink:href="#DejaVuSansMono-39" transform="translate(1083.691406 0)"/>
      <use xlink:href="#DejaVuSansMono-61" transform="translate(1143.896484 0)"/>
      <use xlink:href="#DejaVuSansMono-39" transform="translate(1204.101562 0)"/>
      <use xlink:href="#DejaVuSansMono-31" transform="translate(1264.306641 0)"/>
      <use xlink:href="#DejaVuSansMono-30" transform="translate(1324.511719 0)"/>
      <use xlink:href="#DejaVuSansMono-36" transform="translate(1384.716797 0)"/>
      <use xlink:href="#DejaVuSansMono-61" transform="translate(1444.921875 0)"/>
      <use xlink:href="#DejaVuSansMono-63" transform="translate(1505.126953 0)"/>
      <use xlink:href="#DejaVuSansMono-65" transform="translate(1565.332031 0)"/>
      <use xlink:href="#DejaVuSansMono-63" transform="translate(1625.537109 0)"/>
     </g>
    </g>
   </g>
   <g id="text_5">
    <g clip-path="url(#pe5a0501096)">
     <!-- linear::b::hf214847a4473eaff -->
     <g transform="translate(199.084951 396.858657) scale(0.08 -0.08)">
      <defs>
       <path id="DejaVuSansMono-34" d="M 2297 4091 
L 825 1625 
L 2297 1625 
L 2297 4091 
z
M 2194 4666 
L 2925 4666 
L 2925 1625 
L 3547 1625 
L 3547 1113 
L 2925 1113 
L 2925 0 
L 2297 0 
L 2297 1113 
L 319 1113 
L 319 1709 
L 2194 4666 
z
" transform="scale(0.015625)"/>
      </defs>
      <use xlink:href="#DejaVuSansMono-6c"/>
      <use xlink:href="#DejaVuSansMono-69" transform="translate(60.205078 0)"/>
      <use xlink:href="#DejaVuSansMono-6e" transform="translate(120.410156 0)"/>
      <use xlink:href="#DejaVuSansMono-65" transform="translate(180.615234 0)"/>
      <use xlink:href="#DejaVuSansMono-61" transform="translate(240.820312 0)"/>
      <use xlink:href="#DejaVuSansMono-72" transform="translate(301.025391 0)"/>
      <use xlink:href="#DejaVuSansMono-3a" transform="translate(361.230469 0)"/>
      <use xlink:href="#DejaVuSansMono-3a" transform="translate(421.435547 0)"/>
      <use xlink:href="#DejaVuSansMono-62" transform="translate(481.640625 0)"/>
      <use xlink:href="#DejaVuSansMono-3a" transform="translate(541.845703 0)"/>
      <use xlink:href="#DejaVuSansMono-3a" transform="translate(602.050781 0)"/>
      <use xlink:href="#DejaVuSansMono-68" transform="translate(662.255859 0)"/>
      <use xlink:href="#DejaVuSansMono-66" transform="translate(722.460938 0)"/>
      <use xlink:href="#DejaVuSansMono-32" transform="translate(782.666016 0)"/>
      <use xlink:href="#DejaVuSansMono-31" transform="translate(842.871094 0)"/>
      <use xlink:href="#DejaVuSansMono-34" transform="translate(903.076172 0)"/>
      <use xlink:href="#DejaVuSansMono-38" transform="translate(963.28125 0)"/>
      <use xlink:href="#DejaVuSansMono-34" transform="translate(1023.486328 0)"/>
      <use xlink:href="#DejaVuSansMono-37" transform="translate(1083.691406 0)"/>
      <use xlink:href="#DejaVuSansMono-61" transform="translate(1143.896484 0)"/>
      <use xlink:href="#DejaVuSansMono-34" transform="translate(1204.101562 0)"/>
      <use xlink:href="#DejaVuSansMono-34" transform="translate(1264.306641 0)"/>
      <use xlink:href="#DejaVuSansMono-37" transform="translate(1324.511719 0)"/>
      <use xlink:href="#DejaVuSansMono-33" transform="translate(1384.716797 0)"/>
      <use xlink:href="#DejaVuSansMono-65" transform="translate(1444.921875 0)"/>
      <use xlink:href="#DejaVuSansMono-61" transform="translate(1505.126953 0)"/>
      <use xlink:href="#DejaVuSansMono-66" transform="translate(1565.332031 0)"/>
      <use xlink:href="#DejaVuSansMono-66" transform="translate(1625.537109 0)"/>
     </g>
    </g>
   </g>
   <g id="text_6">
    <!-- Filtered LLVM IR Call Graph (User Functions) - Cycles Highlighted -->
    <g transform="translate(260.082188 16.318125) scale(0.12 -0.12)">
     <defs>
      <path id="DejaVuSans-46" d="M 628 4666 
L 3309 4666 
L 3309 4134 
L 1259 4134 
L 1259 2759 
L 3109 2759 
L 3109 2228 
L 1259 2228 
L 1259 0 
L 628 0 
L 628 4666 
z
" transform="scale(0.015625)"/>
      <path id="DejaVuSans-69" d="M 603 3500 
L 1178 3500 
L 1178 0 
L 603 0 
L 603 3500 
z
M 603 4863 
L 1178 4863 
L 1178 4134 
L 603 4134 
L 603 4863 
z
" transform="scale(0.015625)"/>
      <path id="DejaVuSans-6c" d="M 603 4863 
L 1178 4863 
L 1178 0 
L 603 0 
L 603 4863 
z
" transform="scale(0.015625)"/>
      <path id="DejaVuSans-74" d="M 1172 4494 
L 1172 3500 
L 2356 3500 
L 2356 3053 
L 1172 3053 
L 1172 1153 
Q 1172 725 1289 603 
Q 1406 481 1766 481 
L 2356 481 
L 2356 0 
L 1766 0 
Q 1100 0 847 248 
Q 594 497 594 1153 
L 594 3053 
L 172 3053 
L 172 3500 
L 594 3500 
L 594 4494 
L 1172 4494 
z
" transform="scale(0.015625)"/>
      <path id="DejaVuSans-65" d="M 3597 1894 
L 3597 1613 
L 953 1613 
Q 991 1019 1311 708 
Q 1631 397 2203 397 
Q 2534 397 2845 478 
Q 3156 559 3463 722 
L 3463 178 
Q 3153 47 2828 -22 
Q 2503 -91 2169 -91 
Q 1331 -91 842 396 
Q 353 884 353 1716 
Q 353 2575 817 3079 
Q 1281 3584 2069 3584 
Q 2775 3584 3186 3129 
Q 3597 2675 3597 1894 
z
M 3022 2063 
Q 3016 2534 2758 2815 
Q 2500 3097 2075 3097 
Q 1594 3097 1305 2825 
Q 1016 2553 972 2059 
L 3022 2063 
z
" transform="scale(0.015625)"/>
      <path id="DejaVuSans-72" d="M 2631 2963 
Q 2534 3019 2420 3045 
Q 2306 3072 2169 3072 
Q 1681 3072 1420 2755 
Q 1159 2438 1159 1844 
L 1159 0 
L 581 0 
L 581 3500 
L 1159 3500 
L 1159 2956 
Q 1341 3275 1631 3429 
Q 1922 3584 2338 3584 
Q 2397 3584 2469 3576 
Q 2541 3569 2628 3553 
L 2631 2963 
z
" transform="scale(0.015625)"/>
      <path id="DejaVuSans-64" d="M 2906 2969 
L 2906 4863 
L 3481 4863 
L 3481 0 
L 2906 0 
L 2906 525 
Q 2725 213 2448 61 
Q 2172 -91 1784 -91 
Q 1150 -91 751 415 
Q 353 922 353 1747 
Q 353 2572 751 3078 
Q 1150 3584 1784 3584 
Q 2172 3584 2448 3432 
Q 2725 3281 2906 2969 
z
M 947 1747 
Q 947 1113 1208 752 
Q 1469 391 1925 391 
Q 2381 391 2643 752 
Q 2906 1113 2906 1747 
Q 2906 2381 2643 2742 
Q 2381 3103 1925 3103 
Q 1469 3103 1208 2742 
Q 947 2381 947 1747 
z
" transform="scale(0.015625)"/>
      <path id="DejaVuSans-20" transform="scale(0.015625)"/>
      <path id="DejaVuSans-4c" d="M 628 4666 
L 1259 4666 
L 1259 531 
L 3531 531 
L 3531 0 
L 628 0 
L 628 4666 
z
" transform="scale(0.015625)"/>
      <path id="DejaVuSans-56" d="M 1831 0 
L 50 4666 
L 709 4666 
L 2188 738 
L 3669 4666 
L 4325 4666 
L 2547 0 
L 1831 0 
z
" transform="scale(0.015625)"/>
      <path id="DejaVuSans-4d" d="M 628 4666 
L 1569 4666 
L 2759 1491 
L 3956 4666 
L 4897 4666 
L 4897 0 
L 4281 0 
L 4281 4097 
L 3078 897 
L 2444 897 
L 1241 4097 
L 1241 0 
L 628 0 
L 628 4666 
z
" transform="scale(0.015625)"/>
      <path id="DejaVuSans-49" d="M 628 4666 
L 1259 4666 
L 1259 0 
L 628 0 
L 628 4666 
z
" transform="scale(0.015625)"/>
      <path id="DejaVuSans-52" d="M 2841 2188 
Q 3044 2119 3236 1894 
Q 3428 1669 3622 1275 
L 4263 0 
L 3584 0 
L 2988 1197 
Q 2756 1666 2539 1819 
Q 2322 1972 1947 1972 
L 1259 1972 
L 1259 0 
L 628 0 
L 628 4666 
L 2053 4666 
Q 2853 4666 3247 4331 
Q 3641 3997 3641 3322 
Q 3641 2881 3436 2590 
Q 3231 2300 2841 2188 
z
M 1259 4147 
L 1259 2491 
L 2053 2491 
Q 2509 2491 2742 2702 
Q 2975 2913 2975 3322 
Q 2975 3731 2742 3939 
Q 2509 4147 2053 4147 
L 1259 4147 
z
" transform="scale(0.015625)"/>
      <path id="DejaVuSans-43" d="M 4122 4306 
L 4122 3641 
Q 3803 3938 3442 4084 
Q 3081 4231 2675 4231 
Q 1875 4231 1450 3742 
Q 1025 3253 1025 2328 
Q 1025 1406 1450 917 
Q 1875 428 2675 428 
Q 3081 428 3442 575 
Q 3803 722 4122 1019 
L 4122 359 
Q 3791 134 3420 21 
Q 3050 -91 2638 -91 
Q 1578 -91 968 557 
Q 359 1206 359 2328 
Q 359 3453 968 4101 
Q 1578 4750 2638 4750 
Q 3056 4750 3426 4639 
Q 3797 4528 4122 4306 
z
" transform="scale(0.015625)"/>
      <path id="DejaVuSans-61" d="M 2194 1759 
Q 1497 1759 1228 1600 
Q 959 1441 959 1056 
Q 959 750 1161 570 
Q 1363 391 1709 391 
Q 2188 391 2477 730 
Q 2766 1069 2766 1631 
L 2766 1759 
L 2194 1759 
z
M 3341 1997 
L 3341 0 
L 2766 0 
L 2766 531 
Q 2569 213 2275 61 
Q 1981 -91 1556 -91 
Q 1019 -91 701 211 
Q 384 513 384 1019 
Q 384 1609 779 1909 
Q 1175 2209 1959 2209 
L 2766 2209 
L 2766 2266 
Q 2766 2663 2505 2880 
Q 2244 3097 1772 3097 
Q 1472 3097 1187 3025 
Q 903 2953 641 2809 
L 641 3341 
Q 956 3463 1253 3523 
Q 1550 3584 1831 3584 
Q 2591 3584 2966 3190 
Q 3341 2797 3341 1997 
z
" transform="scale(0.015625)"/>
      <path id="DejaVuSans-47" d="M 3809 666 
L 3809 1919 
L 2778 1919 
L 2778 2438 
L 4434 2438 
L 4434 434 
Q 4069 175 3628 42 
Q 3188 -91 2688 -91 
Q 1594 -91 976 548 
Q 359 1188 359 2328 
Q 359 3472 976 4111 
Q 1594 4750 2688 4750 
Q 3144 4750 3555 4637 
Q 3966 4525 4313 4306 
L 4313 3634 
Q 3963 3931 3569 4081 
Q 3175 4231 2741 4231 
Q 1884 4231 1454 3753 
Q 1025 3275 1025 2328 
Q 1025 1384 1454 906 
Q 1884 428 2741 428 
Q 3075 428 3337 486 
Q 3600 544 3809 666 
z
" transform="scale(0.015625)"/>
      <path id="DejaVuSans-70" d="M 1159 525 
L 1159 -1331 
L 581 -1331 
L 581 3500 
L 1159 3500 
L 1159 2969 
Q 1341 3281 1617 3432 
Q 1894 3584 2278 3584 
Q 2916 3584 3314 3078 
Q 3713 2572 3713 1747 
Q 3713 922 3314 415 
Q 2916 -91 2278 -91 
Q 1894 -91 1617 61 
Q 1341 213 1159 525 
z
M 3116 1747 
Q 3116 2381 2855 2742 
Q 2594 3103 2138 3103 
Q 1681 3103 1420 2742 
Q 1159 2381 1159 1747 
Q 1159 1113 1420 752 
Q 1681 391 2138 391 
Q 2594 391 2855 752 
Q 3116 1113 3116 1747 
z
" transform="scale(0.015625)"/>
      <path id="DejaVuSans-68" d="M 3513 2113 
L 3513 0 
L 2938 0 
L 2938 2094 
Q 2938 2591 2744 2837 
Q 2550 3084 2163 3084 
Q 1697 3084 1428 2787 
Q 1159 2491 1159 1978 
L 1159 0 
L 581 0 
L 581 4863 
L 1159 4863 
L 1159 2956 
Q 1366 3272 1645 3428 
Q 1925 3584 2291 3584 
Q 2894 3584 3203 3211 
Q 3513 2838 3513 2113 
z
" transform="scale(0.015625)"/>
      <path id="DejaVuSans-28" d="M 1984 4856 
Q 1566 4138 1362 3434 
Q 1159 2731 1159 2009 
Q 1159 1288 1364 580 
Q 1569 -128 1984 -844 
L 1484 -844 
Q 1016 -109 783 600 
Q 550 1309 550 2009 
Q 550 2706 781 3412 
Q 1013 4119 1484 4856 
L 1984 4856 
z
" transform="scale(0.015625)"/>
      <path id="DejaVuSans-55" d="M 556 4666 
L 1191 4666 
L 1191 1831 
Q 1191 1081 1462 751 
Q 1734 422 2344 422 
Q 2950 422 3222 751 
Q 3494 1081 3494 1831 
L 3494 4666 
L 4128 4666 
L 4128 1753 
Q 4128 841 3676 375 
Q 3225 -91 2344 -91 
Q 1459 -91 1007 375 
Q 556 841 556 1753 
L 556 4666 
z
" transform="scale(0.015625)"/>
      <path id="DejaVuSans-73" d="M 2834 3397 
L 2834 2853 
Q 2591 2978 2328 3040 
Q 2066 3103 1784 3103 
Q 1356 3103 1142 2972 
Q 928 2841 928 2578 
Q 928 2378 1081 2264 
Q 1234 2150 1697 2047 
L 1894 2003 
Q 2506 1872 2764 1633 
Q 3022 1394 3022 966 
Q 3022 478 2636 193 
Q 2250 -91 1575 -91 
Q 1294 -91 989 -36 
Q 684 19 347 128 
L 347 722 
Q 666 556 975 473 
Q 1284 391 1588 391 
Q 1994 391 2212 530 
Q 2431 669 2431 922 
Q 2431 1156 2273 1281 
Q 2116 1406 1581 1522 
L 1381 1569 
Q 847 1681 609 1914 
Q 372 2147 372 2553 
Q 372 3047 722 3315 
Q 1072 3584 1716 3584 
Q 2034 3584 2315 3537 
Q 2597 3491 2834 3397 
z
" transform="scale(0.015625)"/>
      <path id="DejaVuSans-75" d="M 544 1381 
L 544 3500 
L 1119 3500 
L 1119 1403 
Q 1119 906 1312 657 
Q 1506 409 1894 409 
Q 2359 409 2629 706 
Q 2900 1003 2900 1516 
L 2900 3500 
L 3475 3500 
L 3475 0 
L 2900 0 
L 2900 538 
Q 2691 219 2414 64 
Q 2138 -91 1772 -91 
Q 1169 -91 856 284 
Q 544 659 544 1381 
z
M 1991 3584 
L 1991 3584 
z
" transform="scale(0.015625)"/>
      <path id="DejaVuSans-6e" d="M 3513 2113 
L 3513 0 
L 2938 0 
L 2938 2094 
Q 2938 2591 2744 2837 
Q 2550 3084 2163 3084 
Q 1697 3084 1428 2787 
Q 1159 2491 1159 1978 
L 1159 0 
L 581 0 
L 581 3500 
L 1159 3500 
L 1159 2956 
Q 1366 3272 1645 3428 
Q 1925 3584 2291 3584 
Q 2894 3584 3203 3211 
Q 3513 2838 3513 2113 
z
" transform="scale(0.015625)"/>
      <path id="DejaVuSans-63" d="M 3122 3366 
L 3122 2828 
Q 2878 2963 2633 3030 
Q 2388 3097 2138 3097 
Q 1578 3097 1268 2742 
Q 959 2388 959 1747 
Q 959 1106 1268 751 
Q 1578 397 2138 397 
Q 2388 397 2633 464 
Q 2878 531 3122 666 
L 3122 134 
Q 2881 22 2623 -34 
Q 2366 -91 2075 -91 
Q 1284 -91 818 406 
Q 353 903 353 1747 
Q 353 2603 823 3093 
Q 1294 3584 2113 3584 
Q 2378 3584 2631 3529 
Q 2884 3475 3122 3366 
z
" transform="scale(0.015625)"/>
      <path id="DejaVuSans-6f" d="M 1959 3097 
Q 1497 3097 1228 2736 
Q 959 2375 959 1747 
Q 959 1119 1226 758 
Q 1494 397 1959 397 
Q 2419 397 2687 759 
Q 2956 1122 2956 1747 
Q 2956 2369 2687 2733 
Q 2419 3097 1959 3097 
z
M 1959 3584 
Q 2709 3584 3137 3096 
Q 3566 2609 3566 1747 
Q 3566 888 3137 398 
Q 2709 -91 1959 -91 
Q 1206 -91 779 398 
Q 353 888 353 1747 
Q 353 2609 779 3096 
Q 1206 3584 1959 3584 
z
" transform="scale(0.015625)"/>
      <path id="DejaVuSans-29" d="M 513 4856 
L 1013 4856 
Q 1481 4119 1714 3412 
Q 1947 2706 1947 2009 
Q 1947 1309 1714 600 
Q 1481 -109 1013 -844 
L 513 -844 
Q 928 -128 1133 580 
Q 1338 1288 1338 2009 
Q 1338 2731 1133 3434 
Q 928 4138 513 4856 
z
" transform="scale(0.015625)"/>
      <path id="DejaVuSans-2d" d="M 313 2009 
L 1997 2009 
L 1997 1497 
L 313 1497 
L 313 2009 
z
" transform="scale(0.015625)"/>
      <path id="DejaVuSans-79" d="M 2059 -325 
Q 1816 -950 1584 -1140 
Q 1353 -1331 966 -1331 
L 506 -1331 
L 506 -850 
L 844 -850 
Q 1081 -850 1212 -737 
Q 1344 -625 1503 -206 
L 1606 56 
L 191 3500 
L 800 3500 
L 1894 763 
L 2988 3500 
L 3597 3500 
L 2059 -325 
z
" transform="scale(0.015625)"/>
      <path id="DejaVuSans-48" d="M 628 4666 
L 1259 4666 
L 1259 2753 
L 3553 2753 
L 3553 4666 
L 4184 4666 
L 4184 0 
L 3553 0 
L 3553 2222 
L 1259 2222 
L 1259 0 
L 628 0 
L 628 4666 
z
" transform="scale(0.015625)"/>
      <path id="DejaVuSans-67" d="M 2906 1791 
Q 2906 2416 2648 2759 
Q 2391 3103 1925 3103 
Q 1463 3103 1205 2759 
Q 947 2416 947 1791 
Q 947 1169 1205 825 
Q 1463 481 1925 481 
Q 2391 481 2648 825 
Q 2906 1169 2906 1791 
z
M 3481 434 
Q 3481 -459 3084 -895 
Q 2688 -1331 1869 -1331 
Q 1566 -1331 1297 -1286 
Q 1028 -1241 775 -1147 
L 775 -588 
Q 1028 -725 1275 -790 
Q 1522 -856 1778 -856 
Q 2344 -856 2625 -561 
Q 2906 -266 2906 331 
L 2906 616 
Q 2728 306 2450 153 
Q 2172 0 1784 0 
Q 1141 0 747 490 
Q 353 981 353 1791 
Q 353 2603 747 3093 
Q 1141 3584 1784 3584 
Q 2172 3584 2450 3431 
Q 2728 3278 2906 2969 
L 2906 3500 
L 3481 3500 
L 3481 434 
z
" transform="scale(0.015625)"/>
     </defs>
     <use xlink:href="#DejaVuSans-46"/>
     <use xlink:href="#DejaVuSans-69" transform="translate(50.269531 0)"/>
     <use xlink:href="#DejaVuSans-6c" transform="translate(78.052734 0)"/>
     <use xlink:href="#DejaVuSans-74" transform="translate(105.835938 0)"/>
     <use xlink:href="#DejaVuSans-65" transform="translate(145.044922 0)"/>
     <use xlink:href="#DejaVuSans-72" transform="translate(206.568359 0)"/>
     <use xlink:href="#DejaVuSans-65" transform="translate(245.431641 0)"/>
     <use xlink:href="#DejaVuSans-64" transform="translate(306.955078 0)"/>
     <use xlink:href="#DejaVuSans-20" transform="translate(370.431641 0)"/>
     <use xlink:href="#DejaVuSans-4c" transform="translate(402.21875 0)"/>
     <use xlink:href="#DejaVuSans-4c" transform="translate(457.931641 0)"/>
     <use xlink:href="#DejaVuSans-56" transform="translate(502.644531 0)"/>
     <use xlink:href="#DejaVuSans-4d" transform="translate(571.052734 0)"/>
     <use xlink:href="#DejaVuSans-20" transform="translate(657.332031 0)"/>
     <use xlink:href="#DejaVuSans-49" transform="translate(689.119141 0)"/>
     <use xlink:href="#DejaVuSans-52" transform="translate(718.611328 0)"/>
     <use xlink:href="#DejaVuSans-20" transform="translate(788.09375 0)"/>
     <use xlink:href="#DejaVuSans-43" transform="translate(819.880859 0)"/>
     <use xlink:href="#DejaVuSans-61" transform="translate(889.705078 0)"/>
     <use xlink:href="#DejaVuSans-6c" transform="translate(950.984375 0)"/>
     <use xlink:href="#DejaVuSans-6c" transform="translate(978.767578 0)"/>
     <use xlink:href="#DejaVuSans-20" transform="translate(1006.550781 0)"/>
     <use xlink:href="#DejaVuSans-47" transform="translate(1038.337891 0)"/>
     <use xlink:href="#DejaVuSans-72" transform="translate(1115.828125 0)"/>
     <use xlink:href="#DejaVuSans-61" transform="translate(1156.941406 0)"/>
     <use xlink:href="#DejaVuSans-70" transform="translate(1218.220703 0)"/>
     <use xlink:href="#DejaVuSans-68" transform="translate(1281.697266 0)"/>
     <use xlink:href="#DejaVuSans-20" transform="translate(1345.076172 0)"/>
     <use xlink:href="#DejaVuSans-28" transform="translate(1376.863281 0)"/>
     <use xlink:href="#DejaVuSans-55" transform="translate(1415.876953 0)"/>
     <use xlink:href="#DejaVuSans-73" transform="translate(1489.070312 0)"/>
     <use xlink:href="#DejaVuSans-65" transform="translate(1541.169922 0)"/>
     <use xlink:href="#DejaVuSans-72" transform="translate(1602.693359 0)"/>
     <use xlink:href="#DejaVuSans-20" transform="translate(1643.806641 0)"/>
     <use xlink:href="#DejaVuSans-46" transform="translate(1675.59375 0)"/>
     <use xlink:href="#DejaVuSans-75" transform="translate(1727.613281 0)"/>
     <use xlink:href="#DejaVuSans-6e" transform="translate(1790.992188 0)"/>
     <use xlink:href="#DejaVuSans-63" transform="translate(1854.371094 0)"/>
     <use xlink:href="#DejaVuSans-74" transform="translate(1909.351562 0)"/>
     <use xlink:href="#DejaVuSans-69" transform="translate(1948.560547 0)"/>
     <use xlink:href="#DejaVuSans-6f" transform="translate(1976.34375 0)"/>
     <use xlink:href="#DejaVuSans-6e" transform="translate(2037.525391 0)"/>
     <use xlink:href="#DejaVuSans-73" transform="translate(2100.904297 0)"/>
     <use xlink:href="#DejaVuSans-29" transform="translate(2153.003906 0)"/>
     <use xlink:href="#DejaVuSans-20" transform="translate(2192.017578 0)"/>
     <use xlink:href="#DejaVuSans-2d" transform="translate(2223.804688 0)"/>
     <use xlink:href="#DejaVuSans-20" transform="translate(2259.888672 0)"/>
     <use xlink:href="#DejaVuSans-43" transform="translate(2291.675781 0)"/>
     <use xlink:href="#DejaVuSans-79" transform="translate(2361.5 0)"/>
     <use xlink:href="#DejaVuSans-63" transform="translate(2420.679688 0)"/>
     <use xlink:href="#DejaVuSans-6c" transform="translate(2475.660156 0)"/>
     <use xlink:href="#DejaVuSans-65" transform="translate(2503.443359 0)"/>
     <use xlink:href="#DejaVuSans-73" transform="translate(2564.966797 0)"/>
     <use xlink:href="#DejaVuSans-20" transform="translate(2617.066406 0)"/>
     <use xlink:href="#DejaVuSans-48" transform="translate(2648.853516 0)"/>
     <use xlink:href="#DejaVuSans-69" transform="translate(2724.048828 0)"/>
     <use xlink:href="#DejaVuSans-67" transform="translate(2751.832031 0)"/>
     <use xlink:href="#DejaVuSans-68" transform="translate(2815.308594 0)"/>
     <use xlink:href="#DejaVuSans-6c" transform="translate(2878.6875 0)"/>
     <use xlink:href="#DejaVuSans-69" transform="translate(2906.470703 0)"/>
     <use xlink:href="#DejaVuSans-67" transform="translate(2934.253906 0)"/>
     <use xlink:href="#DejaVuSans-68" transform="translate(2997.730469 0)"/>
     <use xlink:href="#DejaVuSans-74" transform="translate(3061.109375 0)"/>
     <use xlink:href="#DejaVuSans-65" transform="translate(3100.318359 0)"/>
     <use xlink:href="#DejaVuSans-64" transform="translate(3161.841797 0)"/>
    </g>
    <!-- File: linear.filtered.ll -->
    <g transform="translate(394.73625 29.7555) scale(0.12 -0.12)">
     <defs>
      <path id="DejaVuSans-3a" d="M 750 794 
L 1409 794 
L 1409 0 
L 750 0 
L 750 794 
z
M 750 3309 
L 1409 3309 
L 1409 2516 
L 750 2516 
L 750 3309 
z
" transform="scale(0.015625)"/>
      <path id="DejaVuSans-2e" d="M 684 794 
L 1344 794 
L 1344 0 
L 684 0 
L 684 794 
z
" transform="scale(0.015625)"/>
      <path id="DejaVuSans-66" d="M 2375 4863 
L 2375 4384 
L 1825 4384 
Q 1516 4384 1395 4259 
Q 1275 4134 1275 3809 
L 1275 3500 
L 2222 3500 
L 2222 3053 
L 1275 3053 
L 1275 0 
L 697 0 
L 697 3053 
L 147 3053 
L 147 3500 
L 697 3500 
L 697 3744 
Q 697 4328 969 4595 
Q 1241 4863 1831 4863 
L 2375 4863 
z
" transform="scale(0.015625)"/>
     </defs>
     <use xlink:href="#DejaVuSans-46"/>
     <use xlink:href="#DejaVuSans-69" transform="translate(50.269531 0)"/>
     <use xlink:href="#DejaVuSans-6c" transform="translate(78.052734 0)"/>
     <use xlink:href="#DejaVuSans-65" transform="translate(105.835938 0)"/>
     <use xlink:href="#DejaVuSans-3a" transform="translate(167.359375 0)"/>
     <use xlink:href="#DejaVuSans-20" transform="translate(201.050781 0)"/>
     <use xlink:href="#DejaVuSans-6c" transform="translate(232.837891 0)"/>
     <use xlink:href="#DejaVuSans-69" transform="translate(260.621094 0)"/>
     <use xlink:href="#DejaVuSans-6e" transform="translate(288.404297 0)"/>
     <use xlink:href="#DejaVuSans-65" transform="translate(351.783203 0)"/>
     <use xlink:href="#DejaVuSans-61" transform="translate(413.306641 0)"/>
     <use xlink:href="#DejaVuSans-72" transform="translate(474.585938 0)"/>
     <use xlink:href="#DejaVuSans-2e" transform="translate(506.574219 0)"/>
     <use xlink:href="#DejaVuSans-66" transform="translate(538.361328 0)"/>
     <use xlink:href="#DejaVuSans-69" transform="translate(573.566406 0)"/>
     <use xlink:href="#DejaVuSans-6c" transform="translate(601.349609 0)"/>
     <use xlink:href="#DejaVuSans-74" transform="translate(629.132812 0)"/>
     <use xlink:href="#DejaVuSans-65" transform="translate(668.341797 0)"/>
     <use xlink:href="#DejaVuSans-72" transform="translate(729.865234 0)"/>
     <use xlink:href="#DejaVuSans-65" transform="translate(768.728516 0)"/>
     <use xlink:href="#DejaVuSans-64" transform="translate(830.251953 0)"/>
     <use xlink:href="#DejaVuSans-2e" transform="translate(893.728516 0)"/>
     <use xlink:href="#DejaVuSans-6c" transform="translate(925.515625 0)"/>
     <use xlink:href="#DejaVuSans-6c" transform="translate(953.298828 0)"/>
    </g>
   </g>
   <g id="legend_1">
    <g id="patch_6">
     <path d="M 812.94125 113.578312 
L 894.4 113.578312 
Q 896 113.578312 896 111.978312 
L 896 41.3555 
Q 896 39.7555 894.4 39.7555 
L 812.94125 39.7555 
Q 811.34125 39.7555 811.34125 41.3555 
L 811.34125 111.978312 
Q 811.34125 113.578312 812.94125 113.578312 
z
" style="fill: #ffffff; opacity: 0.8; stroke: #cccccc; stroke-linejoin: miter"/>
    </g>
    <g id="text_7">
     <!-- Legend -->
     <g transform="translate(837.13875 49.794094) scale(0.09 -0.09)">
      <use xlink:href="#DejaVuSans-4c"/>
      <use xlink:href="#DejaVuSans-65" transform="translate(53.962891 0)"/>
      <use xlink:href="#DejaVuSans-67" transform="translate(115.486328 0)"/>
      <use xlink:href="#DejaVuSans-65" transform="translate(178.962891 0)"/>
      <use xlink:href="#DejaVuSans-6e" transform="translate(240.486328 0)"/>
      <use xlink:href="#DejaVuSans-64" transform="translate(303.865234 0)"/>
     </g>
    </g>
    <g id="line2d_1">
     <path d="M 814.54125 58.944562 
L 822.54125 58.944562 
L 830.54125 58.944562 
" style="fill: none; stroke: #ff0000; stroke-width: 2; stroke-linecap: square"/>
    </g>
    <g id="text_8">
     <!-- Edge in cycle -->
     <g transform="translate(836.94125 61.744562) scale(0.08 -0.08)">
      <defs>
       <path id="DejaVuSans-45" d="M 628 4666 
L 3578 4666 
L 3578 4134 
L 1259 4134 
L 1259 2753 
L 3481 2753 
L 3481 2222 
L 1259 2222 
L 1259 531 
L 3634 531 
L 3634 0 
L 628 0 
L 628 4666 
z
" transform="scale(0.015625)"/>
      </defs>
      <use xlink:href="#DejaVuSans-45"/>
      <use xlink:href="#DejaVuSans-64" transform="translate(63.183594 0)"/>
      <use xlink:href="#DejaVuSans-67" transform="translate(126.660156 0)"/>
      <use xlink:href="#DejaVuSans-65" transform="translate(190.136719 0)"/>
      <use xlink:href="#DejaVuSans-20" transform="translate(251.660156 0)"/>
      <use xlink:href="#DejaVuSans-69" transform="translate(283.447266 0)"/>
      <use xlink:href="#DejaVuSans-6e" transform="translate(311.230469 0)"/>
      <use xlink:href="#DejaVuSans-20" transform="translate(374.609375 0)"/>
      <use xlink:href="#DejaVuSans-63" transform="translate(406.396484 0)"/>
      <use xlink:href="#DejaVuSans-79" transform="translate(461.376953 0)"/>
      <use xlink:href="#DejaVuSans-63" transform="translate(520.556641 0)"/>
      <use xlink:href="#DejaVuSans-6c" transform="translate(575.537109 0)"/>
      <use xlink:href="#DejaVuSans-65" transform="translate(603.320312 0)"/>
     </g>
    </g>
    <g id="line2d_2">
     <path d="M 814.54125 70.687062 
L 822.54125 70.687062 
L 830.54125 70.687062 
" style="fill: none; stroke: #aaaaaa; stroke-linecap: square"/>
    </g>
    <g id="text_9">
     <!-- Normal edge -->
     <g transform="translate(836.94125 73.487062) scale(0.08 -0.08)">
      <defs>
       <path id="DejaVuSans-4e" d="M 628 4666 
L 1478 4666 
L 3547 763 
L 3547 4666 
L 4159 4666 
L 4159 0 
L 3309 0 
L 1241 3903 
L 1241 0 
L 628 0 
L 628 4666 
z
" transform="scale(0.015625)"/>
       <path id="DejaVuSans-6d" d="M 3328 2828 
Q 3544 3216 3844 3400 
Q 4144 3584 4550 3584 
Q 5097 3584 5394 3201 
Q 5691 2819 5691 2113 
L 5691 0 
L 5113 0 
L 5113 2094 
Q 5113 2597 4934 2840 
Q 4756 3084 4391 3084 
Q 3944 3084 3684 2787 
Q 3425 2491 3425 1978 
L 3425 0 
L 2847 0 
L 2847 2094 
Q 2847 2600 2669 2842 
Q 2491 3084 2119 3084 
Q 1678 3084 1418 2786 
Q 1159 2488 1159 1978 
L 1159 0 
L 581 0 
L 581 3500 
L 1159 3500 
L 1159 2956 
Q 1356 3278 1631 3431 
Q 1906 3584 2284 3584 
Q 2666 3584 2933 3390 
Q 3200 3197 3328 2828 
z
" transform="scale(0.015625)"/>
      </defs>
      <use xlink:href="#DejaVuSans-4e"/>
      <use xlink:href="#DejaVuSans-6f" transform="translate(74.804688 0)"/>
      <use xlink:href="#DejaVuSans-72" transform="translate(135.986328 0)"/>
      <use xlink:href="#DejaVuSans-6d" transform="translate(175.349609 0)"/>
      <use xlink:href="#DejaVuSans-61" transform="translate(272.761719 0)"/>
      <use xlink:href="#DejaVuSans-6c" transform="translate(334.041016 0)"/>
      <use xlink:href="#DejaVuSans-20" transform="translate(361.824219 0)"/>
      <use xlink:href="#DejaVuSans-65" transform="translate(393.611328 0)"/>
      <use xlink:href="#DejaVuSans-64" transform="translate(455.134766 0)"/>
      <use xlink:href="#DejaVuSans-67" transform="translate(518.611328 0)"/>
      <use xlink:href="#DejaVuSans-65" transform="translate(582.087891 0)"/>
     </g>
    </g>
    <g id="patch_7">
     <path d="M 814.54125 85.229562 
L 830.54125 85.229562 
L 830.54125 79.629562 
L 814.54125 79.629562 
z
" style="fill: #ffcccc; stroke: #aa0000; stroke-linejoin: miter"/>
    </g>
    <g id="text_10">
     <!-- Node in cycle -->
     <g transform="translate(836.94125 85.229562) scale(0.08 -0.08)">
      <use xlink:href="#DejaVuSans-4e"/>
      <use xlink:href="#DejaVuSans-6f" transform="translate(74.804688 0)"/>
      <use xlink:href="#DejaVuSans-64" transform="translate(135.986328 0)"/>
      <use xlink:href="#DejaVuSans-65" transform="translate(199.462891 0)"/>
      <use xlink:href="#DejaVuSans-20" transform="translate(260.986328 0)"/>
      <use xlink:href="#DejaVuSans-69" transform="translate(292.773438 0)"/>
      <use xlink:href="#DejaVuSans-6e" transform="translate(320.556641 0)"/>
      <use xlink:href="#DejaVuSans-20" transform="translate(383.935547 0)"/>
      <use xlink:href="#DejaVuSans-63" transform="translate(415.722656 0)"/>
      <use xlink:href="#DejaVuSans-79" transform="translate(470.703125 0)"/>
      <use xlink:href="#DejaVuSans-63" transform="translate(529.882812 0)"/>
      <use xlink:href="#DejaVuSans-6c" transform="translate(584.863281 0)"/>
      <use xlink:href="#DejaVuSans-65" transform="translate(612.646484 0)"/>
     </g>
    </g>
    <g id="patch_8">
     <path d="M 814.54125 96.972062 
L 830.54125 96.972062 
L 830.54125 91.372062 
L 814.54125 91.372062 
z
" style="fill: #ccccff; stroke: #333333; stroke-linejoin: miter"/>
    </g>
    <g id="text_11">
     <!-- Normal node -->
     <g transform="translate(836.94125 96.972062) scale(0.08 -0.08)">
      <use xlink:href="#DejaVuSans-4e"/>
      <use xlink:href="#DejaVuSans-6f" transform="translate(74.804688 0)"/>
      <use xlink:href="#DejaVuSans-72" transform="translate(135.986328 0)"/>
      <use xlink:href="#DejaVuSans-6d" transform="translate(175.349609 0)"/>
      <use xlink:href="#DejaVuSans-61" transform="translate(272.761719 0)"/>
      <use xlink:href="#DejaVuSans-6c" transform="translate(334.041016 0)"/>
      <use xlink:href="#DejaVuSans-20" transform="translate(361.824219 0)"/>
      <use xlink:href="#DejaVuSans-6e" transform="translate(393.611328 0)"/>
      <use xlink:href="#DejaVuSans-6f" transform="translate(456.990234 0)"/>
      <use xlink:href="#DejaVuSans-64" transform="translate(518.171875 0)"/>
      <use xlink:href="#DejaVuSans-65" transform="translate(581.648438 0)"/>
     </g>
    </g>
    <g id="line2d_3">
     <path d="M 814.54125 105.914562 
L 822.54125 105.914562 
L 830.54125 105.914562 
" style="fill: none; stroke: #ffffff; stroke-width: 1.5; stroke-linecap: square"/>
     <defs>
      <path id="m6509f4a0bf" d="M 5 0 
L -5 -5 
L -5 5 
z
" style="stroke: #ffffff; stroke-linejoin: miter"/>
     </defs>
     <g>
      <use xlink:href="#m6509f4a0bf" x="822.54125" y="105.914562" style="fill: #0000ff; stroke: #ffffff; stroke-linejoin: miter"/>
     </g>
    </g>
    <g id="text_12">
     <!-- Flow direction -->
     <g transform="translate(836.94125 108.714562) scale(0.08 -0.08)">
      <defs>
       <path id="DejaVuSans-77" d="M 269 3500 
L 844 3500 
L 1563 769 
L 2278 3500 
L 2956 3500 
L 3675 769 
L 4391 3500 
L 4966 3500 
L 4050 0 
L 3372 0 
L 2619 2869 
L 1863 0 
L 1184 0 
L 269 3500 
z
" transform="scale(0.015625)"/>
      </defs>
      <use xlink:href="#DejaVuSans-46"/>
      <use xlink:href="#DejaVuSans-6c" transform="translate(57.519531 0)"/>
      <use xlink:href="#DejaVuSans-6f" transform="translate(85.302734 0)"/>
      <use xlink:href="#DejaVuSans-77" transform="translate(146.484375 0)"/>
      <use xlink:href="#DejaVuSans-20" transform="translate(228.271484 0)"/>
      <use xlink:href="#DejaVuSans-64" transform="translate(260.058594 0)"/>
      <use xlink:href="#DejaVuSans-69" transform="translate(323.535156 0)"/>
      <use xlink:href="#DejaVuSans-72" transform="translate(351.318359 0)"/>
      <use xlink:href="#DejaVuSans-65" transform="translate(390.181641 0)"/>
      <use xlink:href="#DejaVuSans-63" transform="translate(451.705078 0)"/>
      <use xlink:href="#DejaVuSans-74" transform="translate(506.685547 0)"/>
      <use xlink:href="#DejaVuSans-69" transform="translate(545.894531 0)"/>
      <use xlink:href="#DejaVuSans-6f" transform="translate(573.677734 0)"/>
      <use xlink:href="#DejaVuSans-6e" transform="translate(634.859375 0)"/>
     </g>
    </g>
   </g>
  </g>
 </g>
 <defs>
  <clipPath id="pe5a0501096">
   <rect x="7.2" y="35.7555" width="892.8" height="720.72"/>
  </clipPath>
 </defs>
</svg>
