<?xml version="1.0" encoding="utf-8" standalone="no"?>
<!DOCTYPE svg PUBLIC "-//W3C//DTD SVG 1.1//EN"
  "http://www.w3.org/Graphics/SVG/1.1/DTD/svg11.dtd">
<svg xmlns:xlink="http://www.w3.org/1999/xlink" width="1290.4pt" height="1076.25pt" viewBox="0 0 1290.4 1076.25" xmlns="http://www.w3.org/2000/svg" version="1.1">
 <metadata>
  <rdf:RDF xmlns:dc="http://purl.org/dc/elements/1.1/" xmlns:cc="http://creativecommons.org/ns#" xmlns:rdf="http://www.w3.org/1999/02/22-rdf-syntax-ns#">
   <cc:Work>
    <dc:type rdf:resource="http://purl.org/dc/dcmitype/StillImage"/>
    <dc:date>2025-04-27T23:15:32.329998</dc:date>
    <dc:format>image/svg+xml</dc:format>
    <dc:creator>
     <cc:Agent>
      <dc:title>Matplotlib v3.10.1, https://matplotlib.org/</dc:title>
     </cc:Agent>
    </dc:creator>
   </cc:Work>
  </rdf:RDF>
 </metadata>
 <defs>
  <style type="text/css">*{stroke-linejoin: round; stroke-linecap: butt}</style>
 </defs>
 <g id="figure_1">
  <g id="patch_1">
   <path d="M 0 1076.25 
L 1290.4 1076.25 
L 1290.4 0 
L 0 0 
z
" style="fill: #ffffff"/>
  </g>
  <g id="axes_1">
   <g id="patch_2">
    <path d="M 995.832734 504.119874 
Q 983.195833 264.060763 776.226244 145.113883 
" clip-path="url(#p8a2637945f)" style="fill: none; stroke: #999999; stroke-opacity: 0.8; stroke-width: 1.5; stroke-linecap: round"/>
    <path d="M 784.876507 158.158918 
L 776.226244 145.113883 
L 791.85243 146.020694 
z
" clip-path="url(#p8a2637945f)" style="fill: #999999; fill-opacity: 0.8; stroke: #999999; stroke-opacity: 0.8; stroke-width: 1.5; stroke-linecap: round"/>
   </g>
   <g id="patch_3">
    <path d="M 993.884117 553.95659 
Q 974.20639 779.776873 1151.151868 918.755274 
" clip-path="url(#p8a2637945f)" style="fill: none; stroke: #999999; stroke-opacity: 0.8; stroke-width: 1.5; stroke-linecap: round"/>
    <path d="M 1144.46568 904.602716 
L 1151.151868 918.755274 
L 1135.818109 915.61269 
z
" clip-path="url(#p8a2637945f)" style="fill: #999999; fill-opacity: 0.8; stroke: #999999; stroke-opacity: 0.8; stroke-width: 1.5; stroke-linecap: round"/>
   </g>
   <g id="patch_4">
    <path d="M 1149.244073 925.541547 
Q 991.417792 868.083848 855.616874 964.042005 
" clip-path="url(#p8a2637945f)" style="fill: none; stroke: #999999; stroke-opacity: 0.8; stroke-width: 1.5; stroke-linecap: round"/>
    <path d="M 871.090063 961.679713 
L 855.616874 964.042005 
L 863.010954 950.246079 
z
" clip-path="url(#p8a2637945f)" style="fill: #999999; fill-opacity: 0.8; stroke: #999999; stroke-opacity: 0.8; stroke-width: 1.5; stroke-linecap: round"/>
   </g>
   <g id="patch_5">
    <path d="M 575.862802 570.223507 
Q 783.212398 664.837706 974.37741 543.843291 
" clip-path="url(#p8a2637945f)" style="fill: none; stroke: #999999; stroke-opacity: 0.8; stroke-width: 1.5; stroke-linecap: round"/>
    <path d="M 958.804127 545.415823 
L 974.37741 543.843291 
L 966.291466 557.245436 
z
" clip-path="url(#p8a2637945f)" style="fill: #999999; fill-opacity: 0.8; stroke: #999999; stroke-opacity: 0.8; stroke-width: 1.5; stroke-linecap: round"/>
   </g>
   <g id="patch_6">
    <path d="M 530.507827 549.209639 
Q 323.657443 463.08773 139.671687 588.005312 
" clip-path="url(#p8a2637945f)" style="fill: none; stroke: #999999; stroke-opacity: 0.8; stroke-width: 1.5; stroke-linecap: round"/>
    <path d="M 155.186318 585.932575 
L 139.671687 588.005312 
L 147.322276 574.349965 
z
" clip-path="url(#p8a2637945f)" style="fill: #999999; fill-opacity: 0.8; stroke: #999999; stroke-opacity: 0.8; stroke-width: 1.5; stroke-linecap: round"/>
   </g>
   <g id="PathCollection_1">
    <path d="M 996.614446 552.55817 
C 1002.83401 552.55817 1008.799674 550.087111 1013.19757 545.689215 
C 1017.595466 541.291319 1020.066525 535.325655 1020.066525 529.106091 
C 1020.066525 522.886527 1017.595466 516.920863 1013.19757 512.522967 
C 1008.799674 508.125071 1002.83401 505.654012 996.614446 505.654012 
C 990.394882 505.654012 984.429218 508.125071 980.031322 512.522967 
C 975.633426 516.920863 973.162367 522.886527 973.162367 529.106091 
C 973.162367 535.325655 975.633426 541.291319 980.031322 545.689215 
C 984.429218 550.087111 990.394882 552.55817 996.614446 552.55817 
z
" clip-path="url(#p8a2637945f)" style="fill: #d0d0ff; stroke: #444444; stroke-width: 2"/>
    <path d="M 1172.472727 958.237926 
C 1178.692291 958.237926 1184.657955 955.766867 1189.055851 951.368971 
C 1193.453747 946.971075 1195.924806 941.005411 1195.924806 934.785847 
C 1195.924806 928.566283 1193.453747 922.600619 1189.055851 918.202723 
C 1184.657955 913.804827 1178.692291 911.333768 1172.472727 911.333768 
C 1166.253163 911.333768 1160.287499 913.804827 1155.889603 918.202723 
C 1151.491707 922.600619 1149.020648 928.566283 1149.020648 934.785847 
C 1149.020648 941.005411 1151.491707 946.971075 1155.889603 951.368971 
C 1160.287499 955.766867 1166.253163 958.237926 1172.472727 958.237926 
z
" clip-path="url(#p8a2637945f)" style="fill: #d0d0ff; stroke: #444444; stroke-width: 2"/>
    <path d="M 834.264375 1003.488459 
C 840.483939 1003.488459 846.449603 1001.0174 850.847499 996.619504 
C 855.245395 992.221608 857.716454 986.255944 857.716454 980.03638 
C 857.716454 973.816816 855.245395 967.851152 850.847499 963.453256 
C 846.449603 959.05536 840.483939 956.584301 834.264375 956.584301 
C 828.044811 956.584301 822.079147 959.05536 817.681251 963.453256 
C 813.283355 967.851152 810.812296 973.816816 810.812296 980.03638 
C 810.812296 986.255944 813.283355 992.221608 817.681251 996.619504 
C 822.079147 1001.0174 828.044811 1003.488459 834.264375 1003.488459 
z
" clip-path="url(#p8a2637945f)" style="fill: #d0d0ff; stroke: #444444; stroke-width: 2"/>
    <path d="M 117.927273 626.908258 
C 124.146837 626.908258 130.112501 624.437199 134.510397 620.039303 
C 138.908293 615.641407 141.379352 609.675743 141.379352 603.456179 
C 141.379352 597.236615 138.908293 591.270951 134.510397 586.873055 
C 130.112501 582.475159 124.146837 580.0041 117.927273 580.0041 
C 111.707709 580.0041 105.742045 582.475159 101.344149 586.873055 
C 96.946253 591.270951 94.475194 597.236615 94.475194 603.456179 
C 94.475194 609.675743 96.946253 615.641407 101.344149 620.039303 
C 105.742045 624.437199 111.707709 626.908258 117.927273 626.908258 
z
" clip-path="url(#p8a2637945f)" style="fill: #d0d0ff; stroke: #444444; stroke-width: 2"/>
    <path d="M 553.359453 582.791938 
C 559.579017 582.791938 565.544681 580.320879 569.942577 575.922984 
C 574.340473 571.525088 576.811532 565.559424 576.811532 559.33986 
C 576.811532 553.120296 574.340473 547.154632 569.942577 542.756736 
C 565.544681 538.35884 559.579017 535.887781 553.359453 535.887781 
C 547.139889 535.887781 541.174225 538.35884 536.776329 542.756736 
C 532.378434 547.154632 529.907375 553.120296 529.907375 559.33986 
C 529.907375 565.559424 532.378434 571.525088 536.776329 575.922984 
C 541.174225 580.320879 547.139889 582.791938 553.359453 582.791938 
z
" clip-path="url(#p8a2637945f)" style="fill: #d0d0ff; stroke: #444444; stroke-width: 2"/>
    <path d="M 752.839113 155.739699 
C 759.058677 155.739699 765.024341 153.26864 769.422237 148.870744 
C 773.820133 144.472848 776.291192 138.507184 776.291192 132.28762 
C 776.291192 126.068056 773.820133 120.102392 769.422237 115.704496 
C 765.024341 111.3066 759.058677 108.835541 752.839113 108.835541 
C 746.619549 108.835541 740.653885 111.3066 736.255989 115.704496 
C 731.858093 120.102392 729.387034 126.068056 729.387034 132.28762 
C 729.387034 138.507184 731.858093 144.472848 736.255989 148.870744 
C 740.653885 153.26864 746.619549 155.739699 752.839113 155.739699 
z
" clip-path="url(#p8a2637945f)" style="fill: #d0d0ff; stroke: #444444; stroke-width: 2"/>
   </g>
   <g id="text_1">
    <g clip-path="url(#p8a2637945f)">
     <!-- linear::a::h72cde362aba878d0 -->
     <g style="fill: #111111" transform="translate(910.314446 531.865466) scale(0.1 -0.1)">
      <defs>
       <path id="DejaVuSans-Bold-6c" d="M 538 4863 
L 1656 4863 
L 1656 0 
L 538 0 
L 538 4863 
z
" transform="scale(0.015625)"/>
       <path id="DejaVuSans-Bold-69" d="M 538 3500 
L 1656 3500 
L 1656 0 
L 538 0 
L 538 3500 
z
M 538 4863 
L 1656 4863 
L 1656 3950 
L 538 3950 
L 538 4863 
z
" transform="scale(0.015625)"/>
       <path id="DejaVuSans-Bold-6e" d="M 4056 2131 
L 4056 0 
L 2931 0 
L 2931 347 
L 2931 1631 
Q 2931 2084 2911 2256 
Q 2891 2428 2841 2509 
Q 2775 2619 2662 2680 
Q 2550 2741 2406 2741 
Q 2056 2741 1856 2470 
Q 1656 2200 1656 1722 
L 1656 0 
L 538 0 
L 538 3500 
L 1656 3500 
L 1656 2988 
Q 1909 3294 2193 3439 
Q 2478 3584 2822 3584 
Q 3428 3584 3742 3212 
Q 4056 2841 4056 2131 
z
" transform="scale(0.015625)"/>
       <path id="DejaVuSans-Bold-65" d="M 4031 1759 
L 4031 1441 
L 1416 1441 
Q 1456 1047 1700 850 
Q 1944 653 2381 653 
Q 2734 653 3104 758 
Q 3475 863 3866 1075 
L 3866 213 
Q 3469 63 3072 -14 
Q 2675 -91 2278 -91 
Q 1328 -91 801 392 
Q 275 875 275 1747 
Q 275 2603 792 3093 
Q 1309 3584 2216 3584 
Q 3041 3584 3536 3087 
Q 4031 2591 4031 1759 
z
M 2881 2131 
Q 2881 2450 2695 2645 
Q 2509 2841 2209 2841 
Q 1884 2841 1681 2658 
Q 1478 2475 1428 2131 
L 2881 2131 
z
" transform="scale(0.015625)"/>
       <path id="DejaVuSans-Bold-61" d="M 2106 1575 
Q 1756 1575 1579 1456 
Q 1403 1338 1403 1106 
Q 1403 894 1545 773 
Q 1688 653 1941 653 
Q 2256 653 2472 879 
Q 2688 1106 2688 1447 
L 2688 1575 
L 2106 1575 
z
M 3816 1997 
L 3816 0 
L 2688 0 
L 2688 519 
Q 2463 200 2181 54 
Q 1900 -91 1497 -91 
Q 953 -91 614 226 
Q 275 544 275 1050 
Q 275 1666 698 1953 
Q 1122 2241 2028 2241 
L 2688 2241 
L 2688 2328 
Q 2688 2594 2478 2717 
Q 2269 2841 1825 2841 
Q 1466 2841 1156 2769 
Q 847 2697 581 2553 
L 581 3406 
Q 941 3494 1303 3539 
Q 1666 3584 2028 3584 
Q 2975 3584 3395 3211 
Q 3816 2838 3816 1997 
z
" transform="scale(0.015625)"/>
       <path id="DejaVuSans-Bold-72" d="M 3138 2547 
Q 2991 2616 2845 2648 
Q 2700 2681 2553 2681 
Q 2122 2681 1889 2404 
Q 1656 2128 1656 1613 
L 1656 0 
L 538 0 
L 538 3500 
L 1656 3500 
L 1656 2925 
Q 1872 3269 2151 3426 
Q 2431 3584 2822 3584 
Q 2878 3584 2943 3579 
Q 3009 3575 3134 3559 
L 3138 2547 
z
" transform="scale(0.015625)"/>
       <path id="DejaVuSans-Bold-3a" d="M 716 3500 
L 1844 3500 
L 1844 2291 
L 716 2291 
L 716 3500 
z
M 716 1209 
L 1844 1209 
L 1844 0 
L 716 0 
L 716 1209 
z
" transform="scale(0.015625)"/>
       <path id="DejaVuSans-Bold-68" d="M 4056 2131 
L 4056 0 
L 2931 0 
L 2931 347 
L 2931 1625 
Q 2931 2084 2911 2256 
Q 2891 2428 2841 2509 
Q 2775 2619 2662 2680 
Q 2550 2741 2406 2741 
Q 2056 2741 1856 2470 
Q 1656 2200 1656 1722 
L 1656 0 
L 538 0 
L 538 4863 
L 1656 4863 
L 1656 2988 
Q 1909 3294 2193 3439 
Q 2478 3584 2822 3584 
Q 3428 3584 3742 3212 
Q 4056 2841 4056 2131 
z
" transform="scale(0.015625)"/>
       <path id="DejaVuSans-Bold-37" d="M 428 4666 
L 3944 4666 
L 3944 3988 
L 2125 0 
L 953 0 
L 2675 3781 
L 428 3781 
L 428 4666 
z
" transform="scale(0.015625)"/>
       <path id="DejaVuSans-Bold-32" d="M 1844 884 
L 3897 884 
L 3897 0 
L 506 0 
L 506 884 
L 2209 2388 
Q 2438 2594 2547 2791 
Q 2656 2988 2656 3200 
Q 2656 3528 2436 3728 
Q 2216 3928 1850 3928 
Q 1569 3928 1234 3808 
Q 900 3688 519 3450 
L 519 4475 
Q 925 4609 1322 4679 
Q 1719 4750 2100 4750 
Q 2938 4750 3402 4381 
Q 3866 4013 3866 3353 
Q 3866 2972 3669 2642 
Q 3472 2313 2841 1759 
L 1844 884 
z
" transform="scale(0.015625)"/>
       <path id="DejaVuSans-Bold-63" d="M 3366 3391 
L 3366 2478 
Q 3138 2634 2908 2709 
Q 2678 2784 2431 2784 
Q 1963 2784 1702 2511 
Q 1441 2238 1441 1747 
Q 1441 1256 1702 982 
Q 1963 709 2431 709 
Q 2694 709 2930 787 
Q 3166 866 3366 1019 
L 3366 103 
Q 3103 6 2833 -42 
Q 2563 -91 2291 -91 
Q 1344 -91 809 395 
Q 275 881 275 1747 
Q 275 2613 809 3098 
Q 1344 3584 2291 3584 
Q 2566 3584 2833 3536 
Q 3100 3488 3366 3391 
z
" transform="scale(0.015625)"/>
       <path id="DejaVuSans-Bold-64" d="M 2919 2988 
L 2919 4863 
L 4044 4863 
L 4044 0 
L 2919 0 
L 2919 506 
Q 2688 197 2409 53 
Q 2131 -91 1766 -91 
Q 1119 -91 703 423 
Q 288 938 288 1747 
Q 288 2556 703 3070 
Q 1119 3584 1766 3584 
Q 2128 3584 2408 3439 
Q 2688 3294 2919 2988 
z
M 2181 722 
Q 2541 722 2730 984 
Q 2919 1247 2919 1747 
Q 2919 2247 2730 2509 
Q 2541 2772 2181 2772 
Q 1825 2772 1636 2509 
Q 1447 2247 1447 1747 
Q 1447 1247 1636 984 
Q 1825 722 2181 722 
z
" transform="scale(0.015625)"/>
       <path id="DejaVuSans-Bold-33" d="M 2981 2516 
Q 3453 2394 3698 2092 
Q 3944 1791 3944 1325 
Q 3944 631 3412 270 
Q 2881 -91 1863 -91 
Q 1503 -91 1142 -33 
Q 781 25 428 141 
L 428 1069 
Q 766 900 1098 814 
Q 1431 728 1753 728 
Q 2231 728 2486 893 
Q 2741 1059 2741 1369 
Q 2741 1688 2480 1852 
Q 2219 2016 1709 2016 
L 1228 2016 
L 1228 2791 
L 1734 2791 
Q 2188 2791 2409 2933 
Q 2631 3075 2631 3366 
Q 2631 3634 2415 3781 
Q 2200 3928 1806 3928 
Q 1516 3928 1219 3862 
Q 922 3797 628 3669 
L 628 4550 
Q 984 4650 1334 4700 
Q 1684 4750 2022 4750 
Q 2931 4750 3382 4451 
Q 3834 4153 3834 3553 
Q 3834 3144 3618 2883 
Q 3403 2622 2981 2516 
z
" transform="scale(0.015625)"/>
       <path id="DejaVuSans-Bold-36" d="M 2316 2303 
Q 2000 2303 1842 2098 
Q 1684 1894 1684 1484 
Q 1684 1075 1842 870 
Q 2000 666 2316 666 
Q 2634 666 2792 870 
Q 2950 1075 2950 1484 
Q 2950 1894 2792 2098 
Q 2634 2303 2316 2303 
z
M 3803 4544 
L 3803 3681 
Q 3506 3822 3243 3889 
Q 2981 3956 2731 3956 
Q 2194 3956 1894 3657 
Q 1594 3359 1544 2772 
Q 1750 2925 1990 3001 
Q 2231 3078 2516 3078 
Q 3231 3078 3670 2659 
Q 4109 2241 4109 1563 
Q 4109 813 3618 361 
Q 3128 -91 2303 -91 
Q 1394 -91 895 523 
Q 397 1138 397 2266 
Q 397 3422 980 4083 
Q 1563 4744 2578 4744 
Q 2900 4744 3203 4694 
Q 3506 4644 3803 4544 
z
" transform="scale(0.015625)"/>
       <path id="DejaVuSans-Bold-62" d="M 2400 722 
Q 2759 722 2948 984 
Q 3138 1247 3138 1747 
Q 3138 2247 2948 2509 
Q 2759 2772 2400 2772 
Q 2041 2772 1848 2508 
Q 1656 2244 1656 1747 
Q 1656 1250 1848 986 
Q 2041 722 2400 722 
z
M 1656 2988 
Q 1888 3294 2169 3439 
Q 2450 3584 2816 3584 
Q 3463 3584 3878 3070 
Q 4294 2556 4294 1747 
Q 4294 938 3878 423 
Q 3463 -91 2816 -91 
Q 2450 -91 2169 54 
Q 1888 200 1656 506 
L 1656 0 
L 538 0 
L 538 4863 
L 1656 4863 
L 1656 2988 
z
" transform="scale(0.015625)"/>
       <path id="DejaVuSans-Bold-38" d="M 2228 2088 
Q 1891 2088 1709 1903 
Q 1528 1719 1528 1375 
Q 1528 1031 1709 848 
Q 1891 666 2228 666 
Q 2563 666 2741 848 
Q 2919 1031 2919 1375 
Q 2919 1722 2741 1905 
Q 2563 2088 2228 2088 
z
M 1350 2484 
Q 925 2613 709 2878 
Q 494 3144 494 3541 
Q 494 4131 934 4440 
Q 1375 4750 2228 4750 
Q 3075 4750 3515 4442 
Q 3956 4134 3956 3541 
Q 3956 3144 3739 2878 
Q 3522 2613 3097 2484 
Q 3572 2353 3814 2058 
Q 4056 1763 4056 1313 
Q 4056 619 3595 264 
Q 3134 -91 2228 -91 
Q 1319 -91 855 264 
Q 391 619 391 1313 
Q 391 1763 633 2058 
Q 875 2353 1350 2484 
z
M 1631 3419 
Q 1631 3141 1786 2991 
Q 1941 2841 2228 2841 
Q 2509 2841 2662 2991 
Q 2816 3141 2816 3419 
Q 2816 3697 2662 3845 
Q 2509 3994 2228 3994 
Q 1941 3994 1786 3844 
Q 1631 3694 1631 3419 
z
" transform="scale(0.015625)"/>
       <path id="DejaVuSans-Bold-30" d="M 2944 2338 
Q 2944 3213 2780 3570 
Q 2616 3928 2228 3928 
Q 1841 3928 1675 3570 
Q 1509 3213 1509 2338 
Q 1509 1453 1675 1090 
Q 1841 728 2228 728 
Q 2613 728 2778 1090 
Q 2944 1453 2944 2338 
z
M 4147 2328 
Q 4147 1169 3647 539 
Q 3147 -91 2228 -91 
Q 1306 -91 806 539 
Q 306 1169 306 2328 
Q 306 3491 806 4120 
Q 1306 4750 2228 4750 
Q 3147 4750 3647 4120 
Q 4147 3491 4147 2328 
z
" transform="scale(0.015625)"/>
      </defs>
      <use xlink:href="#DejaVuSans-Bold-6c"/>
      <use xlink:href="#DejaVuSans-Bold-69" transform="translate(34.277344 0)"/>
      <use xlink:href="#DejaVuSans-Bold-6e" transform="translate(68.554688 0)"/>
      <use xlink:href="#DejaVuSans-Bold-65" transform="translate(139.746094 0)"/>
      <use xlink:href="#DejaVuSans-Bold-61" transform="translate(207.568359 0)"/>
      <use xlink:href="#DejaVuSans-Bold-72" transform="translate(275.048828 0)"/>
      <use xlink:href="#DejaVuSans-Bold-3a" transform="translate(324.365234 0)"/>
      <use xlink:href="#DejaVuSans-Bold-3a" transform="translate(364.355469 0)"/>
      <use xlink:href="#DejaVuSans-Bold-61" transform="translate(404.345703 0)"/>
      <use xlink:href="#DejaVuSans-Bold-3a" transform="translate(471.826172 0)"/>
      <use xlink:href="#DejaVuSans-Bold-3a" transform="translate(511.816406 0)"/>
      <use xlink:href="#DejaVuSans-Bold-68" transform="translate(551.806641 0)"/>
      <use xlink:href="#DejaVuSans-Bold-37" transform="translate(622.998047 0)"/>
      <use xlink:href="#DejaVuSans-Bold-32" transform="translate(692.578125 0)"/>
      <use xlink:href="#DejaVuSans-Bold-63" transform="translate(762.158203 0)"/>
      <use xlink:href="#DejaVuSans-Bold-64" transform="translate(821.435547 0)"/>
      <use xlink:href="#DejaVuSans-Bold-65" transform="translate(893.017578 0)"/>
      <use xlink:href="#DejaVuSans-Bold-33" transform="translate(960.839844 0)"/>
      <use xlink:href="#DejaVuSans-Bold-36" transform="translate(1030.419922 0)"/>
      <use xlink:href="#DejaVuSans-Bold-32" transform="translate(1100 0)"/>
      <use xlink:href="#DejaVuSans-Bold-61" transform="translate(1169.580078 0)"/>
      <use xlink:href="#DejaVuSans-Bold-62" transform="translate(1237.060547 0)"/>
      <use xlink:href="#DejaVuSans-Bold-61" transform="translate(1308.642578 0)"/>
      <use xlink:href="#DejaVuSans-Bold-38" transform="translate(1376.123047 0)"/>
      <use xlink:href="#DejaVuSans-Bold-37" transform="translate(1445.703125 0)"/>
      <use xlink:href="#DejaVuSans-Bold-38" transform="translate(1515.283203 0)"/>
      <use xlink:href="#DejaVuSans-Bold-64" transform="translate(1584.863281 0)"/>
      <use xlink:href="#DejaVuSans-Bold-30" transform="translate(1656.445312 0)"/>
     </g>
    </g>
   </g>
   <g id="text_2">
    <g clip-path="url(#p8a2637945f)">
     <!-- linear::b::h2bdc5f06f7d73ab9 -->
     <g style="fill: #111111" transform="translate(1088.283665 937.545222) scale(0.1 -0.1)">
      <defs>
       <path id="DejaVuSans-Bold-35" d="M 678 4666 
L 3669 4666 
L 3669 3781 
L 1638 3781 
L 1638 3059 
Q 1775 3097 1914 3117 
Q 2053 3138 2203 3138 
Q 3056 3138 3531 2711 
Q 4006 2284 4006 1522 
Q 4006 766 3489 337 
Q 2972 -91 2053 -91 
Q 1656 -91 1267 -14 
Q 878 63 494 219 
L 494 1166 
Q 875 947 1217 837 
Q 1559 728 1863 728 
Q 2300 728 2551 942 
Q 2803 1156 2803 1522 
Q 2803 1891 2551 2103 
Q 2300 2316 1863 2316 
Q 1603 2316 1309 2248 
Q 1016 2181 678 2041 
L 678 4666 
z
" transform="scale(0.015625)"/>
       <path id="DejaVuSans-Bold-66" d="M 2841 4863 
L 2841 4128 
L 2222 4128 
Q 1984 4128 1890 4042 
Q 1797 3956 1797 3744 
L 1797 3500 
L 2753 3500 
L 2753 2700 
L 1797 2700 
L 1797 0 
L 678 0 
L 678 2700 
L 122 2700 
L 122 3500 
L 678 3500 
L 678 3744 
Q 678 4316 997 4589 
Q 1316 4863 1984 4863 
L 2841 4863 
z
" transform="scale(0.015625)"/>
       <path id="DejaVuSans-Bold-39" d="M 641 103 
L 641 966 
Q 928 831 1190 764 
Q 1453 697 1709 697 
Q 2247 697 2547 995 
Q 2847 1294 2900 1881 
Q 2688 1725 2447 1647 
Q 2206 1569 1925 1569 
Q 1209 1569 770 1986 
Q 331 2403 331 3084 
Q 331 3838 820 4291 
Q 1309 4744 2131 4744 
Q 3044 4744 3544 4128 
Q 4044 3513 4044 2388 
Q 4044 1231 3459 570 
Q 2875 -91 1856 -91 
Q 1528 -91 1228 -42 
Q 928 6 641 103 
z
M 2125 2350 
Q 2441 2350 2600 2554 
Q 2759 2759 2759 3169 
Q 2759 3575 2600 3781 
Q 2441 3988 2125 3988 
Q 1809 3988 1650 3781 
Q 1491 3575 1491 3169 
Q 1491 2759 1650 2554 
Q 1809 2350 2125 2350 
z
" transform="scale(0.015625)"/>
      </defs>
      <use xlink:href="#DejaVuSans-Bold-6c"/>
      <use xlink:href="#DejaVuSans-Bold-69" transform="translate(34.277344 0)"/>
      <use xlink:href="#DejaVuSans-Bold-6e" transform="translate(68.554688 0)"/>
      <use xlink:href="#DejaVuSans-Bold-65" transform="translate(139.746094 0)"/>
      <use xlink:href="#DejaVuSans-Bold-61" transform="translate(207.568359 0)"/>
      <use xlink:href="#DejaVuSans-Bold-72" transform="translate(275.048828 0)"/>
      <use xlink:href="#DejaVuSans-Bold-3a" transform="translate(324.365234 0)"/>
      <use xlink:href="#DejaVuSans-Bold-3a" transform="translate(364.355469 0)"/>
      <use xlink:href="#DejaVuSans-Bold-62" transform="translate(404.345703 0)"/>
      <use xlink:href="#DejaVuSans-Bold-3a" transform="translate(475.927734 0)"/>
      <use xlink:href="#DejaVuSans-Bold-3a" transform="translate(515.917969 0)"/>
      <use xlink:href="#DejaVuSans-Bold-68" transform="translate(555.908203 0)"/>
      <use xlink:href="#DejaVuSans-Bold-32" transform="translate(627.099609 0)"/>
      <use xlink:href="#DejaVuSans-Bold-62" transform="translate(696.679688 0)"/>
      <use xlink:href="#DejaVuSans-Bold-64" transform="translate(768.261719 0)"/>
      <use xlink:href="#DejaVuSans-Bold-63" transform="translate(839.84375 0)"/>
      <use xlink:href="#DejaVuSans-Bold-35" transform="translate(899.121094 0)"/>
      <use xlink:href="#DejaVuSans-Bold-66" transform="translate(968.701172 0)"/>
      <use xlink:href="#DejaVuSans-Bold-30" transform="translate(1012.207031 0)"/>
      <use xlink:href="#DejaVuSans-Bold-36" transform="translate(1081.787109 0)"/>
      <use xlink:href="#DejaVuSans-Bold-66" transform="translate(1151.367188 0)"/>
      <use xlink:href="#DejaVuSans-Bold-37" transform="translate(1194.873047 0)"/>
      <use xlink:href="#DejaVuSans-Bold-64" transform="translate(1264.453125 0)"/>
      <use xlink:href="#DejaVuSans-Bold-37" transform="translate(1336.035156 0)"/>
      <use xlink:href="#DejaVuSans-Bold-33" transform="translate(1405.615234 0)"/>
      <use xlink:href="#DejaVuSans-Bold-61" transform="translate(1475.195312 0)"/>
      <use xlink:href="#DejaVuSans-Bold-62" transform="translate(1542.675781 0)"/>
      <use xlink:href="#DejaVuSans-Bold-39" transform="translate(1614.257812 0)"/>
     </g>
    </g>
   </g>
   <g id="text_3">
    <g clip-path="url(#p8a2637945f)">
     <!-- linear::c::hee9c2ba9567242d2 -->
     <g style="fill: #111111" transform="translate(748.457344 982.795755) scale(0.1 -0.1)">
      <defs>
       <path id="DejaVuSans-Bold-34" d="M 2356 3675 
L 1038 1722 
L 2356 1722 
L 2356 3675 
z
M 2156 4666 
L 3494 4666 
L 3494 1722 
L 4159 1722 
L 4159 850 
L 3494 850 
L 3494 0 
L 2356 0 
L 2356 850 
L 288 850 
L 288 1881 
L 2156 4666 
z
" transform="scale(0.015625)"/>
      </defs>
      <use xlink:href="#DejaVuSans-Bold-6c"/>
      <use xlink:href="#DejaVuSans-Bold-69" transform="translate(34.277344 0)"/>
      <use xlink:href="#DejaVuSans-Bold-6e" transform="translate(68.554688 0)"/>
      <use xlink:href="#DejaVuSans-Bold-65" transform="translate(139.746094 0)"/>
      <use xlink:href="#DejaVuSans-Bold-61" transform="translate(207.568359 0)"/>
      <use xlink:href="#DejaVuSans-Bold-72" transform="translate(275.048828 0)"/>
      <use xlink:href="#DejaVuSans-Bold-3a" transform="translate(324.365234 0)"/>
      <use xlink:href="#DejaVuSans-Bold-3a" transform="translate(364.355469 0)"/>
      <use xlink:href="#DejaVuSans-Bold-63" transform="translate(404.345703 0)"/>
      <use xlink:href="#DejaVuSans-Bold-3a" transform="translate(463.623047 0)"/>
      <use xlink:href="#DejaVuSans-Bold-3a" transform="translate(503.613281 0)"/>
      <use xlink:href="#DejaVuSans-Bold-68" transform="translate(543.603516 0)"/>
      <use xlink:href="#DejaVuSans-Bold-65" transform="translate(614.794922 0)"/>
      <use xlink:href="#DejaVuSans-Bold-65" transform="translate(682.617188 0)"/>
      <use xlink:href="#DejaVuSans-Bold-39" transform="translate(750.439453 0)"/>
      <use xlink:href="#DejaVuSans-Bold-63" transform="translate(820.019531 0)"/>
      <use xlink:href="#DejaVuSans-Bold-32" transform="translate(879.296875 0)"/>
      <use xlink:href="#DejaVuSans-Bold-62" transform="translate(948.876953 0)"/>
      <use xlink:href="#DejaVuSans-Bold-61" transform="translate(1020.458984 0)"/>
      <use xlink:href="#DejaVuSans-Bold-39" transform="translate(1087.939453 0)"/>
      <use xlink:href="#DejaVuSans-Bold-35" transform="translate(1157.519531 0)"/>
      <use xlink:href="#DejaVuSans-Bold-36" transform="translate(1227.099609 0)"/>
      <use xlink:href="#DejaVuSans-Bold-37" transform="translate(1296.679688 0)"/>
      <use xlink:href="#DejaVuSans-Bold-32" transform="translate(1366.259766 0)"/>
      <use xlink:href="#DejaVuSans-Bold-34" transform="translate(1435.839844 0)"/>
      <use xlink:href="#DejaVuSans-Bold-32" transform="translate(1505.419922 0)"/>
      <use xlink:href="#DejaVuSans-Bold-64" transform="translate(1575 0)"/>
      <use xlink:href="#DejaVuSans-Bold-32" transform="translate(1646.582031 0)"/>
     </g>
    </g>
   </g>
   <g id="text_4">
    <g clip-path="url(#p8a2637945f)">
     <!-- linear::d::h4b2e9dbc46bae927 -->
     <g style="fill: #111111" transform="translate(31.305398 606.215554) scale(0.1 -0.1)">
      <use xlink:href="#DejaVuSans-Bold-6c"/>
      <use xlink:href="#DejaVuSans-Bold-69" transform="translate(34.277344 0)"/>
      <use xlink:href="#DejaVuSans-Bold-6e" transform="translate(68.554688 0)"/>
      <use xlink:href="#DejaVuSans-Bold-65" transform="translate(139.746094 0)"/>
      <use xlink:href="#DejaVuSans-Bold-61" transform="translate(207.568359 0)"/>
      <use xlink:href="#DejaVuSans-Bold-72" transform="translate(275.048828 0)"/>
      <use xlink:href="#DejaVuSans-Bold-3a" transform="translate(324.365234 0)"/>
      <use xlink:href="#DejaVuSans-Bold-3a" transform="translate(364.355469 0)"/>
      <use xlink:href="#DejaVuSans-Bold-64" transform="translate(404.345703 0)"/>
      <use xlink:href="#DejaVuSans-Bold-3a" transform="translate(475.927734 0)"/>
      <use xlink:href="#DejaVuSans-Bold-3a" transform="translate(515.917969 0)"/>
      <use xlink:href="#DejaVuSans-Bold-68" transform="translate(555.908203 0)"/>
      <use xlink:href="#DejaVuSans-Bold-34" transform="translate(627.099609 0)"/>
      <use xlink:href="#DejaVuSans-Bold-62" transform="translate(696.679688 0)"/>
      <use xlink:href="#DejaVuSans-Bold-32" transform="translate(768.261719 0)"/>
      <use xlink:href="#DejaVuSans-Bold-65" transform="translate(837.841797 0)"/>
      <use xlink:href="#DejaVuSans-Bold-39" transform="translate(905.664062 0)"/>
      <use xlink:href="#DejaVuSans-Bold-64" transform="translate(975.244141 0)"/>
      <use xlink:href="#DejaVuSans-Bold-62" transform="translate(1046.826172 0)"/>
      <use xlink:href="#DejaVuSans-Bold-63" transform="translate(1118.408203 0)"/>
      <use xlink:href="#DejaVuSans-Bold-34" transform="translate(1177.685547 0)"/>
      <use xlink:href="#DejaVuSans-Bold-36" transform="translate(1247.265625 0)"/>
      <use xlink:href="#DejaVuSans-Bold-62" transform="translate(1316.845703 0)"/>
      <use xlink:href="#DejaVuSans-Bold-61" transform="translate(1388.427734 0)"/>
      <use xlink:href="#DejaVuSans-Bold-65" transform="translate(1455.908203 0)"/>
      <use xlink:href="#DejaVuSans-Bold-39" transform="translate(1523.730469 0)"/>
      <use xlink:href="#DejaVuSans-Bold-32" transform="translate(1593.310547 0)"/>
      <use xlink:href="#DejaVuSans-Bold-37" transform="translate(1662.890625 0)"/>
     </g>
    </g>
   </g>
   <g id="text_5">
    <g clip-path="url(#p8a2637945f)">
     <!-- linear::main::h3f35248ce82c2e00 -->
     <g style="fill: #111111" transform="translate(458.572735 562.099235) scale(0.1 -0.1)">
      <defs>
       <path id="DejaVuSans-Bold-6d" d="M 3781 2919 
Q 3994 3244 4286 3414 
Q 4578 3584 4928 3584 
Q 5531 3584 5847 3212 
Q 6163 2841 6163 2131 
L 6163 0 
L 5038 0 
L 5038 1825 
Q 5041 1866 5042 1909 
Q 5044 1953 5044 2034 
Q 5044 2406 4934 2573 
Q 4825 2741 4581 2741 
Q 4263 2741 4089 2478 
Q 3916 2216 3909 1719 
L 3909 0 
L 2784 0 
L 2784 1825 
Q 2784 2406 2684 2573 
Q 2584 2741 2328 2741 
Q 2006 2741 1831 2477 
Q 1656 2213 1656 1722 
L 1656 0 
L 531 0 
L 531 3500 
L 1656 3500 
L 1656 2988 
Q 1863 3284 2130 3434 
Q 2397 3584 2719 3584 
Q 3081 3584 3359 3409 
Q 3638 3234 3781 2919 
z
" transform="scale(0.015625)"/>
      </defs>
      <use xlink:href="#DejaVuSans-Bold-6c"/>
      <use xlink:href="#DejaVuSans-Bold-69" transform="translate(34.277344 0)"/>
      <use xlink:href="#DejaVuSans-Bold-6e" transform="translate(68.554688 0)"/>
      <use xlink:href="#DejaVuSans-Bold-65" transform="translate(139.746094 0)"/>
      <use xlink:href="#DejaVuSans-Bold-61" transform="translate(207.568359 0)"/>
      <use xlink:href="#DejaVuSans-Bold-72" transform="translate(275.048828 0)"/>
      <use xlink:href="#DejaVuSans-Bold-3a" transform="translate(324.365234 0)"/>
      <use xlink:href="#DejaVuSans-Bold-3a" transform="translate(364.355469 0)"/>
      <use xlink:href="#DejaVuSans-Bold-6d" transform="translate(404.345703 0)"/>
      <use xlink:href="#DejaVuSans-Bold-61" transform="translate(508.544922 0)"/>
      <use xlink:href="#DejaVuSans-Bold-69" transform="translate(576.025391 0)"/>
      <use xlink:href="#DejaVuSans-Bold-6e" transform="translate(610.302734 0)"/>
      <use xlink:href="#DejaVuSans-Bold-3a" transform="translate(681.494141 0)"/>
      <use xlink:href="#DejaVuSans-Bold-3a" transform="translate(721.484375 0)"/>
      <use xlink:href="#DejaVuSans-Bold-68" transform="translate(761.474609 0)"/>
      <use xlink:href="#DejaVuSans-Bold-33" transform="translate(832.666016 0)"/>
      <use xlink:href="#DejaVuSans-Bold-66" transform="translate(902.246094 0)"/>
      <use xlink:href="#DejaVuSans-Bold-33" transform="translate(945.751953 0)"/>
      <use xlink:href="#DejaVuSans-Bold-35" transform="translate(1015.332031 0)"/>
      <use xlink:href="#DejaVuSans-Bold-32" transform="translate(1084.912109 0)"/>
      <use xlink:href="#DejaVuSans-Bold-34" transform="translate(1154.492188 0)"/>
      <use xlink:href="#DejaVuSans-Bold-38" transform="translate(1224.072266 0)"/>
      <use xlink:href="#DejaVuSans-Bold-63" transform="translate(1293.652344 0)"/>
      <use xlink:href="#DejaVuSans-Bold-65" transform="translate(1352.929688 0)"/>
      <use xlink:href="#DejaVuSans-Bold-38" transform="translate(1420.751953 0)"/>
      <use xlink:href="#DejaVuSans-Bold-32" transform="translate(1490.332031 0)"/>
      <use xlink:href="#DejaVuSans-Bold-63" transform="translate(1559.912109 0)"/>
      <use xlink:href="#DejaVuSans-Bold-32" transform="translate(1619.189453 0)"/>
      <use xlink:href="#DejaVuSans-Bold-65" transform="translate(1688.769531 0)"/>
      <use xlink:href="#DejaVuSans-Bold-30" transform="translate(1756.591797 0)"/>
      <use xlink:href="#DejaVuSans-Bold-30" transform="translate(1826.171875 0)"/>
     </g>
    </g>
   </g>
   <g id="text_6">
    <g clip-path="url(#p8a2637945f)">
     <!-- llvm.memcpy.p0.p0.i64 -->
     <g style="fill: #111111" transform="translate(687.399269 135.007932) scale(0.1 -0.1)">
      <defs>
       <path id="DejaVuSans-Bold-76" d="M 97 3500 
L 1216 3500 
L 2088 1081 
L 2956 3500 
L 4078 3500 
L 2700 0 
L 1472 0 
L 97 3500 
z
" transform="scale(0.015625)"/>
       <path id="DejaVuSans-Bold-2e" d="M 653 1209 
L 1778 1209 
L 1778 0 
L 653 0 
L 653 1209 
z
" transform="scale(0.015625)"/>
       <path id="DejaVuSans-Bold-70" d="M 1656 506 
L 1656 -1331 
L 538 -1331 
L 538 3500 
L 1656 3500 
L 1656 2988 
Q 1888 3294 2169 3439 
Q 2450 3584 2816 3584 
Q 3463 3584 3878 3070 
Q 4294 2556 4294 1747 
Q 4294 938 3878 423 
Q 3463 -91 2816 -91 
Q 2450 -91 2169 54 
Q 1888 200 1656 506 
z
M 2400 2772 
Q 2041 2772 1848 2508 
Q 1656 2244 1656 1747 
Q 1656 1250 1848 986 
Q 2041 722 2400 722 
Q 2759 722 2948 984 
Q 3138 1247 3138 1747 
Q 3138 2247 2948 2509 
Q 2759 2772 2400 2772 
z
" transform="scale(0.015625)"/>
       <path id="DejaVuSans-Bold-79" d="M 78 3500 
L 1197 3500 
L 2138 1125 
L 2938 3500 
L 4056 3500 
L 2584 -331 
Q 2363 -916 2067 -1148 
Q 1772 -1381 1288 -1381 
L 641 -1381 
L 641 -647 
L 991 -647 
Q 1275 -647 1404 -556 
Q 1534 -466 1606 -231 
L 1638 -134 
L 78 3500 
z
" transform="scale(0.015625)"/>
      </defs>
      <use xlink:href="#DejaVuSans-Bold-6c"/>
      <use xlink:href="#DejaVuSans-Bold-6c" transform="translate(34.277344 0)"/>
      <use xlink:href="#DejaVuSans-Bold-76" transform="translate(68.554688 0)"/>
      <use xlink:href="#DejaVuSans-Bold-6d" transform="translate(133.740234 0)"/>
      <use xlink:href="#DejaVuSans-Bold-2e" transform="translate(237.939453 0)"/>
      <use xlink:href="#DejaVuSans-Bold-6d" transform="translate(275.927734 0)"/>
      <use xlink:href="#DejaVuSans-Bold-65" transform="translate(380.126953 0)"/>
      <use xlink:href="#DejaVuSans-Bold-6d" transform="translate(447.949219 0)"/>
      <use xlink:href="#DejaVuSans-Bold-63" transform="translate(552.148438 0)"/>
      <use xlink:href="#DejaVuSans-Bold-70" transform="translate(611.425781 0)"/>
      <use xlink:href="#DejaVuSans-Bold-79" transform="translate(683.007812 0)"/>
      <use xlink:href="#DejaVuSans-Bold-2e" transform="translate(739.068359 0)"/>
      <use xlink:href="#DejaVuSans-Bold-70" transform="translate(777.056641 0)"/>
      <use xlink:href="#DejaVuSans-Bold-30" transform="translate(848.638672 0)"/>
      <use xlink:href="#DejaVuSans-Bold-2e" transform="translate(918.21875 0)"/>
      <use xlink:href="#DejaVuSans-Bold-70" transform="translate(956.207031 0)"/>
      <use xlink:href="#DejaVuSans-Bold-30" transform="translate(1027.789062 0)"/>
      <use xlink:href="#DejaVuSans-Bold-2e" transform="translate(1097.369141 0)"/>
      <use xlink:href="#DejaVuSans-Bold-69" transform="translate(1135.357422 0)"/>
      <use xlink:href="#DejaVuSans-Bold-36" transform="translate(1169.634766 0)"/>
      <use xlink:href="#DejaVuSans-Bold-34" transform="translate(1239.214844 0)"/>
     </g>
    </g>
   </g>
   <g id="text_7">
    <!-- Filtered LLVM IR Call Graph (Cycles Highlighted) -->
    <g transform="translate(454.115 19.3575) scale(0.16 -0.16)">
     <defs>
      <path id="DejaVuSans-46" d="M 628 4666 
L 3309 4666 
L 3309 4134 
L 1259 4134 
L 1259 2759 
L 3109 2759 
L 3109 2228 
L 1259 2228 
L 1259 0 
L 628 0 
L 628 4666 
z
" transform="scale(0.015625)"/>
      <path id="DejaVuSans-69" d="M 603 3500 
L 1178 3500 
L 1178 0 
L 603 0 
L 603 3500 
z
M 603 4863 
L 1178 4863 
L 1178 4134 
L 603 4134 
L 603 4863 
z
" transform="scale(0.015625)"/>
      <path id="DejaVuSans-6c" d="M 603 4863 
L 1178 4863 
L 1178 0 
L 603 0 
L 603 4863 
z
" transform="scale(0.015625)"/>
      <path id="DejaVuSans-74" d="M 1172 4494 
L 1172 3500 
L 2356 3500 
L 2356 3053 
L 1172 3053 
L 1172 1153 
Q 1172 725 1289 603 
Q 1406 481 1766 481 
L 2356 481 
L 2356 0 
L 1766 0 
Q 1100 0 847 248 
Q 594 497 594 1153 
L 594 3053 
L 172 3053 
L 172 3500 
L 594 3500 
L 594 4494 
L 1172 4494 
z
" transform="scale(0.015625)"/>
      <path id="DejaVuSans-65" d="M 3597 1894 
L 3597 1613 
L 953 1613 
Q 991 1019 1311 708 
Q 1631 397 2203 397 
Q 2534 397 2845 478 
Q 3156 559 3463 722 
L 3463 178 
Q 3153 47 2828 -22 
Q 2503 -91 2169 -91 
Q 1331 -91 842 396 
Q 353 884 353 1716 
Q 353 2575 817 3079 
Q 1281 3584 2069 3584 
Q 2775 3584 3186 3129 
Q 3597 2675 3597 1894 
z
M 3022 2063 
Q 3016 2534 2758 2815 
Q 2500 3097 2075 3097 
Q 1594 3097 1305 2825 
Q 1016 2553 972 2059 
L 3022 2063 
z
" transform="scale(0.015625)"/>
      <path id="DejaVuSans-72" d="M 2631 2963 
Q 2534 3019 2420 3045 
Q 2306 3072 2169 3072 
Q 1681 3072 1420 2755 
Q 1159 2438 1159 1844 
L 1159 0 
L 581 0 
L 581 3500 
L 1159 3500 
L 1159 2956 
Q 1341 3275 1631 3429 
Q 1922 3584 2338 3584 
Q 2397 3584 2469 3576 
Q 2541 3569 2628 3553 
L 2631 2963 
z
" transform="scale(0.015625)"/>
      <path id="DejaVuSans-64" d="M 2906 2969 
L 2906 4863 
L 3481 4863 
L 3481 0 
L 2906 0 
L 2906 525 
Q 2725 213 2448 61 
Q 2172 -91 1784 -91 
Q 1150 -91 751 415 
Q 353 922 353 1747 
Q 353 2572 751 3078 
Q 1150 3584 1784 3584 
Q 2172 3584 2448 3432 
Q 2725 3281 2906 2969 
z
M 947 1747 
Q 947 1113 1208 752 
Q 1469 391 1925 391 
Q 2381 391 2643 752 
Q 2906 1113 2906 1747 
Q 2906 2381 2643 2742 
Q 2381 3103 1925 3103 
Q 1469 3103 1208 2742 
Q 947 2381 947 1747 
z
" transform="scale(0.015625)"/>
      <path id="DejaVuSans-20" transform="scale(0.015625)"/>
      <path id="DejaVuSans-4c" d="M 628 4666 
L 1259 4666 
L 1259 531 
L 3531 531 
L 3531 0 
L 628 0 
L 628 4666 
z
" transform="scale(0.015625)"/>
      <path id="DejaVuSans-56" d="M 1831 0 
L 50 4666 
L 709 4666 
L 2188 738 
L 3669 4666 
L 4325 4666 
L 2547 0 
L 1831 0 
z
" transform="scale(0.015625)"/>
      <path id="DejaVuSans-4d" d="M 628 4666 
L 1569 4666 
L 2759 1491 
L 3956 4666 
L 4897 4666 
L 4897 0 
L 4281 0 
L 4281 4097 
L 3078 897 
L 2444 897 
L 1241 4097 
L 1241 0 
L 628 0 
L 628 4666 
z
" transform="scale(0.015625)"/>
      <path id="DejaVuSans-49" d="M 628 4666 
L 1259 4666 
L 1259 0 
L 628 0 
L 628 4666 
z
" transform="scale(0.015625)"/>
      <path id="DejaVuSans-52" d="M 2841 2188 
Q 3044 2119 3236 1894 
Q 3428 1669 3622 1275 
L 4263 0 
L 3584 0 
L 2988 1197 
Q 2756 1666 2539 1819 
Q 2322 1972 1947 1972 
L 1259 1972 
L 1259 0 
L 628 0 
L 628 4666 
L 2053 4666 
Q 2853 4666 3247 4331 
Q 3641 3997 3641 3322 
Q 3641 2881 3436 2590 
Q 3231 2300 2841 2188 
z
M 1259 4147 
L 1259 2491 
L 2053 2491 
Q 2509 2491 2742 2702 
Q 2975 2913 2975 3322 
Q 2975 3731 2742 3939 
Q 2509 4147 2053 4147 
L 1259 4147 
z
" transform="scale(0.015625)"/>
      <path id="DejaVuSans-43" d="M 4122 4306 
L 4122 3641 
Q 3803 3938 3442 4084 
Q 3081 4231 2675 4231 
Q 1875 4231 1450 3742 
Q 1025 3253 1025 2328 
Q 1025 1406 1450 917 
Q 1875 428 2675 428 
Q 3081 428 3442 575 
Q 3803 722 4122 1019 
L 4122 359 
Q 3791 134 3420 21 
Q 3050 -91 2638 -91 
Q 1578 -91 968 557 
Q 359 1206 359 2328 
Q 359 3453 968 4101 
Q 1578 4750 2638 4750 
Q 3056 4750 3426 4639 
Q 3797 4528 4122 4306 
z
" transform="scale(0.015625)"/>
      <path id="DejaVuSans-61" d="M 2194 1759 
Q 1497 1759 1228 1600 
Q 959 1441 959 1056 
Q 959 750 1161 570 
Q 1363 391 1709 391 
Q 2188 391 2477 730 
Q 2766 1069 2766 1631 
L 2766 1759 
L 2194 1759 
z
M 3341 1997 
L 3341 0 
L 2766 0 
L 2766 531 
Q 2569 213 2275 61 
Q 1981 -91 1556 -91 
Q 1019 -91 701 211 
Q 384 513 384 1019 
Q 384 1609 779 1909 
Q 1175 2209 1959 2209 
L 2766 2209 
L 2766 2266 
Q 2766 2663 2505 2880 
Q 2244 3097 1772 3097 
Q 1472 3097 1187 3025 
Q 903 2953 641 2809 
L 641 3341 
Q 956 3463 1253 3523 
Q 1550 3584 1831 3584 
Q 2591 3584 2966 3190 
Q 3341 2797 3341 1997 
z
" transform="scale(0.015625)"/>
      <path id="DejaVuSans-47" d="M 3809 666 
L 3809 1919 
L 2778 1919 
L 2778 2438 
L 4434 2438 
L 4434 434 
Q 4069 175 3628 42 
Q 3188 -91 2688 -91 
Q 1594 -91 976 548 
Q 359 1188 359 2328 
Q 359 3472 976 4111 
Q 1594 4750 2688 4750 
Q 3144 4750 3555 4637 
Q 3966 4525 4313 4306 
L 4313 3634 
Q 3963 3931 3569 4081 
Q 3175 4231 2741 4231 
Q 1884 4231 1454 3753 
Q 1025 3275 1025 2328 
Q 1025 1384 1454 906 
Q 1884 428 2741 428 
Q 3075 428 3337 486 
Q 3600 544 3809 666 
z
" transform="scale(0.015625)"/>
      <path id="DejaVuSans-70" d="M 1159 525 
L 1159 -1331 
L 581 -1331 
L 581 3500 
L 1159 3500 
L 1159 2969 
Q 1341 3281 1617 3432 
Q 1894 3584 2278 3584 
Q 2916 3584 3314 3078 
Q 3713 2572 3713 1747 
Q 3713 922 3314 415 
Q 2916 -91 2278 -91 
Q 1894 -91 1617 61 
Q 1341 213 1159 525 
z
M 3116 1747 
Q 3116 2381 2855 2742 
Q 2594 3103 2138 3103 
Q 1681 3103 1420 2742 
Q 1159 2381 1159 1747 
Q 1159 1113 1420 752 
Q 1681 391 2138 391 
Q 2594 391 2855 752 
Q 3116 1113 3116 1747 
z
" transform="scale(0.015625)"/>
      <path id="DejaVuSans-68" d="M 3513 2113 
L 3513 0 
L 2938 0 
L 2938 2094 
Q 2938 2591 2744 2837 
Q 2550 3084 2163 3084 
Q 1697 3084 1428 2787 
Q 1159 2491 1159 1978 
L 1159 0 
L 581 0 
L 581 4863 
L 1159 4863 
L 1159 2956 
Q 1366 3272 1645 3428 
Q 1925 3584 2291 3584 
Q 2894 3584 3203 3211 
Q 3513 2838 3513 2113 
z
" transform="scale(0.015625)"/>
      <path id="DejaVuSans-28" d="M 1984 4856 
Q 1566 4138 1362 3434 
Q 1159 2731 1159 2009 
Q 1159 1288 1364 580 
Q 1569 -128 1984 -844 
L 1484 -844 
Q 1016 -109 783 600 
Q 550 1309 550 2009 
Q 550 2706 781 3412 
Q 1013 4119 1484 4856 
L 1984 4856 
z
" transform="scale(0.015625)"/>
      <path id="DejaVuSans-79" d="M 2059 -325 
Q 1816 -950 1584 -1140 
Q 1353 -1331 966 -1331 
L 506 -1331 
L 506 -850 
L 844 -850 
Q 1081 -850 1212 -737 
Q 1344 -625 1503 -206 
L 1606 56 
L 191 3500 
L 800 3500 
L 1894 763 
L 2988 3500 
L 3597 3500 
L 2059 -325 
z
" transform="scale(0.015625)"/>
      <path id="DejaVuSans-63" d="M 3122 3366 
L 3122 2828 
Q 2878 2963 2633 3030 
Q 2388 3097 2138 3097 
Q 1578 3097 1268 2742 
Q 959 2388 959 1747 
Q 959 1106 1268 751 
Q 1578 397 2138 397 
Q 2388 397 2633 464 
Q 2878 531 3122 666 
L 3122 134 
Q 2881 22 2623 -34 
Q 2366 -91 2075 -91 
Q 1284 -91 818 406 
Q 353 903 353 1747 
Q 353 2603 823 3093 
Q 1294 3584 2113 3584 
Q 2378 3584 2631 3529 
Q 2884 3475 3122 3366 
z
" transform="scale(0.015625)"/>
      <path id="DejaVuSans-73" d="M 2834 3397 
L 2834 2853 
Q 2591 2978 2328 3040 
Q 2066 3103 1784 3103 
Q 1356 3103 1142 2972 
Q 928 2841 928 2578 
Q 928 2378 1081 2264 
Q 1234 2150 1697 2047 
L 1894 2003 
Q 2506 1872 2764 1633 
Q 3022 1394 3022 966 
Q 3022 478 2636 193 
Q 2250 -91 1575 -91 
Q 1294 -91 989 -36 
Q 684 19 347 128 
L 347 722 
Q 666 556 975 473 
Q 1284 391 1588 391 
Q 1994 391 2212 530 
Q 2431 669 2431 922 
Q 2431 1156 2273 1281 
Q 2116 1406 1581 1522 
L 1381 1569 
Q 847 1681 609 1914 
Q 372 2147 372 2553 
Q 372 3047 722 3315 
Q 1072 3584 1716 3584 
Q 2034 3584 2315 3537 
Q 2597 3491 2834 3397 
z
" transform="scale(0.015625)"/>
      <path id="DejaVuSans-48" d="M 628 4666 
L 1259 4666 
L 1259 2753 
L 3553 2753 
L 3553 4666 
L 4184 4666 
L 4184 0 
L 3553 0 
L 3553 2222 
L 1259 2222 
L 1259 0 
L 628 0 
L 628 4666 
z
" transform="scale(0.015625)"/>
      <path id="DejaVuSans-67" d="M 2906 1791 
Q 2906 2416 2648 2759 
Q 2391 3103 1925 3103 
Q 1463 3103 1205 2759 
Q 947 2416 947 1791 
Q 947 1169 1205 825 
Q 1463 481 1925 481 
Q 2391 481 2648 825 
Q 2906 1169 2906 1791 
z
M 3481 434 
Q 3481 -459 3084 -895 
Q 2688 -1331 1869 -1331 
Q 1566 -1331 1297 -1286 
Q 1028 -1241 775 -1147 
L 775 -588 
Q 1028 -725 1275 -790 
Q 1522 -856 1778 -856 
Q 2344 -856 2625 -561 
Q 2906 -266 2906 331 
L 2906 616 
Q 2728 306 2450 153 
Q 2172 0 1784 0 
Q 1141 0 747 490 
Q 353 981 353 1791 
Q 353 2603 747 3093 
Q 1141 3584 1784 3584 
Q 2172 3584 2450 3431 
Q 2728 3278 2906 2969 
L 2906 3500 
L 3481 3500 
L 3481 434 
z
" transform="scale(0.015625)"/>
      <path id="DejaVuSans-29" d="M 513 4856 
L 1013 4856 
Q 1481 4119 1714 3412 
Q 1947 2706 1947 2009 
Q 1947 1309 1714 600 
Q 1481 -109 1013 -844 
L 513 -844 
Q 928 -128 1133 580 
Q 1338 1288 1338 2009 
Q 1338 2731 1133 3434 
Q 928 4138 513 4856 
z
" transform="scale(0.015625)"/>
     </defs>
     <use xlink:href="#DejaVuSans-46"/>
     <use xlink:href="#DejaVuSans-69" transform="translate(50.269531 0)"/>
     <use xlink:href="#DejaVuSans-6c" transform="translate(78.052734 0)"/>
     <use xlink:href="#DejaVuSans-74" transform="translate(105.835938 0)"/>
     <use xlink:href="#DejaVuSans-65" transform="translate(145.044922 0)"/>
     <use xlink:href="#DejaVuSans-72" transform="translate(206.568359 0)"/>
     <use xlink:href="#DejaVuSans-65" transform="translate(245.431641 0)"/>
     <use xlink:href="#DejaVuSans-64" transform="translate(306.955078 0)"/>
     <use xlink:href="#DejaVuSans-20" transform="translate(370.431641 0)"/>
     <use xlink:href="#DejaVuSans-4c" transform="translate(402.21875 0)"/>
     <use xlink:href="#DejaVuSans-4c" transform="translate(457.931641 0)"/>
     <use xlink:href="#DejaVuSans-56" transform="translate(502.644531 0)"/>
     <use xlink:href="#DejaVuSans-4d" transform="translate(571.052734 0)"/>
     <use xlink:href="#DejaVuSans-20" transform="translate(657.332031 0)"/>
     <use xlink:href="#DejaVuSans-49" transform="translate(689.119141 0)"/>
     <use xlink:href="#DejaVuSans-52" transform="translate(718.611328 0)"/>
     <use xlink:href="#DejaVuSans-20" transform="translate(788.09375 0)"/>
     <use xlink:href="#DejaVuSans-43" transform="translate(819.880859 0)"/>
     <use xlink:href="#DejaVuSans-61" transform="translate(889.705078 0)"/>
     <use xlink:href="#DejaVuSans-6c" transform="translate(950.984375 0)"/>
     <use xlink:href="#DejaVuSans-6c" transform="translate(978.767578 0)"/>
     <use xlink:href="#DejaVuSans-20" transform="translate(1006.550781 0)"/>
     <use xlink:href="#DejaVuSans-47" transform="translate(1038.337891 0)"/>
     <use xlink:href="#DejaVuSans-72" transform="translate(1115.828125 0)"/>
     <use xlink:href="#DejaVuSans-61" transform="translate(1156.941406 0)"/>
     <use xlink:href="#DejaVuSans-70" transform="translate(1218.220703 0)"/>
     <use xlink:href="#DejaVuSans-68" transform="translate(1281.697266 0)"/>
     <use xlink:href="#DejaVuSans-20" transform="translate(1345.076172 0)"/>
     <use xlink:href="#DejaVuSans-28" transform="translate(1376.863281 0)"/>
     <use xlink:href="#DejaVuSans-43" transform="translate(1415.876953 0)"/>
     <use xlink:href="#DejaVuSans-79" transform="translate(1485.701172 0)"/>
     <use xlink:href="#DejaVuSans-63" transform="translate(1544.880859 0)"/>
     <use xlink:href="#DejaVuSans-6c" transform="translate(1599.861328 0)"/>
     <use xlink:href="#DejaVuSans-65" transform="translate(1627.644531 0)"/>
     <use xlink:href="#DejaVuSans-73" transform="translate(1689.167969 0)"/>
     <use xlink:href="#DejaVuSans-20" transform="translate(1741.267578 0)"/>
     <use xlink:href="#DejaVuSans-48" transform="translate(1773.054688 0)"/>
     <use xlink:href="#DejaVuSans-69" transform="translate(1848.25 0)"/>
     <use xlink:href="#DejaVuSans-67" transform="translate(1876.033203 0)"/>
     <use xlink:href="#DejaVuSans-68" transform="translate(1939.509766 0)"/>
     <use xlink:href="#DejaVuSans-6c" transform="translate(2002.888672 0)"/>
     <use xlink:href="#DejaVuSans-69" transform="translate(2030.671875 0)"/>
     <use xlink:href="#DejaVuSans-67" transform="translate(2058.455078 0)"/>
     <use xlink:href="#DejaVuSans-68" transform="translate(2121.931641 0)"/>
     <use xlink:href="#DejaVuSans-74" transform="translate(2185.310547 0)"/>
     <use xlink:href="#DejaVuSans-65" transform="translate(2224.519531 0)"/>
     <use xlink:href="#DejaVuSans-64" transform="translate(2286.042969 0)"/>
     <use xlink:href="#DejaVuSans-29" transform="translate(2349.519531 0)"/>
    </g>
    <!-- Source: linear.filtered.ll -->
    <g transform="translate(552.63 37.274) scale(0.16 -0.16)">
     <defs>
      <path id="DejaVuSans-53" d="M 3425 4513 
L 3425 3897 
Q 3066 4069 2747 4153 
Q 2428 4238 2131 4238 
Q 1616 4238 1336 4038 
Q 1056 3838 1056 3469 
Q 1056 3159 1242 3001 
Q 1428 2844 1947 2747 
L 2328 2669 
Q 3034 2534 3370 2195 
Q 3706 1856 3706 1288 
Q 3706 609 3251 259 
Q 2797 -91 1919 -91 
Q 1588 -91 1214 -16 
Q 841 59 441 206 
L 441 856 
Q 825 641 1194 531 
Q 1563 422 1919 422 
Q 2459 422 2753 634 
Q 3047 847 3047 1241 
Q 3047 1584 2836 1778 
Q 2625 1972 2144 2069 
L 1759 2144 
Q 1053 2284 737 2584 
Q 422 2884 422 3419 
Q 422 4038 858 4394 
Q 1294 4750 2059 4750 
Q 2388 4750 2728 4690 
Q 3069 4631 3425 4513 
z
" transform="scale(0.015625)"/>
      <path id="DejaVuSans-6f" d="M 1959 3097 
Q 1497 3097 1228 2736 
Q 959 2375 959 1747 
Q 959 1119 1226 758 
Q 1494 397 1959 397 
Q 2419 397 2687 759 
Q 2956 1122 2956 1747 
Q 2956 2369 2687 2733 
Q 2419 3097 1959 3097 
z
M 1959 3584 
Q 2709 3584 3137 3096 
Q 3566 2609 3566 1747 
Q 3566 888 3137 398 
Q 2709 -91 1959 -91 
Q 1206 -91 779 398 
Q 353 888 353 1747 
Q 353 2609 779 3096 
Q 1206 3584 1959 3584 
z
" transform="scale(0.015625)"/>
      <path id="DejaVuSans-75" d="M 544 1381 
L 544 3500 
L 1119 3500 
L 1119 1403 
Q 1119 906 1312 657 
Q 1506 409 1894 409 
Q 2359 409 2629 706 
Q 2900 1003 2900 1516 
L 2900 3500 
L 3475 3500 
L 3475 0 
L 2900 0 
L 2900 538 
Q 2691 219 2414 64 
Q 2138 -91 1772 -91 
Q 1169 -91 856 284 
Q 544 659 544 1381 
z
M 1991 3584 
L 1991 3584 
z
" transform="scale(0.015625)"/>
      <path id="DejaVuSans-3a" d="M 750 794 
L 1409 794 
L 1409 0 
L 750 0 
L 750 794 
z
M 750 3309 
L 1409 3309 
L 1409 2516 
L 750 2516 
L 750 3309 
z
" transform="scale(0.015625)"/>
      <path id="DejaVuSans-6e" d="M 3513 2113 
L 3513 0 
L 2938 0 
L 2938 2094 
Q 2938 2591 2744 2837 
Q 2550 3084 2163 3084 
Q 1697 3084 1428 2787 
Q 1159 2491 1159 1978 
L 1159 0 
L 581 0 
L 581 3500 
L 1159 3500 
L 1159 2956 
Q 1366 3272 1645 3428 
Q 1925 3584 2291 3584 
Q 2894 3584 3203 3211 
Q 3513 2838 3513 2113 
z
" transform="scale(0.015625)"/>
      <path id="DejaVuSans-2e" d="M 684 794 
L 1344 794 
L 1344 0 
L 684 0 
L 684 794 
z
" transform="scale(0.015625)"/>
      <path id="DejaVuSans-66" d="M 2375 4863 
L 2375 4384 
L 1825 4384 
Q 1516 4384 1395 4259 
Q 1275 4134 1275 3809 
L 1275 3500 
L 2222 3500 
L 2222 3053 
L 1275 3053 
L 1275 0 
L 697 0 
L 697 3053 
L 147 3053 
L 147 3500 
L 697 3500 
L 697 3744 
Q 697 4328 969 4595 
Q 1241 4863 1831 4863 
L 2375 4863 
z
" transform="scale(0.015625)"/>
     </defs>
     <use xlink:href="#DejaVuSans-53"/>
     <use xlink:href="#DejaVuSans-6f" transform="translate(63.476562 0)"/>
     <use xlink:href="#DejaVuSans-75" transform="translate(124.658203 0)"/>
     <use xlink:href="#DejaVuSans-72" transform="translate(188.037109 0)"/>
     <use xlink:href="#DejaVuSans-63" transform="translate(226.900391 0)"/>
     <use xlink:href="#DejaVuSans-65" transform="translate(281.880859 0)"/>
     <use xlink:href="#DejaVuSans-3a" transform="translate(343.404297 0)"/>
     <use xlink:href="#DejaVuSans-20" transform="translate(377.095703 0)"/>
     <use xlink:href="#DejaVuSans-6c" transform="translate(408.882812 0)"/>
     <use xlink:href="#DejaVuSans-69" transform="translate(436.666016 0)"/>
     <use xlink:href="#DejaVuSans-6e" transform="translate(464.449219 0)"/>
     <use xlink:href="#DejaVuSans-65" transform="translate(527.828125 0)"/>
     <use xlink:href="#DejaVuSans-61" transform="translate(589.351562 0)"/>
     <use xlink:href="#DejaVuSans-72" transform="translate(650.630859 0)"/>
     <use xlink:href="#DejaVuSans-2e" transform="translate(682.619141 0)"/>
     <use xlink:href="#DejaVuSans-66" transform="translate(714.40625 0)"/>
     <use xlink:href="#DejaVuSans-69" transform="translate(749.611328 0)"/>
     <use xlink:href="#DejaVuSans-6c" transform="translate(777.394531 0)"/>
     <use xlink:href="#DejaVuSans-74" transform="translate(805.177734 0)"/>
     <use xlink:href="#DejaVuSans-65" transform="translate(844.386719 0)"/>
     <use xlink:href="#DejaVuSans-72" transform="translate(905.910156 0)"/>
     <use xlink:href="#DejaVuSans-65" transform="translate(944.773438 0)"/>
     <use xlink:href="#DejaVuSans-64" transform="translate(1006.296875 0)"/>
     <use xlink:href="#DejaVuSans-2e" transform="translate(1069.773438 0)"/>
     <use xlink:href="#DejaVuSans-6c" transform="translate(1101.560547 0)"/>
     <use xlink:href="#DejaVuSans-6c" transform="translate(1129.34375 0)"/>
    </g>
   </g>
   <g id="text_8">
    <g id="patch_7">
     <path d="M 968.619524 569.069266 
L 1024.609368 569.069266 
Q 1026.409368 569.069266 1026.409368 567.269266 
L 1026.409368 558.558954 
Q 1026.409368 556.758954 1024.609368 556.758954 
L 968.619524 556.758954 
Q 966.819524 556.758954 966.819524 558.558954 
L 966.819524 567.269266 
Q 966.819524 569.069266 968.619524 569.069266 
z
" style="fill: #ffffff; opacity: 0.85; stroke: #aaaaaa; stroke-linejoin: miter"/>
    </g>
    <!-- WCET: ~904 -->
    <g style="fill: #0000cc" transform="translate(968.619524 565.397547) scale(0.09 -0.09)">
     <defs>
      <path id="DejaVuSans-57" d="M 213 4666 
L 850 4666 
L 1831 722 
L 2809 4666 
L 3519 4666 
L 4500 722 
L 5478 4666 
L 6119 4666 
L 4947 0 
L 4153 0 
L 3169 4050 
L 2175 0 
L 1381 0 
L 213 4666 
z
" transform="scale(0.015625)"/>
      <path id="DejaVuSans-45" d="M 628 4666 
L 3578 4666 
L 3578 4134 
L 1259 4134 
L 1259 2753 
L 3481 2753 
L 3481 2222 
L 1259 2222 
L 1259 531 
L 3634 531 
L 3634 0 
L 628 0 
L 628 4666 
z
" transform="scale(0.015625)"/>
      <path id="DejaVuSans-54" d="M -19 4666 
L 3928 4666 
L 3928 4134 
L 2272 4134 
L 2272 0 
L 1638 0 
L 1638 4134 
L -19 4134 
L -19 4666 
z
" transform="scale(0.015625)"/>
      <path id="DejaVuSans-7e" d="M 4684 2553 
L 4684 1997 
Q 4356 1750 4076 1644 
Q 3797 1538 3494 1538 
Q 3150 1538 2694 1722 
Q 2659 1734 2644 1741 
Q 2622 1750 2575 1766 
Q 2091 1959 1797 1959 
Q 1522 1959 1253 1839 
Q 984 1719 678 1459 
L 678 2016 
Q 1006 2263 1286 2370 
Q 1566 2478 1869 2478 
Q 2213 2478 2672 2291 
Q 2703 2278 2719 2272 
Q 2744 2263 2788 2247 
Q 3272 2053 3566 2053 
Q 3834 2053 4098 2172 
Q 4363 2291 4684 2553 
z
" transform="scale(0.015625)"/>
      <path id="DejaVuSans-39" d="M 703 97 
L 703 672 
Q 941 559 1184 500 
Q 1428 441 1663 441 
Q 2288 441 2617 861 
Q 2947 1281 2994 2138 
Q 2813 1869 2534 1725 
Q 2256 1581 1919 1581 
Q 1219 1581 811 2004 
Q 403 2428 403 3163 
Q 403 3881 828 4315 
Q 1253 4750 1959 4750 
Q 2769 4750 3195 4129 
Q 3622 3509 3622 2328 
Q 3622 1225 3098 567 
Q 2575 -91 1691 -91 
Q 1453 -91 1209 -44 
Q 966 3 703 97 
z
M 1959 2075 
Q 2384 2075 2632 2365 
Q 2881 2656 2881 3163 
Q 2881 3666 2632 3958 
Q 2384 4250 1959 4250 
Q 1534 4250 1286 3958 
Q 1038 3666 1038 3163 
Q 1038 2656 1286 2365 
Q 1534 2075 1959 2075 
z
" transform="scale(0.015625)"/>
      <path id="DejaVuSans-30" d="M 2034 4250 
Q 1547 4250 1301 3770 
Q 1056 3291 1056 2328 
Q 1056 1369 1301 889 
Q 1547 409 2034 409 
Q 2525 409 2770 889 
Q 3016 1369 3016 2328 
Q 3016 3291 2770 3770 
Q 2525 4250 2034 4250 
z
M 2034 4750 
Q 2819 4750 3233 4129 
Q 3647 3509 3647 2328 
Q 3647 1150 3233 529 
Q 2819 -91 2034 -91 
Q 1250 -91 836 529 
Q 422 1150 422 2328 
Q 422 3509 836 4129 
Q 1250 4750 2034 4750 
z
" transform="scale(0.015625)"/>
      <path id="DejaVuSans-34" d="M 2419 4116 
L 825 1625 
L 2419 1625 
L 2419 4116 
z
M 2253 4666 
L 3047 4666 
L 3047 1625 
L 3713 1625 
L 3713 1100 
L 3047 1100 
L 3047 0 
L 2419 0 
L 2419 1100 
L 313 1100 
L 313 1709 
L 2253 4666 
z
" transform="scale(0.015625)"/>
     </defs>
     <use xlink:href="#DejaVuSans-57"/>
     <use xlink:href="#DejaVuSans-43" transform="translate(98.876953 0)"/>
     <use xlink:href="#DejaVuSans-45" transform="translate(168.701172 0)"/>
     <use xlink:href="#DejaVuSans-54" transform="translate(231.884766 0)"/>
     <use xlink:href="#DejaVuSans-3a" transform="translate(281.96875 0)"/>
     <use xlink:href="#DejaVuSans-20" transform="translate(315.660156 0)"/>
     <use xlink:href="#DejaVuSans-7e" transform="translate(347.447266 0)"/>
     <use xlink:href="#DejaVuSans-39" transform="translate(431.236328 0)"/>
     <use xlink:href="#DejaVuSans-30" transform="translate(494.859375 0)"/>
     <use xlink:href="#DejaVuSans-34" transform="translate(558.482422 0)"/>
    </g>
   </g>
   <g id="text_9">
    <g id="patch_8">
     <path d="M 1144.477805 974.749022 
L 1200.467649 974.749022 
Q 1202.267649 974.749022 1202.267649 972.949022 
L 1202.267649 964.23871 
Q 1202.267649 962.43871 1200.467649 962.43871 
L 1144.477805 962.43871 
Q 1142.677805 962.43871 1142.677805 964.23871 
L 1142.677805 972.949022 
Q 1142.677805 974.749022 1144.477805 974.749022 
z
" style="fill: #ffffff; opacity: 0.85; stroke: #aaaaaa; stroke-linejoin: miter"/>
    </g>
    <!-- WCET: ~130 -->
    <g style="fill: #0000cc" transform="translate(1144.477805 971.077303) scale(0.09 -0.09)">
     <defs>
      <path id="DejaVuSans-31" d="M 794 531 
L 1825 531 
L 1825 4091 
L 703 3866 
L 703 4441 
L 1819 4666 
L 2450 4666 
L 2450 531 
L 3481 531 
L 3481 0 
L 794 0 
L 794 531 
z
" transform="scale(0.015625)"/>
      <path id="DejaVuSans-33" d="M 2597 2516 
Q 3050 2419 3304 2112 
Q 3559 1806 3559 1356 
Q 3559 666 3084 287 
Q 2609 -91 1734 -91 
Q 1441 -91 1130 -33 
Q 819 25 488 141 
L 488 750 
Q 750 597 1062 519 
Q 1375 441 1716 441 
Q 2309 441 2620 675 
Q 2931 909 2931 1356 
Q 2931 1769 2642 2001 
Q 2353 2234 1838 2234 
L 1294 2234 
L 1294 2753 
L 1863 2753 
Q 2328 2753 2575 2939 
Q 2822 3125 2822 3475 
Q 2822 3834 2567 4026 
Q 2313 4219 1838 4219 
Q 1578 4219 1281 4162 
Q 984 4106 628 3988 
L 628 4550 
Q 988 4650 1302 4700 
Q 1616 4750 1894 4750 
Q 2613 4750 3031 4423 
Q 3450 4097 3450 3541 
Q 3450 3153 3228 2886 
Q 3006 2619 2597 2516 
z
" transform="scale(0.015625)"/>
     </defs>
     <use xlink:href="#DejaVuSans-57"/>
     <use xlink:href="#DejaVuSans-43" transform="translate(98.876953 0)"/>
     <use xlink:href="#DejaVuSans-45" transform="translate(168.701172 0)"/>
     <use xlink:href="#DejaVuSans-54" transform="translate(231.884766 0)"/>
     <use xlink:href="#DejaVuSans-3a" transform="translate(281.96875 0)"/>
     <use xlink:href="#DejaVuSans-20" transform="translate(315.660156 0)"/>
     <use xlink:href="#DejaVuSans-7e" transform="translate(347.447266 0)"/>
     <use xlink:href="#DejaVuSans-31" transform="translate(431.236328 0)"/>
     <use xlink:href="#DejaVuSans-33" transform="translate(494.859375 0)"/>
     <use xlink:href="#DejaVuSans-30" transform="translate(558.482422 0)"/>
    </g>
   </g>
   <g id="text_10">
    <g id="patch_9">
     <path d="M 809.132578 1019.999555 
L 859.396172 1019.999555 
Q 861.196172 1019.999555 861.196172 1018.199555 
L 861.196172 1009.489243 
Q 861.196172 1007.689243 859.396172 1007.689243 
L 809.132578 1007.689243 
Q 807.332578 1007.689243 807.332578 1009.489243 
L 807.332578 1018.199555 
Q 807.332578 1019.999555 809.132578 1019.999555 
z
" style="fill: #ffffff; opacity: 0.85; stroke: #aaaaaa; stroke-linejoin: miter"/>
    </g>
    <!-- WCET: ~90 -->
    <g style="fill: #0000cc" transform="translate(809.132578 1016.327836) scale(0.09 -0.09)">
     <use xlink:href="#DejaVuSans-57"/>
     <use xlink:href="#DejaVuSans-43" transform="translate(98.876953 0)"/>
     <use xlink:href="#DejaVuSans-45" transform="translate(168.701172 0)"/>
     <use xlink:href="#DejaVuSans-54" transform="translate(231.884766 0)"/>
     <use xlink:href="#DejaVuSans-3a" transform="translate(281.96875 0)"/>
     <use xlink:href="#DejaVuSans-20" transform="translate(315.660156 0)"/>
     <use xlink:href="#DejaVuSans-7e" transform="translate(347.447266 0)"/>
     <use xlink:href="#DejaVuSans-39" transform="translate(431.236328 0)"/>
     <use xlink:href="#DejaVuSans-30" transform="translate(494.859375 0)"/>
    </g>
   </g>
   <g id="text_11">
    <g id="patch_10">
     <path d="M 92.795476 643.419354 
L 143.05907 643.419354 
Q 144.85907 643.419354 144.85907 641.619354 
L 144.85907 632.909042 
Q 144.85907 631.109042 143.05907 631.109042 
L 92.795476 631.109042 
Q 90.995476 631.109042 90.995476 632.909042 
L 90.995476 641.619354 
Q 90.995476 643.419354 92.795476 643.419354 
z
" style="fill: #ffffff; opacity: 0.85; stroke: #aaaaaa; stroke-linejoin: miter"/>
    </g>
    <!-- WCET: ~90 -->
    <g style="fill: #0000cc" transform="translate(92.795476 639.747636) scale(0.09 -0.09)">
     <use xlink:href="#DejaVuSans-57"/>
     <use xlink:href="#DejaVuSans-43" transform="translate(98.876953 0)"/>
     <use xlink:href="#DejaVuSans-45" transform="translate(168.701172 0)"/>
     <use xlink:href="#DejaVuSans-54" transform="translate(231.884766 0)"/>
     <use xlink:href="#DejaVuSans-3a" transform="translate(281.96875 0)"/>
     <use xlink:href="#DejaVuSans-20" transform="translate(315.660156 0)"/>
     <use xlink:href="#DejaVuSans-7e" transform="translate(347.447266 0)"/>
     <use xlink:href="#DejaVuSans-39" transform="translate(431.236328 0)"/>
     <use xlink:href="#DejaVuSans-30" transform="translate(494.859375 0)"/>
    </g>
   </g>
   <g id="text_12">
    <g id="patch_11">
     <path d="M 525.364531 599.303035 
L 581.354375 599.303035 
Q 583.154375 599.303035 583.154375 597.503035 
L 583.154375 588.792722 
Q 583.154375 586.992722 581.354375 586.992722 
L 525.364531 586.992722 
Q 523.564531 586.992722 523.564531 588.792722 
L 523.564531 597.503035 
Q 523.564531 599.303035 525.364531 599.303035 
z
" style="fill: #ffffff; opacity: 0.85; stroke: #aaaaaa; stroke-linejoin: miter"/>
    </g>
    <!-- WCET: ~255 -->
    <g style="fill: #0000cc" transform="translate(525.364531 595.631316) scale(0.09 -0.09)">
     <defs>
      <path id="DejaVuSans-32" d="M 1228 531 
L 3431 531 
L 3431 0 
L 469 0 
L 469 531 
Q 828 903 1448 1529 
Q 2069 2156 2228 2338 
Q 2531 2678 2651 2914 
Q 2772 3150 2772 3378 
Q 2772 3750 2511 3984 
Q 2250 4219 1831 4219 
Q 1534 4219 1204 4116 
Q 875 4013 500 3803 
L 500 4441 
Q 881 4594 1212 4672 
Q 1544 4750 1819 4750 
Q 2544 4750 2975 4387 
Q 3406 4025 3406 3419 
Q 3406 3131 3298 2873 
Q 3191 2616 2906 2266 
Q 2828 2175 2409 1742 
Q 1991 1309 1228 531 
z
" transform="scale(0.015625)"/>
      <path id="DejaVuSans-35" d="M 691 4666 
L 3169 4666 
L 3169 4134 
L 1269 4134 
L 1269 2991 
Q 1406 3038 1543 3061 
Q 1681 3084 1819 3084 
Q 2600 3084 3056 2656 
Q 3513 2228 3513 1497 
Q 3513 744 3044 326 
Q 2575 -91 1722 -91 
Q 1428 -91 1123 -41 
Q 819 9 494 109 
L 494 744 
Q 775 591 1075 516 
Q 1375 441 1709 441 
Q 2250 441 2565 725 
Q 2881 1009 2881 1497 
Q 2881 1984 2565 2268 
Q 2250 2553 1709 2553 
Q 1456 2553 1204 2497 
Q 953 2441 691 2322 
L 691 4666 
z
" transform="scale(0.015625)"/>
     </defs>
     <use xlink:href="#DejaVuSans-57"/>
     <use xlink:href="#DejaVuSans-43" transform="translate(98.876953 0)"/>
     <use xlink:href="#DejaVuSans-45" transform="translate(168.701172 0)"/>
     <use xlink:href="#DejaVuSans-54" transform="translate(231.884766 0)"/>
     <use xlink:href="#DejaVuSans-3a" transform="translate(281.96875 0)"/>
     <use xlink:href="#DejaVuSans-20" transform="translate(315.660156 0)"/>
     <use xlink:href="#DejaVuSans-7e" transform="translate(347.447266 0)"/>
     <use xlink:href="#DejaVuSans-32" transform="translate(431.236328 0)"/>
     <use xlink:href="#DejaVuSans-35" transform="translate(494.859375 0)"/>
     <use xlink:href="#DejaVuSans-35" transform="translate(558.482422 0)"/>
    </g>
   </g>
   <g id="text_13">
    <g id="patch_12">
     <path d="M 730.570441 172.250795 
L 775.107785 172.250795 
Q 776.907785 172.250795 776.907785 170.450795 
L 776.907785 161.740482 
Q 776.907785 159.940482 775.107785 159.940482 
L 730.570441 159.940482 
Q 728.770441 159.940482 728.770441 161.740482 
L 728.770441 170.450795 
Q 728.770441 172.250795 730.570441 172.250795 
z
" style="fill: #ffffff; opacity: 0.85; stroke: #aaaaaa; stroke-linejoin: miter"/>
    </g>
    <!-- WCET: ~1 -->
    <g style="fill: #0000cc" transform="translate(730.570441 168.579076) scale(0.09 -0.09)">
     <use xlink:href="#DejaVuSans-57"/>
     <use xlink:href="#DejaVuSans-43" transform="translate(98.876953 0)"/>
     <use xlink:href="#DejaVuSans-45" transform="translate(168.701172 0)"/>
     <use xlink:href="#DejaVuSans-54" transform="translate(231.884766 0)"/>
     <use xlink:href="#DejaVuSans-3a" transform="translate(281.96875 0)"/>
     <use xlink:href="#DejaVuSans-20" transform="translate(315.660156 0)"/>
     <use xlink:href="#DejaVuSans-7e" transform="translate(347.447266 0)"/>
     <use xlink:href="#DejaVuSans-31" transform="translate(431.236328 0)"/>
    </g>
   </g>
  </g>
 </g>
 <defs>
  <clipPath id="p8a2637945f">
   <rect x="7.2" y="43.274" width="1276" height="1025.776"/>
  </clipPath>
 </defs>
</svg>
