<?xml version="1.0" encoding="utf-8" standalone="no"?>
<!DOCTYPE svg PUBLIC "-//W3C//DTD SVG 1.1//EN"
  "http://www.w3.org/Graphics/SVG/1.1/DTD/svg11.dtd">
<svg xmlns:xlink="http://www.w3.org/1999/xlink" width="1290.4pt" height="1076.25pt" viewBox="0 0 1290.4 1076.25" xmlns="http://www.w3.org/2000/svg" version="1.1">
 <metadata>
  <rdf:RDF xmlns:dc="http://purl.org/dc/elements/1.1/" xmlns:cc="http://creativecommons.org/ns#" xmlns:rdf="http://www.w3.org/1999/02/22-rdf-syntax-ns#">
   <cc:Work>
    <dc:type rdf:resource="http://purl.org/dc/dcmitype/StillImage"/>
    <dc:date>2025-04-28T12:25:11.237221</dc:date>
    <dc:format>image/svg+xml</dc:format>
    <dc:creator>
     <cc:Agent>
      <dc:title>Matplotlib v3.10.1, https://matplotlib.org/</dc:title>
     </cc:Agent>
    </dc:creator>
   </cc:Work>
  </rdf:RDF>
 </metadata>
 <defs>
  <style type="text/css">*{stroke-linejoin: round; stroke-linecap: butt}</style>
 </defs>
 <g id="figure_1">
  <g id="patch_1">
   <path d="M 0 1076.25 
L 1290.4 1076.25 
L 1290.4 0 
L 0 0 
z
" style="fill: #ffffff"/>
  </g>
  <g id="axes_1">
   <g id="patch_2">
    <path d="M 1159.207262 394.445537 
Q 1072.177591 542.878575 1144.208784 697.293631 
" clip-path="url(#pc0365f7cce)" style="fill: none; stroke: #999999; stroke-opacity: 0.8; stroke-width: 1.5; stroke-linecap: round"/>
    <path d="M 1144.634096 681.646934 
L 1144.208784 697.293631 
L 1131.946614 687.565363 
z
" clip-path="url(#pc0365f7cce)" style="fill: #999999; fill-opacity: 0.8; stroke: #999999; stroke-opacity: 0.8; stroke-width: 1.5; stroke-linecap: round"/>
   </g>
   <g id="patch_3">
    <path d="M 658.927954 263.310487 
Q 871.3856 457.068206 1146.889406 380.802439 
" clip-path="url(#pc0365f7cce)" style="fill: none; stroke: #999999; stroke-opacity: 0.8; stroke-width: 1.5; stroke-linecap: round"/>
    <path d="M 1131.529312 377.791207 
L 1146.889406 380.802439 
L 1135.264364 391.283775 
z
" clip-path="url(#pc0365f7cce)" style="fill: #999999; fill-opacity: 0.8; stroke: #999999; stroke-opacity: 0.8; stroke-width: 1.5; stroke-linecap: round"/>
   </g>
   <g id="patch_4">
    <path d="M 621.806804 229.830993 
Q 406.860496 51.791025 143.139785 137.921759 
" clip-path="url(#pc0365f7cce)" style="fill: none; stroke: #999999; stroke-opacity: 0.8; stroke-width: 1.5; stroke-linecap: round"/>
    <path d="M 158.621215 140.229425 
L 143.139785 137.921759 
L 154.274776 126.921215 
z
" clip-path="url(#pc0365f7cce)" style="fill: #999999; fill-opacity: 0.8; stroke: #999999; stroke-opacity: 0.8; stroke-width: 1.5; stroke-linecap: round"/>
   </g>
   <g id="patch_5">
    <path d="M 1136.596669 736.749701 
Q 1035.827812 823.385794 1045.928708 954.21211 
" clip-path="url(#pc0365f7cce)" style="fill: none; stroke: #999999; stroke-opacity: 0.8; stroke-width: 1.5; stroke-linecap: round"/>
    <path d="M 1051.830226 939.714797 
L 1045.928708 954.21211 
L 1037.871768 940.792508 
z
" clip-path="url(#pc0365f7cce)" style="fill: #999999; fill-opacity: 0.8; stroke: #999999; stroke-opacity: 0.8; stroke-width: 1.5; stroke-linecap: round"/>
   </g>
   <g id="PathCollection_1">
    <path d="M 1172.472727 396.704876 
C 1178.692291 396.704876 1184.657955 394.233817 1189.055851 389.835921 
C 1193.453747 385.438025 1195.924806 379.472361 1195.924806 373.252797 
C 1195.924806 367.033233 1193.453747 361.067569 1189.055851 356.669673 
C 1184.657955 352.271777 1178.692291 349.800718 1172.472727 349.800718 
C 1166.253163 349.800718 1160.287499 352.271777 1155.889603 356.669673 
C 1151.491707 361.067569 1149.020648 367.033233 1149.020648 373.252797 
C 1149.020648 379.472361 1151.491707 385.438025 1155.889603 389.835921 
C 1160.287499 394.233817 1166.253163 396.704876 1172.472727 396.704876 
z
" clip-path="url(#pc0365f7cce)" style="fill: #d0d0ff; stroke: #444444; stroke-width: 2"/>
    <path d="M 1048.889784 1004.172087 
C 1055.109348 1004.172087 1061.075012 1001.701028 1065.472908 997.303132 
C 1069.870804 992.905236 1072.341863 986.939572 1072.341863 980.720008 
C 1072.341863 974.500444 1069.870804 968.53478 1065.472908 964.136884 
C 1061.075012 959.738988 1055.109348 957.267929 1048.889784 957.267929 
C 1042.67022 957.267929 1036.704556 959.738988 1032.30666 964.136884 
C 1027.908764 968.53478 1025.437705 974.500444 1025.437705 980.720008 
C 1025.437705 986.939572 1027.908764 992.905236 1032.30666 997.303132 
C 1036.704556 1001.701028 1042.67022 1004.172087 1048.889784 1004.172087 
z
" clip-path="url(#pc0365f7cce)" style="fill: #d0d0ff; stroke: #444444; stroke-width: 2"/>
    <path d="M 640.764022 269.587414 
C 646.983586 269.587414 652.94925 267.116355 657.347146 262.718459 
C 661.745042 258.320563 664.216101 252.354899 664.216101 246.135335 
C 664.216101 239.915771 661.745042 233.950107 657.347146 229.552211 
C 652.94925 225.154315 646.983586 222.683256 640.764022 222.683256 
C 634.544458 222.683256 628.578794 225.154315 624.180898 229.552211 
C 619.783002 233.950107 617.311943 239.915771 617.311943 246.135335 
C 617.311943 252.354899 619.783002 258.320563 624.180898 262.718459 
C 628.578794 267.116355 634.544458 269.587414 640.764022 269.587414 
z
" clip-path="url(#pc0365f7cce)" style="fill: #d0d0ff; stroke: #444444; stroke-width: 2"/>
    <path d="M 117.927273 170.095889 
C 124.146837 170.095889 130.112501 167.62483 134.510397 163.226934 
C 138.908293 158.829038 141.379352 152.863374 141.379352 146.64381 
C 141.379352 140.424246 138.908293 134.458582 134.510397 130.060686 
C 130.112501 125.66279 124.146837 123.191731 117.927273 123.191731 
C 111.707709 123.191731 105.742045 125.66279 101.344149 130.060686 
C 96.946253 134.458582 94.475194 140.424246 94.475194 146.64381 
C 94.475194 152.863374 96.946253 158.829038 101.344149 163.226934 
C 105.742045 167.62483 111.707709 170.095889 117.927273 170.095889 
z
" clip-path="url(#pc0365f7cce)" style="fill: #d0d0ff; stroke: #444444; stroke-width: 2"/>
    <path d="M 1156.137424 744.604525 
C 1162.356988 744.604525 1168.322652 742.133466 1172.720548 737.73557 
C 1177.118444 733.337674 1179.589503 727.37201 1179.589503 721.152446 
C 1179.589503 714.932882 1177.118444 708.967218 1172.720548 704.569322 
C 1168.322652 700.171426 1162.356988 697.700367 1156.137424 697.700367 
C 1149.91786 697.700367 1143.952196 700.171426 1139.5543 704.569322 
C 1135.156404 708.967218 1132.685345 714.932882 1132.685345 721.152446 
C 1132.685345 727.37201 1135.156404 733.337674 1139.5543 737.73557 
C 1143.952196 742.133466 1149.91786 744.604525 1156.137424 744.604525 
z
" clip-path="url(#pc0365f7cce)" style="fill: #d0d0ff; stroke: #444444; stroke-width: 2"/>
   </g>
   <g id="text_1">
    <g clip-path="url(#pc0365f7cce)">
     <!-- linear::a::h72cde362aba878d0 -->
     <g style="fill: #111111" transform="translate(1086.172727 376.012172) scale(0.1 -0.1)">
      <defs>
       <path id="DejaVuSans-Bold-6c" d="M 538 4863 
L 1656 4863 
L 1656 0 
L 538 0 
L 538 4863 
z
" transform="scale(0.015625)"/>
       <path id="DejaVuSans-Bold-69" d="M 538 3500 
L 1656 3500 
L 1656 0 
L 538 0 
L 538 3500 
z
M 538 4863 
L 1656 4863 
L 1656 3950 
L 538 3950 
L 538 4863 
z
" transform="scale(0.015625)"/>
       <path id="DejaVuSans-Bold-6e" d="M 4056 2131 
L 4056 0 
L 2931 0 
L 2931 347 
L 2931 1631 
Q 2931 2084 2911 2256 
Q 2891 2428 2841 2509 
Q 2775 2619 2662 2680 
Q 2550 2741 2406 2741 
Q 2056 2741 1856 2470 
Q 1656 2200 1656 1722 
L 1656 0 
L 538 0 
L 538 3500 
L 1656 3500 
L 1656 2988 
Q 1909 3294 2193 3439 
Q 2478 3584 2822 3584 
Q 3428 3584 3742 3212 
Q 4056 2841 4056 2131 
z
" transform="scale(0.015625)"/>
       <path id="DejaVuSans-Bold-65" d="M 4031 1759 
L 4031 1441 
L 1416 1441 
Q 1456 1047 1700 850 
Q 1944 653 2381 653 
Q 2734 653 3104 758 
Q 3475 863 3866 1075 
L 3866 213 
Q 3469 63 3072 -14 
Q 2675 -91 2278 -91 
Q 1328 -91 801 392 
Q 275 875 275 1747 
Q 275 2603 792 3093 
Q 1309 3584 2216 3584 
Q 3041 3584 3536 3087 
Q 4031 2591 4031 1759 
z
M 2881 2131 
Q 2881 2450 2695 2645 
Q 2509 2841 2209 2841 
Q 1884 2841 1681 2658 
Q 1478 2475 1428 2131 
L 2881 2131 
z
" transform="scale(0.015625)"/>
       <path id="DejaVuSans-Bold-61" d="M 2106 1575 
Q 1756 1575 1579 1456 
Q 1403 1338 1403 1106 
Q 1403 894 1545 773 
Q 1688 653 1941 653 
Q 2256 653 2472 879 
Q 2688 1106 2688 1447 
L 2688 1575 
L 2106 1575 
z
M 3816 1997 
L 3816 0 
L 2688 0 
L 2688 519 
Q 2463 200 2181 54 
Q 1900 -91 1497 -91 
Q 953 -91 614 226 
Q 275 544 275 1050 
Q 275 1666 698 1953 
Q 1122 2241 2028 2241 
L 2688 2241 
L 2688 2328 
Q 2688 2594 2478 2717 
Q 2269 2841 1825 2841 
Q 1466 2841 1156 2769 
Q 847 2697 581 2553 
L 581 3406 
Q 941 3494 1303 3539 
Q 1666 3584 2028 3584 
Q 2975 3584 3395 3211 
Q 3816 2838 3816 1997 
z
" transform="scale(0.015625)"/>
       <path id="DejaVuSans-Bold-72" d="M 3138 2547 
Q 2991 2616 2845 2648 
Q 2700 2681 2553 2681 
Q 2122 2681 1889 2404 
Q 1656 2128 1656 1613 
L 1656 0 
L 538 0 
L 538 3500 
L 1656 3500 
L 1656 2925 
Q 1872 3269 2151 3426 
Q 2431 3584 2822 3584 
Q 2878 3584 2943 3579 
Q 3009 3575 3134 3559 
L 3138 2547 
z
" transform="scale(0.015625)"/>
       <path id="DejaVuSans-Bold-3a" d="M 716 3500 
L 1844 3500 
L 1844 2291 
L 716 2291 
L 716 3500 
z
M 716 1209 
L 1844 1209 
L 1844 0 
L 716 0 
L 716 1209 
z
" transform="scale(0.015625)"/>
       <path id="DejaVuSans-Bold-68" d="M 4056 2131 
L 4056 0 
L 2931 0 
L 2931 347 
L 2931 1625 
Q 2931 2084 2911 2256 
Q 2891 2428 2841 2509 
Q 2775 2619 2662 2680 
Q 2550 2741 2406 2741 
Q 2056 2741 1856 2470 
Q 1656 2200 1656 1722 
L 1656 0 
L 538 0 
L 538 4863 
L 1656 4863 
L 1656 2988 
Q 1909 3294 2193 3439 
Q 2478 3584 2822 3584 
Q 3428 3584 3742 3212 
Q 4056 2841 4056 2131 
z
" transform="scale(0.015625)"/>
       <path id="DejaVuSans-Bold-37" d="M 428 4666 
L 3944 4666 
L 3944 3988 
L 2125 0 
L 953 0 
L 2675 3781 
L 428 3781 
L 428 4666 
z
" transform="scale(0.015625)"/>
       <path id="DejaVuSans-Bold-32" d="M 1844 884 
L 3897 884 
L 3897 0 
L 506 0 
L 506 884 
L 2209 2388 
Q 2438 2594 2547 2791 
Q 2656 2988 2656 3200 
Q 2656 3528 2436 3728 
Q 2216 3928 1850 3928 
Q 1569 3928 1234 3808 
Q 900 3688 519 3450 
L 519 4475 
Q 925 4609 1322 4679 
Q 1719 4750 2100 4750 
Q 2938 4750 3402 4381 
Q 3866 4013 3866 3353 
Q 3866 2972 3669 2642 
Q 3472 2313 2841 1759 
L 1844 884 
z
" transform="scale(0.015625)"/>
       <path id="DejaVuSans-Bold-63" d="M 3366 3391 
L 3366 2478 
Q 3138 2634 2908 2709 
Q 2678 2784 2431 2784 
Q 1963 2784 1702 2511 
Q 1441 2238 1441 1747 
Q 1441 1256 1702 982 
Q 1963 709 2431 709 
Q 2694 709 2930 787 
Q 3166 866 3366 1019 
L 3366 103 
Q 3103 6 2833 -42 
Q 2563 -91 2291 -91 
Q 1344 -91 809 395 
Q 275 881 275 1747 
Q 275 2613 809 3098 
Q 1344 3584 2291 3584 
Q 2566 3584 2833 3536 
Q 3100 3488 3366 3391 
z
" transform="scale(0.015625)"/>
       <path id="DejaVuSans-Bold-64" d="M 2919 2988 
L 2919 4863 
L 4044 4863 
L 4044 0 
L 2919 0 
L 2919 506 
Q 2688 197 2409 53 
Q 2131 -91 1766 -91 
Q 1119 -91 703 423 
Q 288 938 288 1747 
Q 288 2556 703 3070 
Q 1119 3584 1766 3584 
Q 2128 3584 2408 3439 
Q 2688 3294 2919 2988 
z
M 2181 722 
Q 2541 722 2730 984 
Q 2919 1247 2919 1747 
Q 2919 2247 2730 2509 
Q 2541 2772 2181 2772 
Q 1825 2772 1636 2509 
Q 1447 2247 1447 1747 
Q 1447 1247 1636 984 
Q 1825 722 2181 722 
z
" transform="scale(0.015625)"/>
       <path id="DejaVuSans-Bold-33" d="M 2981 2516 
Q 3453 2394 3698 2092 
Q 3944 1791 3944 1325 
Q 3944 631 3412 270 
Q 2881 -91 1863 -91 
Q 1503 -91 1142 -33 
Q 781 25 428 141 
L 428 1069 
Q 766 900 1098 814 
Q 1431 728 1753 728 
Q 2231 728 2486 893 
Q 2741 1059 2741 1369 
Q 2741 1688 2480 1852 
Q 2219 2016 1709 2016 
L 1228 2016 
L 1228 2791 
L 1734 2791 
Q 2188 2791 2409 2933 
Q 2631 3075 2631 3366 
Q 2631 3634 2415 3781 
Q 2200 3928 1806 3928 
Q 1516 3928 1219 3862 
Q 922 3797 628 3669 
L 628 4550 
Q 984 4650 1334 4700 
Q 1684 4750 2022 4750 
Q 2931 4750 3382 4451 
Q 3834 4153 3834 3553 
Q 3834 3144 3618 2883 
Q 3403 2622 2981 2516 
z
" transform="scale(0.015625)"/>
       <path id="DejaVuSans-Bold-36" d="M 2316 2303 
Q 2000 2303 1842 2098 
Q 1684 1894 1684 1484 
Q 1684 1075 1842 870 
Q 2000 666 2316 666 
Q 2634 666 2792 870 
Q 2950 1075 2950 1484 
Q 2950 1894 2792 2098 
Q 2634 2303 2316 2303 
z
M 3803 4544 
L 3803 3681 
Q 3506 3822 3243 3889 
Q 2981 3956 2731 3956 
Q 2194 3956 1894 3657 
Q 1594 3359 1544 2772 
Q 1750 2925 1990 3001 
Q 2231 3078 2516 3078 
Q 3231 3078 3670 2659 
Q 4109 2241 4109 1563 
Q 4109 813 3618 361 
Q 3128 -91 2303 -91 
Q 1394 -91 895 523 
Q 397 1138 397 2266 
Q 397 3422 980 4083 
Q 1563 4744 2578 4744 
Q 2900 4744 3203 4694 
Q 3506 4644 3803 4544 
z
" transform="scale(0.015625)"/>
       <path id="DejaVuSans-Bold-62" d="M 2400 722 
Q 2759 722 2948 984 
Q 3138 1247 3138 1747 
Q 3138 2247 2948 2509 
Q 2759 2772 2400 2772 
Q 2041 2772 1848 2508 
Q 1656 2244 1656 1747 
Q 1656 1250 1848 986 
Q 2041 722 2400 722 
z
M 1656 2988 
Q 1888 3294 2169 3439 
Q 2450 3584 2816 3584 
Q 3463 3584 3878 3070 
Q 4294 2556 4294 1747 
Q 4294 938 3878 423 
Q 3463 -91 2816 -91 
Q 2450 -91 2169 54 
Q 1888 200 1656 506 
L 1656 0 
L 538 0 
L 538 4863 
L 1656 4863 
L 1656 2988 
z
" transform="scale(0.015625)"/>
       <path id="DejaVuSans-Bold-38" d="M 2228 2088 
Q 1891 2088 1709 1903 
Q 1528 1719 1528 1375 
Q 1528 1031 1709 848 
Q 1891 666 2228 666 
Q 2563 666 2741 848 
Q 2919 1031 2919 1375 
Q 2919 1722 2741 1905 
Q 2563 2088 2228 2088 
z
M 1350 2484 
Q 925 2613 709 2878 
Q 494 3144 494 3541 
Q 494 4131 934 4440 
Q 1375 4750 2228 4750 
Q 3075 4750 3515 4442 
Q 3956 4134 3956 3541 
Q 3956 3144 3739 2878 
Q 3522 2613 3097 2484 
Q 3572 2353 3814 2058 
Q 4056 1763 4056 1313 
Q 4056 619 3595 264 
Q 3134 -91 2228 -91 
Q 1319 -91 855 264 
Q 391 619 391 1313 
Q 391 1763 633 2058 
Q 875 2353 1350 2484 
z
M 1631 3419 
Q 1631 3141 1786 2991 
Q 1941 2841 2228 2841 
Q 2509 2841 2662 2991 
Q 2816 3141 2816 3419 
Q 2816 3697 2662 3845 
Q 2509 3994 2228 3994 
Q 1941 3994 1786 3844 
Q 1631 3694 1631 3419 
z
" transform="scale(0.015625)"/>
       <path id="DejaVuSans-Bold-30" d="M 2944 2338 
Q 2944 3213 2780 3570 
Q 2616 3928 2228 3928 
Q 1841 3928 1675 3570 
Q 1509 3213 1509 2338 
Q 1509 1453 1675 1090 
Q 1841 728 2228 728 
Q 2613 728 2778 1090 
Q 2944 1453 2944 2338 
z
M 4147 2328 
Q 4147 1169 3647 539 
Q 3147 -91 2228 -91 
Q 1306 -91 806 539 
Q 306 1169 306 2328 
Q 306 3491 806 4120 
Q 1306 4750 2228 4750 
Q 3147 4750 3647 4120 
Q 4147 3491 4147 2328 
z
" transform="scale(0.015625)"/>
      </defs>
      <use xlink:href="#DejaVuSans-Bold-6c"/>
      <use xlink:href="#DejaVuSans-Bold-69" transform="translate(34.277344 0)"/>
      <use xlink:href="#DejaVuSans-Bold-6e" transform="translate(68.554688 0)"/>
      <use xlink:href="#DejaVuSans-Bold-65" transform="translate(139.746094 0)"/>
      <use xlink:href="#DejaVuSans-Bold-61" transform="translate(207.568359 0)"/>
      <use xlink:href="#DejaVuSans-Bold-72" transform="translate(275.048828 0)"/>
      <use xlink:href="#DejaVuSans-Bold-3a" transform="translate(324.365234 0)"/>
      <use xlink:href="#DejaVuSans-Bold-3a" transform="translate(364.355469 0)"/>
      <use xlink:href="#DejaVuSans-Bold-61" transform="translate(404.345703 0)"/>
      <use xlink:href="#DejaVuSans-Bold-3a" transform="translate(471.826172 0)"/>
      <use xlink:href="#DejaVuSans-Bold-3a" transform="translate(511.816406 0)"/>
      <use xlink:href="#DejaVuSans-Bold-68" transform="translate(551.806641 0)"/>
      <use xlink:href="#DejaVuSans-Bold-37" transform="translate(622.998047 0)"/>
      <use xlink:href="#DejaVuSans-Bold-32" transform="translate(692.578125 0)"/>
      <use xlink:href="#DejaVuSans-Bold-63" transform="translate(762.158203 0)"/>
      <use xlink:href="#DejaVuSans-Bold-64" transform="translate(821.435547 0)"/>
      <use xlink:href="#DejaVuSans-Bold-65" transform="translate(893.017578 0)"/>
      <use xlink:href="#DejaVuSans-Bold-33" transform="translate(960.839844 0)"/>
      <use xlink:href="#DejaVuSans-Bold-36" transform="translate(1030.419922 0)"/>
      <use xlink:href="#DejaVuSans-Bold-32" transform="translate(1100 0)"/>
      <use xlink:href="#DejaVuSans-Bold-61" transform="translate(1169.580078 0)"/>
      <use xlink:href="#DejaVuSans-Bold-62" transform="translate(1237.060547 0)"/>
      <use xlink:href="#DejaVuSans-Bold-61" transform="translate(1308.642578 0)"/>
      <use xlink:href="#DejaVuSans-Bold-38" transform="translate(1376.123047 0)"/>
      <use xlink:href="#DejaVuSans-Bold-37" transform="translate(1445.703125 0)"/>
      <use xlink:href="#DejaVuSans-Bold-38" transform="translate(1515.283203 0)"/>
      <use xlink:href="#DejaVuSans-Bold-64" transform="translate(1584.863281 0)"/>
      <use xlink:href="#DejaVuSans-Bold-30" transform="translate(1656.445312 0)"/>
     </g>
    </g>
   </g>
   <g id="text_2">
    <g clip-path="url(#pc0365f7cce)">
     <!-- linear::c::hee9c2ba9567242d2 -->
     <g style="fill: #111111" transform="translate(963.082753 983.479383) scale(0.1 -0.1)">
      <defs>
       <path id="DejaVuSans-Bold-39" d="M 641 103 
L 641 966 
Q 928 831 1190 764 
Q 1453 697 1709 697 
Q 2247 697 2547 995 
Q 2847 1294 2900 1881 
Q 2688 1725 2447 1647 
Q 2206 1569 1925 1569 
Q 1209 1569 770 1986 
Q 331 2403 331 3084 
Q 331 3838 820 4291 
Q 1309 4744 2131 4744 
Q 3044 4744 3544 4128 
Q 4044 3513 4044 2388 
Q 4044 1231 3459 570 
Q 2875 -91 1856 -91 
Q 1528 -91 1228 -42 
Q 928 6 641 103 
z
M 2125 2350 
Q 2441 2350 2600 2554 
Q 2759 2759 2759 3169 
Q 2759 3575 2600 3781 
Q 2441 3988 2125 3988 
Q 1809 3988 1650 3781 
Q 1491 3575 1491 3169 
Q 1491 2759 1650 2554 
Q 1809 2350 2125 2350 
z
" transform="scale(0.015625)"/>
       <path id="DejaVuSans-Bold-35" d="M 678 4666 
L 3669 4666 
L 3669 3781 
L 1638 3781 
L 1638 3059 
Q 1775 3097 1914 3117 
Q 2053 3138 2203 3138 
Q 3056 3138 3531 2711 
Q 4006 2284 4006 1522 
Q 4006 766 3489 337 
Q 2972 -91 2053 -91 
Q 1656 -91 1267 -14 
Q 878 63 494 219 
L 494 1166 
Q 875 947 1217 837 
Q 1559 728 1863 728 
Q 2300 728 2551 942 
Q 2803 1156 2803 1522 
Q 2803 1891 2551 2103 
Q 2300 2316 1863 2316 
Q 1603 2316 1309 2248 
Q 1016 2181 678 2041 
L 678 4666 
z
" transform="scale(0.015625)"/>
       <path id="DejaVuSans-Bold-34" d="M 2356 3675 
L 1038 1722 
L 2356 1722 
L 2356 3675 
z
M 2156 4666 
L 3494 4666 
L 3494 1722 
L 4159 1722 
L 4159 850 
L 3494 850 
L 3494 0 
L 2356 0 
L 2356 850 
L 288 850 
L 288 1881 
L 2156 4666 
z
" transform="scale(0.015625)"/>
      </defs>
      <use xlink:href="#DejaVuSans-Bold-6c"/>
      <use xlink:href="#DejaVuSans-Bold-69" transform="translate(34.277344 0)"/>
      <use xlink:href="#DejaVuSans-Bold-6e" transform="translate(68.554688 0)"/>
      <use xlink:href="#DejaVuSans-Bold-65" transform="translate(139.746094 0)"/>
      <use xlink:href="#DejaVuSans-Bold-61" transform="translate(207.568359 0)"/>
      <use xlink:href="#DejaVuSans-Bold-72" transform="translate(275.048828 0)"/>
      <use xlink:href="#DejaVuSans-Bold-3a" transform="translate(324.365234 0)"/>
      <use xlink:href="#DejaVuSans-Bold-3a" transform="translate(364.355469 0)"/>
      <use xlink:href="#DejaVuSans-Bold-63" transform="translate(404.345703 0)"/>
      <use xlink:href="#DejaVuSans-Bold-3a" transform="translate(463.623047 0)"/>
      <use xlink:href="#DejaVuSans-Bold-3a" transform="translate(503.613281 0)"/>
      <use xlink:href="#DejaVuSans-Bold-68" transform="translate(543.603516 0)"/>
      <use xlink:href="#DejaVuSans-Bold-65" transform="translate(614.794922 0)"/>
      <use xlink:href="#DejaVuSans-Bold-65" transform="translate(682.617188 0)"/>
      <use xlink:href="#DejaVuSans-Bold-39" transform="translate(750.439453 0)"/>
      <use xlink:href="#DejaVuSans-Bold-63" transform="translate(820.019531 0)"/>
      <use xlink:href="#DejaVuSans-Bold-32" transform="translate(879.296875 0)"/>
      <use xlink:href="#DejaVuSans-Bold-62" transform="translate(948.876953 0)"/>
      <use xlink:href="#DejaVuSans-Bold-61" transform="translate(1020.458984 0)"/>
      <use xlink:href="#DejaVuSans-Bold-39" transform="translate(1087.939453 0)"/>
      <use xlink:href="#DejaVuSans-Bold-35" transform="translate(1157.519531 0)"/>
      <use xlink:href="#DejaVuSans-Bold-36" transform="translate(1227.099609 0)"/>
      <use xlink:href="#DejaVuSans-Bold-37" transform="translate(1296.679688 0)"/>
      <use xlink:href="#DejaVuSans-Bold-32" transform="translate(1366.259766 0)"/>
      <use xlink:href="#DejaVuSans-Bold-34" transform="translate(1435.839844 0)"/>
      <use xlink:href="#DejaVuSans-Bold-32" transform="translate(1505.419922 0)"/>
      <use xlink:href="#DejaVuSans-Bold-64" transform="translate(1575 0)"/>
      <use xlink:href="#DejaVuSans-Bold-32" transform="translate(1646.582031 0)"/>
     </g>
    </g>
   </g>
   <g id="text_3">
    <g clip-path="url(#pc0365f7cce)">
     <!-- linear::main::h3f35248ce82c2e00 -->
     <g style="fill: #111111" transform="translate(545.977303 248.89471) scale(0.1 -0.1)">
      <defs>
       <path id="DejaVuSans-Bold-6d" d="M 3781 2919 
Q 3994 3244 4286 3414 
Q 4578 3584 4928 3584 
Q 5531 3584 5847 3212 
Q 6163 2841 6163 2131 
L 6163 0 
L 5038 0 
L 5038 1825 
Q 5041 1866 5042 1909 
Q 5044 1953 5044 2034 
Q 5044 2406 4934 2573 
Q 4825 2741 4581 2741 
Q 4263 2741 4089 2478 
Q 3916 2216 3909 1719 
L 3909 0 
L 2784 0 
L 2784 1825 
Q 2784 2406 2684 2573 
Q 2584 2741 2328 2741 
Q 2006 2741 1831 2477 
Q 1656 2213 1656 1722 
L 1656 0 
L 531 0 
L 531 3500 
L 1656 3500 
L 1656 2988 
Q 1863 3284 2130 3434 
Q 2397 3584 2719 3584 
Q 3081 3584 3359 3409 
Q 3638 3234 3781 2919 
z
" transform="scale(0.015625)"/>
       <path id="DejaVuSans-Bold-66" d="M 2841 4863 
L 2841 4128 
L 2222 4128 
Q 1984 4128 1890 4042 
Q 1797 3956 1797 3744 
L 1797 3500 
L 2753 3500 
L 2753 2700 
L 1797 2700 
L 1797 0 
L 678 0 
L 678 2700 
L 122 2700 
L 122 3500 
L 678 3500 
L 678 3744 
Q 678 4316 997 4589 
Q 1316 4863 1984 4863 
L 2841 4863 
z
" transform="scale(0.015625)"/>
      </defs>
      <use xlink:href="#DejaVuSans-Bold-6c"/>
      <use xlink:href="#DejaVuSans-Bold-69" transform="translate(34.277344 0)"/>
      <use xlink:href="#DejaVuSans-Bold-6e" transform="translate(68.554688 0)"/>
      <use xlink:href="#DejaVuSans-Bold-65" transform="translate(139.746094 0)"/>
      <use xlink:href="#DejaVuSans-Bold-61" transform="translate(207.568359 0)"/>
      <use xlink:href="#DejaVuSans-Bold-72" transform="translate(275.048828 0)"/>
      <use xlink:href="#DejaVuSans-Bold-3a" transform="translate(324.365234 0)"/>
      <use xlink:href="#DejaVuSans-Bold-3a" transform="translate(364.355469 0)"/>
      <use xlink:href="#DejaVuSans-Bold-6d" transform="translate(404.345703 0)"/>
      <use xlink:href="#DejaVuSans-Bold-61" transform="translate(508.544922 0)"/>
      <use xlink:href="#DejaVuSans-Bold-69" transform="translate(576.025391 0)"/>
      <use xlink:href="#DejaVuSans-Bold-6e" transform="translate(610.302734 0)"/>
      <use xlink:href="#DejaVuSans-Bold-3a" transform="translate(681.494141 0)"/>
      <use xlink:href="#DejaVuSans-Bold-3a" transform="translate(721.484375 0)"/>
      <use xlink:href="#DejaVuSans-Bold-68" transform="translate(761.474609 0)"/>
      <use xlink:href="#DejaVuSans-Bold-33" transform="translate(832.666016 0)"/>
      <use xlink:href="#DejaVuSans-Bold-66" transform="translate(902.246094 0)"/>
      <use xlink:href="#DejaVuSans-Bold-33" transform="translate(945.751953 0)"/>
      <use xlink:href="#DejaVuSans-Bold-35" transform="translate(1015.332031 0)"/>
      <use xlink:href="#DejaVuSans-Bold-32" transform="translate(1084.912109 0)"/>
      <use xlink:href="#DejaVuSans-Bold-34" transform="translate(1154.492188 0)"/>
      <use xlink:href="#DejaVuSans-Bold-38" transform="translate(1224.072266 0)"/>
      <use xlink:href="#DejaVuSans-Bold-63" transform="translate(1293.652344 0)"/>
      <use xlink:href="#DejaVuSans-Bold-65" transform="translate(1352.929688 0)"/>
      <use xlink:href="#DejaVuSans-Bold-38" transform="translate(1420.751953 0)"/>
      <use xlink:href="#DejaVuSans-Bold-32" transform="translate(1490.332031 0)"/>
      <use xlink:href="#DejaVuSans-Bold-63" transform="translate(1559.912109 0)"/>
      <use xlink:href="#DejaVuSans-Bold-32" transform="translate(1619.189453 0)"/>
      <use xlink:href="#DejaVuSans-Bold-65" transform="translate(1688.769531 0)"/>
      <use xlink:href="#DejaVuSans-Bold-30" transform="translate(1756.591797 0)"/>
      <use xlink:href="#DejaVuSans-Bold-30" transform="translate(1826.171875 0)"/>
     </g>
    </g>
   </g>
   <g id="text_4">
    <g clip-path="url(#pc0365f7cce)">
     <!-- linear::d::h4b2e9dbc46bae927 -->
     <g style="fill: #111111" transform="translate(31.305398 149.403185) scale(0.1 -0.1)">
      <use xlink:href="#DejaVuSans-Bold-6c"/>
      <use xlink:href="#DejaVuSans-Bold-69" transform="translate(34.277344 0)"/>
      <use xlink:href="#DejaVuSans-Bold-6e" transform="translate(68.554688 0)"/>
      <use xlink:href="#DejaVuSans-Bold-65" transform="translate(139.746094 0)"/>
      <use xlink:href="#DejaVuSans-Bold-61" transform="translate(207.568359 0)"/>
      <use xlink:href="#DejaVuSans-Bold-72" transform="translate(275.048828 0)"/>
      <use xlink:href="#DejaVuSans-Bold-3a" transform="translate(324.365234 0)"/>
      <use xlink:href="#DejaVuSans-Bold-3a" transform="translate(364.355469 0)"/>
      <use xlink:href="#DejaVuSans-Bold-64" transform="translate(404.345703 0)"/>
      <use xlink:href="#DejaVuSans-Bold-3a" transform="translate(475.927734 0)"/>
      <use xlink:href="#DejaVuSans-Bold-3a" transform="translate(515.917969 0)"/>
      <use xlink:href="#DejaVuSans-Bold-68" transform="translate(555.908203 0)"/>
      <use xlink:href="#DejaVuSans-Bold-34" transform="translate(627.099609 0)"/>
      <use xlink:href="#DejaVuSans-Bold-62" transform="translate(696.679688 0)"/>
      <use xlink:href="#DejaVuSans-Bold-32" transform="translate(768.261719 0)"/>
      <use xlink:href="#DejaVuSans-Bold-65" transform="translate(837.841797 0)"/>
      <use xlink:href="#DejaVuSans-Bold-39" transform="translate(905.664062 0)"/>
      <use xlink:href="#DejaVuSans-Bold-64" transform="translate(975.244141 0)"/>
      <use xlink:href="#DejaVuSans-Bold-62" transform="translate(1046.826172 0)"/>
      <use xlink:href="#DejaVuSans-Bold-63" transform="translate(1118.408203 0)"/>
      <use xlink:href="#DejaVuSans-Bold-34" transform="translate(1177.685547 0)"/>
      <use xlink:href="#DejaVuSans-Bold-36" transform="translate(1247.265625 0)"/>
      <use xlink:href="#DejaVuSans-Bold-62" transform="translate(1316.845703 0)"/>
      <use xlink:href="#DejaVuSans-Bold-61" transform="translate(1388.427734 0)"/>
      <use xlink:href="#DejaVuSans-Bold-65" transform="translate(1455.908203 0)"/>
      <use xlink:href="#DejaVuSans-Bold-39" transform="translate(1523.730469 0)"/>
      <use xlink:href="#DejaVuSans-Bold-32" transform="translate(1593.310547 0)"/>
      <use xlink:href="#DejaVuSans-Bold-37" transform="translate(1662.890625 0)"/>
     </g>
    </g>
   </g>
   <g id="text_5">
    <g clip-path="url(#pc0365f7cce)">
     <!-- linear::b::h2bdc5f06f7d73ab9 -->
     <g style="fill: #111111" transform="translate(1071.948361 723.911821) scale(0.1 -0.1)">
      <use xlink:href="#DejaVuSans-Bold-6c"/>
      <use xlink:href="#DejaVuSans-Bold-69" transform="translate(34.277344 0)"/>
      <use xlink:href="#DejaVuSans-Bold-6e" transform="translate(68.554688 0)"/>
      <use xlink:href="#DejaVuSans-Bold-65" transform="translate(139.746094 0)"/>
      <use xlink:href="#DejaVuSans-Bold-61" transform="translate(207.568359 0)"/>
      <use xlink:href="#DejaVuSans-Bold-72" transform="translate(275.048828 0)"/>
      <use xlink:href="#DejaVuSans-Bold-3a" transform="translate(324.365234 0)"/>
      <use xlink:href="#DejaVuSans-Bold-3a" transform="translate(364.355469 0)"/>
      <use xlink:href="#DejaVuSans-Bold-62" transform="translate(404.345703 0)"/>
      <use xlink:href="#DejaVuSans-Bold-3a" transform="translate(475.927734 0)"/>
      <use xlink:href="#DejaVuSans-Bold-3a" transform="translate(515.917969 0)"/>
      <use xlink:href="#DejaVuSans-Bold-68" transform="translate(555.908203 0)"/>
      <use xlink:href="#DejaVuSans-Bold-32" transform="translate(627.099609 0)"/>
      <use xlink:href="#DejaVuSans-Bold-62" transform="translate(696.679688 0)"/>
      <use xlink:href="#DejaVuSans-Bold-64" transform="translate(768.261719 0)"/>
      <use xlink:href="#DejaVuSans-Bold-63" transform="translate(839.84375 0)"/>
      <use xlink:href="#DejaVuSans-Bold-35" transform="translate(899.121094 0)"/>
      <use xlink:href="#DejaVuSans-Bold-66" transform="translate(968.701172 0)"/>
      <use xlink:href="#DejaVuSans-Bold-30" transform="translate(1012.207031 0)"/>
      <use xlink:href="#DejaVuSans-Bold-36" transform="translate(1081.787109 0)"/>
      <use xlink:href="#DejaVuSans-Bold-66" transform="translate(1151.367188 0)"/>
      <use xlink:href="#DejaVuSans-Bold-37" transform="translate(1194.873047 0)"/>
      <use xlink:href="#DejaVuSans-Bold-64" transform="translate(1264.453125 0)"/>
      <use xlink:href="#DejaVuSans-Bold-37" transform="translate(1336.035156 0)"/>
      <use xlink:href="#DejaVuSans-Bold-33" transform="translate(1405.615234 0)"/>
      <use xlink:href="#DejaVuSans-Bold-61" transform="translate(1475.195312 0)"/>
      <use xlink:href="#DejaVuSans-Bold-62" transform="translate(1542.675781 0)"/>
      <use xlink:href="#DejaVuSans-Bold-39" transform="translate(1614.257812 0)"/>
     </g>
    </g>
   </g>
   <g id="text_6">
    <!-- Filtered LLVM IR Call Graph (Assembly Cycles Estimated) -->
    <g transform="translate(418.71875 19.3575) scale(0.16 -0.16)">
     <defs>
      <path id="DejaVuSans-46" d="M 628 4666 
L 3309 4666 
L 3309 4134 
L 1259 4134 
L 1259 2759 
L 3109 2759 
L 3109 2228 
L 1259 2228 
L 1259 0 
L 628 0 
L 628 4666 
z
" transform="scale(0.015625)"/>
      <path id="DejaVuSans-69" d="M 603 3500 
L 1178 3500 
L 1178 0 
L 603 0 
L 603 3500 
z
M 603 4863 
L 1178 4863 
L 1178 4134 
L 603 4134 
L 603 4863 
z
" transform="scale(0.015625)"/>
      <path id="DejaVuSans-6c" d="M 603 4863 
L 1178 4863 
L 1178 0 
L 603 0 
L 603 4863 
z
" transform="scale(0.015625)"/>
      <path id="DejaVuSans-74" d="M 1172 4494 
L 1172 3500 
L 2356 3500 
L 2356 3053 
L 1172 3053 
L 1172 1153 
Q 1172 725 1289 603 
Q 1406 481 1766 481 
L 2356 481 
L 2356 0 
L 1766 0 
Q 1100 0 847 248 
Q 594 497 594 1153 
L 594 3053 
L 172 3053 
L 172 3500 
L 594 3500 
L 594 4494 
L 1172 4494 
z
" transform="scale(0.015625)"/>
      <path id="DejaVuSans-65" d="M 3597 1894 
L 3597 1613 
L 953 1613 
Q 991 1019 1311 708 
Q 1631 397 2203 397 
Q 2534 397 2845 478 
Q 3156 559 3463 722 
L 3463 178 
Q 3153 47 2828 -22 
Q 2503 -91 2169 -91 
Q 1331 -91 842 396 
Q 353 884 353 1716 
Q 353 2575 817 3079 
Q 1281 3584 2069 3584 
Q 2775 3584 3186 3129 
Q 3597 2675 3597 1894 
z
M 3022 2063 
Q 3016 2534 2758 2815 
Q 2500 3097 2075 3097 
Q 1594 3097 1305 2825 
Q 1016 2553 972 2059 
L 3022 2063 
z
" transform="scale(0.015625)"/>
      <path id="DejaVuSans-72" d="M 2631 2963 
Q 2534 3019 2420 3045 
Q 2306 3072 2169 3072 
Q 1681 3072 1420 2755 
Q 1159 2438 1159 1844 
L 1159 0 
L 581 0 
L 581 3500 
L 1159 3500 
L 1159 2956 
Q 1341 3275 1631 3429 
Q 1922 3584 2338 3584 
Q 2397 3584 2469 3576 
Q 2541 3569 2628 3553 
L 2631 2963 
z
" transform="scale(0.015625)"/>
      <path id="DejaVuSans-64" d="M 2906 2969 
L 2906 4863 
L 3481 4863 
L 3481 0 
L 2906 0 
L 2906 525 
Q 2725 213 2448 61 
Q 2172 -91 1784 -91 
Q 1150 -91 751 415 
Q 353 922 353 1747 
Q 353 2572 751 3078 
Q 1150 3584 1784 3584 
Q 2172 3584 2448 3432 
Q 2725 3281 2906 2969 
z
M 947 1747 
Q 947 1113 1208 752 
Q 1469 391 1925 391 
Q 2381 391 2643 752 
Q 2906 1113 2906 1747 
Q 2906 2381 2643 2742 
Q 2381 3103 1925 3103 
Q 1469 3103 1208 2742 
Q 947 2381 947 1747 
z
" transform="scale(0.015625)"/>
      <path id="DejaVuSans-20" transform="scale(0.015625)"/>
      <path id="DejaVuSans-4c" d="M 628 4666 
L 1259 4666 
L 1259 531 
L 3531 531 
L 3531 0 
L 628 0 
L 628 4666 
z
" transform="scale(0.015625)"/>
      <path id="DejaVuSans-56" d="M 1831 0 
L 50 4666 
L 709 4666 
L 2188 738 
L 3669 4666 
L 4325 4666 
L 2547 0 
L 1831 0 
z
" transform="scale(0.015625)"/>
      <path id="DejaVuSans-4d" d="M 628 4666 
L 1569 4666 
L 2759 1491 
L 3956 4666 
L 4897 4666 
L 4897 0 
L 4281 0 
L 4281 4097 
L 3078 897 
L 2444 897 
L 1241 4097 
L 1241 0 
L 628 0 
L 628 4666 
z
" transform="scale(0.015625)"/>
      <path id="DejaVuSans-49" d="M 628 4666 
L 1259 4666 
L 1259 0 
L 628 0 
L 628 4666 
z
" transform="scale(0.015625)"/>
      <path id="DejaVuSans-52" d="M 2841 2188 
Q 3044 2119 3236 1894 
Q 3428 1669 3622 1275 
L 4263 0 
L 3584 0 
L 2988 1197 
Q 2756 1666 2539 1819 
Q 2322 1972 1947 1972 
L 1259 1972 
L 1259 0 
L 628 0 
L 628 4666 
L 2053 4666 
Q 2853 4666 3247 4331 
Q 3641 3997 3641 3322 
Q 3641 2881 3436 2590 
Q 3231 2300 2841 2188 
z
M 1259 4147 
L 1259 2491 
L 2053 2491 
Q 2509 2491 2742 2702 
Q 2975 2913 2975 3322 
Q 2975 3731 2742 3939 
Q 2509 4147 2053 4147 
L 1259 4147 
z
" transform="scale(0.015625)"/>
      <path id="DejaVuSans-43" d="M 4122 4306 
L 4122 3641 
Q 3803 3938 3442 4084 
Q 3081 4231 2675 4231 
Q 1875 4231 1450 3742 
Q 1025 3253 1025 2328 
Q 1025 1406 1450 917 
Q 1875 428 2675 428 
Q 3081 428 3442 575 
Q 3803 722 4122 1019 
L 4122 359 
Q 3791 134 3420 21 
Q 3050 -91 2638 -91 
Q 1578 -91 968 557 
Q 359 1206 359 2328 
Q 359 3453 968 4101 
Q 1578 4750 2638 4750 
Q 3056 4750 3426 4639 
Q 3797 4528 4122 4306 
z
" transform="scale(0.015625)"/>
      <path id="DejaVuSans-61" d="M 2194 1759 
Q 1497 1759 1228 1600 
Q 959 1441 959 1056 
Q 959 750 1161 570 
Q 1363 391 1709 391 
Q 2188 391 2477 730 
Q 2766 1069 2766 1631 
L 2766 1759 
L 2194 1759 
z
M 3341 1997 
L 3341 0 
L 2766 0 
L 2766 531 
Q 2569 213 2275 61 
Q 1981 -91 1556 -91 
Q 1019 -91 701 211 
Q 384 513 384 1019 
Q 384 1609 779 1909 
Q 1175 2209 1959 2209 
L 2766 2209 
L 2766 2266 
Q 2766 2663 2505 2880 
Q 2244 3097 1772 3097 
Q 1472 3097 1187 3025 
Q 903 2953 641 2809 
L 641 3341 
Q 956 3463 1253 3523 
Q 1550 3584 1831 3584 
Q 2591 3584 2966 3190 
Q 3341 2797 3341 1997 
z
" transform="scale(0.015625)"/>
      <path id="DejaVuSans-47" d="M 3809 666 
L 3809 1919 
L 2778 1919 
L 2778 2438 
L 4434 2438 
L 4434 434 
Q 4069 175 3628 42 
Q 3188 -91 2688 -91 
Q 1594 -91 976 548 
Q 359 1188 359 2328 
Q 359 3472 976 4111 
Q 1594 4750 2688 4750 
Q 3144 4750 3555 4637 
Q 3966 4525 4313 4306 
L 4313 3634 
Q 3963 3931 3569 4081 
Q 3175 4231 2741 4231 
Q 1884 4231 1454 3753 
Q 1025 3275 1025 2328 
Q 1025 1384 1454 906 
Q 1884 428 2741 428 
Q 3075 428 3337 486 
Q 3600 544 3809 666 
z
" transform="scale(0.015625)"/>
      <path id="DejaVuSans-70" d="M 1159 525 
L 1159 -1331 
L 581 -1331 
L 581 3500 
L 1159 3500 
L 1159 2969 
Q 1341 3281 1617 3432 
Q 1894 3584 2278 3584 
Q 2916 3584 3314 3078 
Q 3713 2572 3713 1747 
Q 3713 922 3314 415 
Q 2916 -91 2278 -91 
Q 1894 -91 1617 61 
Q 1341 213 1159 525 
z
M 3116 1747 
Q 3116 2381 2855 2742 
Q 2594 3103 2138 3103 
Q 1681 3103 1420 2742 
Q 1159 2381 1159 1747 
Q 1159 1113 1420 752 
Q 1681 391 2138 391 
Q 2594 391 2855 752 
Q 3116 1113 3116 1747 
z
" transform="scale(0.015625)"/>
      <path id="DejaVuSans-68" d="M 3513 2113 
L 3513 0 
L 2938 0 
L 2938 2094 
Q 2938 2591 2744 2837 
Q 2550 3084 2163 3084 
Q 1697 3084 1428 2787 
Q 1159 2491 1159 1978 
L 1159 0 
L 581 0 
L 581 4863 
L 1159 4863 
L 1159 2956 
Q 1366 3272 1645 3428 
Q 1925 3584 2291 3584 
Q 2894 3584 3203 3211 
Q 3513 2838 3513 2113 
z
" transform="scale(0.015625)"/>
      <path id="DejaVuSans-28" d="M 1984 4856 
Q 1566 4138 1362 3434 
Q 1159 2731 1159 2009 
Q 1159 1288 1364 580 
Q 1569 -128 1984 -844 
L 1484 -844 
Q 1016 -109 783 600 
Q 550 1309 550 2009 
Q 550 2706 781 3412 
Q 1013 4119 1484 4856 
L 1984 4856 
z
" transform="scale(0.015625)"/>
      <path id="DejaVuSans-41" d="M 2188 4044 
L 1331 1722 
L 3047 1722 
L 2188 4044 
z
M 1831 4666 
L 2547 4666 
L 4325 0 
L 3669 0 
L 3244 1197 
L 1141 1197 
L 716 0 
L 50 0 
L 1831 4666 
z
" transform="scale(0.015625)"/>
      <path id="DejaVuSans-73" d="M 2834 3397 
L 2834 2853 
Q 2591 2978 2328 3040 
Q 2066 3103 1784 3103 
Q 1356 3103 1142 2972 
Q 928 2841 928 2578 
Q 928 2378 1081 2264 
Q 1234 2150 1697 2047 
L 1894 2003 
Q 2506 1872 2764 1633 
Q 3022 1394 3022 966 
Q 3022 478 2636 193 
Q 2250 -91 1575 -91 
Q 1294 -91 989 -36 
Q 684 19 347 128 
L 347 722 
Q 666 556 975 473 
Q 1284 391 1588 391 
Q 1994 391 2212 530 
Q 2431 669 2431 922 
Q 2431 1156 2273 1281 
Q 2116 1406 1581 1522 
L 1381 1569 
Q 847 1681 609 1914 
Q 372 2147 372 2553 
Q 372 3047 722 3315 
Q 1072 3584 1716 3584 
Q 2034 3584 2315 3537 
Q 2597 3491 2834 3397 
z
" transform="scale(0.015625)"/>
      <path id="DejaVuSans-6d" d="M 3328 2828 
Q 3544 3216 3844 3400 
Q 4144 3584 4550 3584 
Q 5097 3584 5394 3201 
Q 5691 2819 5691 2113 
L 5691 0 
L 5113 0 
L 5113 2094 
Q 5113 2597 4934 2840 
Q 4756 3084 4391 3084 
Q 3944 3084 3684 2787 
Q 3425 2491 3425 1978 
L 3425 0 
L 2847 0 
L 2847 2094 
Q 2847 2600 2669 2842 
Q 2491 3084 2119 3084 
Q 1678 3084 1418 2786 
Q 1159 2488 1159 1978 
L 1159 0 
L 581 0 
L 581 3500 
L 1159 3500 
L 1159 2956 
Q 1356 3278 1631 3431 
Q 1906 3584 2284 3584 
Q 2666 3584 2933 3390 
Q 3200 3197 3328 2828 
z
" transform="scale(0.015625)"/>
      <path id="DejaVuSans-62" d="M 3116 1747 
Q 3116 2381 2855 2742 
Q 2594 3103 2138 3103 
Q 1681 3103 1420 2742 
Q 1159 2381 1159 1747 
Q 1159 1113 1420 752 
Q 1681 391 2138 391 
Q 2594 391 2855 752 
Q 3116 1113 3116 1747 
z
M 1159 2969 
Q 1341 3281 1617 3432 
Q 1894 3584 2278 3584 
Q 2916 3584 3314 3078 
Q 3713 2572 3713 1747 
Q 3713 922 3314 415 
Q 2916 -91 2278 -91 
Q 1894 -91 1617 61 
Q 1341 213 1159 525 
L 1159 0 
L 581 0 
L 581 4863 
L 1159 4863 
L 1159 2969 
z
" transform="scale(0.015625)"/>
      <path id="DejaVuSans-79" d="M 2059 -325 
Q 1816 -950 1584 -1140 
Q 1353 -1331 966 -1331 
L 506 -1331 
L 506 -850 
L 844 -850 
Q 1081 -850 1212 -737 
Q 1344 -625 1503 -206 
L 1606 56 
L 191 3500 
L 800 3500 
L 1894 763 
L 2988 3500 
L 3597 3500 
L 2059 -325 
z
" transform="scale(0.015625)"/>
      <path id="DejaVuSans-63" d="M 3122 3366 
L 3122 2828 
Q 2878 2963 2633 3030 
Q 2388 3097 2138 3097 
Q 1578 3097 1268 2742 
Q 959 2388 959 1747 
Q 959 1106 1268 751 
Q 1578 397 2138 397 
Q 2388 397 2633 464 
Q 2878 531 3122 666 
L 3122 134 
Q 2881 22 2623 -34 
Q 2366 -91 2075 -91 
Q 1284 -91 818 406 
Q 353 903 353 1747 
Q 353 2603 823 3093 
Q 1294 3584 2113 3584 
Q 2378 3584 2631 3529 
Q 2884 3475 3122 3366 
z
" transform="scale(0.015625)"/>
      <path id="DejaVuSans-45" d="M 628 4666 
L 3578 4666 
L 3578 4134 
L 1259 4134 
L 1259 2753 
L 3481 2753 
L 3481 2222 
L 1259 2222 
L 1259 531 
L 3634 531 
L 3634 0 
L 628 0 
L 628 4666 
z
" transform="scale(0.015625)"/>
      <path id="DejaVuSans-29" d="M 513 4856 
L 1013 4856 
Q 1481 4119 1714 3412 
Q 1947 2706 1947 2009 
Q 1947 1309 1714 600 
Q 1481 -109 1013 -844 
L 513 -844 
Q 928 -128 1133 580 
Q 1338 1288 1338 2009 
Q 1338 2731 1133 3434 
Q 928 4138 513 4856 
z
" transform="scale(0.015625)"/>
     </defs>
     <use xlink:href="#DejaVuSans-46"/>
     <use xlink:href="#DejaVuSans-69" transform="translate(50.269531 0)"/>
     <use xlink:href="#DejaVuSans-6c" transform="translate(78.052734 0)"/>
     <use xlink:href="#DejaVuSans-74" transform="translate(105.835938 0)"/>
     <use xlink:href="#DejaVuSans-65" transform="translate(145.044922 0)"/>
     <use xlink:href="#DejaVuSans-72" transform="translate(206.568359 0)"/>
     <use xlink:href="#DejaVuSans-65" transform="translate(245.431641 0)"/>
     <use xlink:href="#DejaVuSans-64" transform="translate(306.955078 0)"/>
     <use xlink:href="#DejaVuSans-20" transform="translate(370.431641 0)"/>
     <use xlink:href="#DejaVuSans-4c" transform="translate(402.21875 0)"/>
     <use xlink:href="#DejaVuSans-4c" transform="translate(457.931641 0)"/>
     <use xlink:href="#DejaVuSans-56" transform="translate(502.644531 0)"/>
     <use xlink:href="#DejaVuSans-4d" transform="translate(571.052734 0)"/>
     <use xlink:href="#DejaVuSans-20" transform="translate(657.332031 0)"/>
     <use xlink:href="#DejaVuSans-49" transform="translate(689.119141 0)"/>
     <use xlink:href="#DejaVuSans-52" transform="translate(718.611328 0)"/>
     <use xlink:href="#DejaVuSans-20" transform="translate(788.09375 0)"/>
     <use xlink:href="#DejaVuSans-43" transform="translate(819.880859 0)"/>
     <use xlink:href="#DejaVuSans-61" transform="translate(889.705078 0)"/>
     <use xlink:href="#DejaVuSans-6c" transform="translate(950.984375 0)"/>
     <use xlink:href="#DejaVuSans-6c" transform="translate(978.767578 0)"/>
     <use xlink:href="#DejaVuSans-20" transform="translate(1006.550781 0)"/>
     <use xlink:href="#DejaVuSans-47" transform="translate(1038.337891 0)"/>
     <use xlink:href="#DejaVuSans-72" transform="translate(1115.828125 0)"/>
     <use xlink:href="#DejaVuSans-61" transform="translate(1156.941406 0)"/>
     <use xlink:href="#DejaVuSans-70" transform="translate(1218.220703 0)"/>
     <use xlink:href="#DejaVuSans-68" transform="translate(1281.697266 0)"/>
     <use xlink:href="#DejaVuSans-20" transform="translate(1345.076172 0)"/>
     <use xlink:href="#DejaVuSans-28" transform="translate(1376.863281 0)"/>
     <use xlink:href="#DejaVuSans-41" transform="translate(1415.876953 0)"/>
     <use xlink:href="#DejaVuSans-73" transform="translate(1484.285156 0)"/>
     <use xlink:href="#DejaVuSans-73" transform="translate(1536.384766 0)"/>
     <use xlink:href="#DejaVuSans-65" transform="translate(1588.484375 0)"/>
     <use xlink:href="#DejaVuSans-6d" transform="translate(1650.007812 0)"/>
     <use xlink:href="#DejaVuSans-62" transform="translate(1747.419922 0)"/>
     <use xlink:href="#DejaVuSans-6c" transform="translate(1810.896484 0)"/>
     <use xlink:href="#DejaVuSans-79" transform="translate(1838.679688 0)"/>
     <use xlink:href="#DejaVuSans-20" transform="translate(1897.859375 0)"/>
     <use xlink:href="#DejaVuSans-43" transform="translate(1929.646484 0)"/>
     <use xlink:href="#DejaVuSans-79" transform="translate(1999.470703 0)"/>
     <use xlink:href="#DejaVuSans-63" transform="translate(2058.650391 0)"/>
     <use xlink:href="#DejaVuSans-6c" transform="translate(2113.630859 0)"/>
     <use xlink:href="#DejaVuSans-65" transform="translate(2141.414062 0)"/>
     <use xlink:href="#DejaVuSans-73" transform="translate(2202.9375 0)"/>
     <use xlink:href="#DejaVuSans-20" transform="translate(2255.037109 0)"/>
     <use xlink:href="#DejaVuSans-45" transform="translate(2286.824219 0)"/>
     <use xlink:href="#DejaVuSans-73" transform="translate(2350.007812 0)"/>
     <use xlink:href="#DejaVuSans-74" transform="translate(2402.107422 0)"/>
     <use xlink:href="#DejaVuSans-69" transform="translate(2441.316406 0)"/>
     <use xlink:href="#DejaVuSans-6d" transform="translate(2469.099609 0)"/>
     <use xlink:href="#DejaVuSans-61" transform="translate(2566.511719 0)"/>
     <use xlink:href="#DejaVuSans-74" transform="translate(2627.791016 0)"/>
     <use xlink:href="#DejaVuSans-65" transform="translate(2667 0)"/>
     <use xlink:href="#DejaVuSans-64" transform="translate(2728.523438 0)"/>
     <use xlink:href="#DejaVuSans-29" transform="translate(2792 0)"/>
    </g>
    <!-- Source LLVM: linear.filtered.ll -->
    <g transform="translate(529.6775 37.274) scale(0.16 -0.16)">
     <defs>
      <path id="DejaVuSans-53" d="M 3425 4513 
L 3425 3897 
Q 3066 4069 2747 4153 
Q 2428 4238 2131 4238 
Q 1616 4238 1336 4038 
Q 1056 3838 1056 3469 
Q 1056 3159 1242 3001 
Q 1428 2844 1947 2747 
L 2328 2669 
Q 3034 2534 3370 2195 
Q 3706 1856 3706 1288 
Q 3706 609 3251 259 
Q 2797 -91 1919 -91 
Q 1588 -91 1214 -16 
Q 841 59 441 206 
L 441 856 
Q 825 641 1194 531 
Q 1563 422 1919 422 
Q 2459 422 2753 634 
Q 3047 847 3047 1241 
Q 3047 1584 2836 1778 
Q 2625 1972 2144 2069 
L 1759 2144 
Q 1053 2284 737 2584 
Q 422 2884 422 3419 
Q 422 4038 858 4394 
Q 1294 4750 2059 4750 
Q 2388 4750 2728 4690 
Q 3069 4631 3425 4513 
z
" transform="scale(0.015625)"/>
      <path id="DejaVuSans-6f" d="M 1959 3097 
Q 1497 3097 1228 2736 
Q 959 2375 959 1747 
Q 959 1119 1226 758 
Q 1494 397 1959 397 
Q 2419 397 2687 759 
Q 2956 1122 2956 1747 
Q 2956 2369 2687 2733 
Q 2419 3097 1959 3097 
z
M 1959 3584 
Q 2709 3584 3137 3096 
Q 3566 2609 3566 1747 
Q 3566 888 3137 398 
Q 2709 -91 1959 -91 
Q 1206 -91 779 398 
Q 353 888 353 1747 
Q 353 2609 779 3096 
Q 1206 3584 1959 3584 
z
" transform="scale(0.015625)"/>
      <path id="DejaVuSans-75" d="M 544 1381 
L 544 3500 
L 1119 3500 
L 1119 1403 
Q 1119 906 1312 657 
Q 1506 409 1894 409 
Q 2359 409 2629 706 
Q 2900 1003 2900 1516 
L 2900 3500 
L 3475 3500 
L 3475 0 
L 2900 0 
L 2900 538 
Q 2691 219 2414 64 
Q 2138 -91 1772 -91 
Q 1169 -91 856 284 
Q 544 659 544 1381 
z
M 1991 3584 
L 1991 3584 
z
" transform="scale(0.015625)"/>
      <path id="DejaVuSans-3a" d="M 750 794 
L 1409 794 
L 1409 0 
L 750 0 
L 750 794 
z
M 750 3309 
L 1409 3309 
L 1409 2516 
L 750 2516 
L 750 3309 
z
" transform="scale(0.015625)"/>
      <path id="DejaVuSans-6e" d="M 3513 2113 
L 3513 0 
L 2938 0 
L 2938 2094 
Q 2938 2591 2744 2837 
Q 2550 3084 2163 3084 
Q 1697 3084 1428 2787 
Q 1159 2491 1159 1978 
L 1159 0 
L 581 0 
L 581 3500 
L 1159 3500 
L 1159 2956 
Q 1366 3272 1645 3428 
Q 1925 3584 2291 3584 
Q 2894 3584 3203 3211 
Q 3513 2838 3513 2113 
z
" transform="scale(0.015625)"/>
      <path id="DejaVuSans-2e" d="M 684 794 
L 1344 794 
L 1344 0 
L 684 0 
L 684 794 
z
" transform="scale(0.015625)"/>
      <path id="DejaVuSans-66" d="M 2375 4863 
L 2375 4384 
L 1825 4384 
Q 1516 4384 1395 4259 
Q 1275 4134 1275 3809 
L 1275 3500 
L 2222 3500 
L 2222 3053 
L 1275 3053 
L 1275 0 
L 697 0 
L 697 3053 
L 147 3053 
L 147 3500 
L 697 3500 
L 697 3744 
Q 697 4328 969 4595 
Q 1241 4863 1831 4863 
L 2375 4863 
z
" transform="scale(0.015625)"/>
     </defs>
     <use xlink:href="#DejaVuSans-53"/>
     <use xlink:href="#DejaVuSans-6f" transform="translate(63.476562 0)"/>
     <use xlink:href="#DejaVuSans-75" transform="translate(124.658203 0)"/>
     <use xlink:href="#DejaVuSans-72" transform="translate(188.037109 0)"/>
     <use xlink:href="#DejaVuSans-63" transform="translate(226.900391 0)"/>
     <use xlink:href="#DejaVuSans-65" transform="translate(281.880859 0)"/>
     <use xlink:href="#DejaVuSans-20" transform="translate(343.404297 0)"/>
     <use xlink:href="#DejaVuSans-4c" transform="translate(375.191406 0)"/>
     <use xlink:href="#DejaVuSans-4c" transform="translate(430.904297 0)"/>
     <use xlink:href="#DejaVuSans-56" transform="translate(475.617188 0)"/>
     <use xlink:href="#DejaVuSans-4d" transform="translate(544.025391 0)"/>
     <use xlink:href="#DejaVuSans-3a" transform="translate(630.304688 0)"/>
     <use xlink:href="#DejaVuSans-20" transform="translate(663.996094 0)"/>
     <use xlink:href="#DejaVuSans-6c" transform="translate(695.783203 0)"/>
     <use xlink:href="#DejaVuSans-69" transform="translate(723.566406 0)"/>
     <use xlink:href="#DejaVuSans-6e" transform="translate(751.349609 0)"/>
     <use xlink:href="#DejaVuSans-65" transform="translate(814.728516 0)"/>
     <use xlink:href="#DejaVuSans-61" transform="translate(876.251953 0)"/>
     <use xlink:href="#DejaVuSans-72" transform="translate(937.53125 0)"/>
     <use xlink:href="#DejaVuSans-2e" transform="translate(969.519531 0)"/>
     <use xlink:href="#DejaVuSans-66" transform="translate(1001.306641 0)"/>
     <use xlink:href="#DejaVuSans-69" transform="translate(1036.511719 0)"/>
     <use xlink:href="#DejaVuSans-6c" transform="translate(1064.294922 0)"/>
     <use xlink:href="#DejaVuSans-74" transform="translate(1092.078125 0)"/>
     <use xlink:href="#DejaVuSans-65" transform="translate(1131.287109 0)"/>
     <use xlink:href="#DejaVuSans-72" transform="translate(1192.810547 0)"/>
     <use xlink:href="#DejaVuSans-65" transform="translate(1231.673828 0)"/>
     <use xlink:href="#DejaVuSans-64" transform="translate(1293.197266 0)"/>
     <use xlink:href="#DejaVuSans-2e" transform="translate(1356.673828 0)"/>
     <use xlink:href="#DejaVuSans-6c" transform="translate(1388.460938 0)"/>
     <use xlink:href="#DejaVuSans-6c" transform="translate(1416.244141 0)"/>
    </g>
   </g>
   <g id="text_7">
    <g id="patch_6">
     <path d="M 1131.275227 428.762716 
L 1213.670227 428.762716 
Q 1215.470227 428.762716 1215.470227 426.962716 
L 1215.470227 418.252403 
Q 1215.470227 416.452403 1213.670227 416.452403 
L 1131.275227 416.452403 
Q 1129.475227 416.452403 1129.475227 418.252403 
L 1129.475227 426.962716 
Q 1129.475227 428.762716 1131.275227 428.762716 
z
" style="fill: #ffffff; opacity: 0.85; stroke: #aaaaaa; stroke-linejoin: miter"/>
    </g>
    <!-- ASM Cycles: ~114 -->
    <g style="fill: #0000cc" transform="translate(1131.275227 425.090997) scale(0.09 -0.09)">
     <defs>
      <path id="DejaVuSans-7e" d="M 4684 2553 
L 4684 1997 
Q 4356 1750 4076 1644 
Q 3797 1538 3494 1538 
Q 3150 1538 2694 1722 
Q 2659 1734 2644 1741 
Q 2622 1750 2575 1766 
Q 2091 1959 1797 1959 
Q 1522 1959 1253 1839 
Q 984 1719 678 1459 
L 678 2016 
Q 1006 2263 1286 2370 
Q 1566 2478 1869 2478 
Q 2213 2478 2672 2291 
Q 2703 2278 2719 2272 
Q 2744 2263 2788 2247 
Q 3272 2053 3566 2053 
Q 3834 2053 4098 2172 
Q 4363 2291 4684 2553 
z
" transform="scale(0.015625)"/>
      <path id="DejaVuSans-31" d="M 794 531 
L 1825 531 
L 1825 4091 
L 703 3866 
L 703 4441 
L 1819 4666 
L 2450 4666 
L 2450 531 
L 3481 531 
L 3481 0 
L 794 0 
L 794 531 
z
" transform="scale(0.015625)"/>
      <path id="DejaVuSans-34" d="M 2419 4116 
L 825 1625 
L 2419 1625 
L 2419 4116 
z
M 2253 4666 
L 3047 4666 
L 3047 1625 
L 3713 1625 
L 3713 1100 
L 3047 1100 
L 3047 0 
L 2419 0 
L 2419 1100 
L 313 1100 
L 313 1709 
L 2253 4666 
z
" transform="scale(0.015625)"/>
     </defs>
     <use xlink:href="#DejaVuSans-41"/>
     <use xlink:href="#DejaVuSans-53" transform="translate(68.408203 0)"/>
     <use xlink:href="#DejaVuSans-4d" transform="translate(131.884766 0)"/>
     <use xlink:href="#DejaVuSans-20" transform="translate(218.164062 0)"/>
     <use xlink:href="#DejaVuSans-43" transform="translate(249.951172 0)"/>
     <use xlink:href="#DejaVuSans-79" transform="translate(319.775391 0)"/>
     <use xlink:href="#DejaVuSans-63" transform="translate(378.955078 0)"/>
     <use xlink:href="#DejaVuSans-6c" transform="translate(433.935547 0)"/>
     <use xlink:href="#DejaVuSans-65" transform="translate(461.71875 0)"/>
     <use xlink:href="#DejaVuSans-73" transform="translate(523.242188 0)"/>
     <use xlink:href="#DejaVuSans-3a" transform="translate(575.341797 0)"/>
     <use xlink:href="#DejaVuSans-20" transform="translate(609.033203 0)"/>
     <use xlink:href="#DejaVuSans-7e" transform="translate(640.820312 0)"/>
     <use xlink:href="#DejaVuSans-31" transform="translate(724.609375 0)"/>
     <use xlink:href="#DejaVuSans-31" transform="translate(788.232422 0)"/>
     <use xlink:href="#DejaVuSans-34" transform="translate(851.855469 0)"/>
    </g>
   </g>
   <g id="text_8">
    <g id="patch_7">
     <path d="M 1010.555409 1036.229927 
L 1087.224159 1036.229927 
Q 1089.024159 1036.229927 1089.024159 1034.429927 
L 1089.024159 1025.719615 
Q 1089.024159 1023.919615 1087.224159 1023.919615 
L 1010.555409 1023.919615 
Q 1008.755409 1023.919615 1008.755409 1025.719615 
L 1008.755409 1034.429927 
Q 1008.755409 1036.229927 1010.555409 1036.229927 
z
" style="fill: #ffffff; opacity: 0.85; stroke: #aaaaaa; stroke-linejoin: miter"/>
    </g>
    <!-- ASM Cycles: ~36 -->
    <g style="fill: #0000cc" transform="translate(1010.555409 1032.558209) scale(0.09 -0.09)">
     <defs>
      <path id="DejaVuSans-33" d="M 2597 2516 
Q 3050 2419 3304 2112 
Q 3559 1806 3559 1356 
Q 3559 666 3084 287 
Q 2609 -91 1734 -91 
Q 1441 -91 1130 -33 
Q 819 25 488 141 
L 488 750 
Q 750 597 1062 519 
Q 1375 441 1716 441 
Q 2309 441 2620 675 
Q 2931 909 2931 1356 
Q 2931 1769 2642 2001 
Q 2353 2234 1838 2234 
L 1294 2234 
L 1294 2753 
L 1863 2753 
Q 2328 2753 2575 2939 
Q 2822 3125 2822 3475 
Q 2822 3834 2567 4026 
Q 2313 4219 1838 4219 
Q 1578 4219 1281 4162 
Q 984 4106 628 3988 
L 628 4550 
Q 988 4650 1302 4700 
Q 1616 4750 1894 4750 
Q 2613 4750 3031 4423 
Q 3450 4097 3450 3541 
Q 3450 3153 3228 2886 
Q 3006 2619 2597 2516 
z
" transform="scale(0.015625)"/>
      <path id="DejaVuSans-36" d="M 2113 2584 
Q 1688 2584 1439 2293 
Q 1191 2003 1191 1497 
Q 1191 994 1439 701 
Q 1688 409 2113 409 
Q 2538 409 2786 701 
Q 3034 994 3034 1497 
Q 3034 2003 2786 2293 
Q 2538 2584 2113 2584 
z
M 3366 4563 
L 3366 3988 
Q 3128 4100 2886 4159 
Q 2644 4219 2406 4219 
Q 1781 4219 1451 3797 
Q 1122 3375 1075 2522 
Q 1259 2794 1537 2939 
Q 1816 3084 2150 3084 
Q 2853 3084 3261 2657 
Q 3669 2231 3669 1497 
Q 3669 778 3244 343 
Q 2819 -91 2113 -91 
Q 1303 -91 875 529 
Q 447 1150 447 2328 
Q 447 3434 972 4092 
Q 1497 4750 2381 4750 
Q 2619 4750 2861 4703 
Q 3103 4656 3366 4563 
z
" transform="scale(0.015625)"/>
     </defs>
     <use xlink:href="#DejaVuSans-41"/>
     <use xlink:href="#DejaVuSans-53" transform="translate(68.408203 0)"/>
     <use xlink:href="#DejaVuSans-4d" transform="translate(131.884766 0)"/>
     <use xlink:href="#DejaVuSans-20" transform="translate(218.164062 0)"/>
     <use xlink:href="#DejaVuSans-43" transform="translate(249.951172 0)"/>
     <use xlink:href="#DejaVuSans-79" transform="translate(319.775391 0)"/>
     <use xlink:href="#DejaVuSans-63" transform="translate(378.955078 0)"/>
     <use xlink:href="#DejaVuSans-6c" transform="translate(433.935547 0)"/>
     <use xlink:href="#DejaVuSans-65" transform="translate(461.71875 0)"/>
     <use xlink:href="#DejaVuSans-73" transform="translate(523.242188 0)"/>
     <use xlink:href="#DejaVuSans-3a" transform="translate(575.341797 0)"/>
     <use xlink:href="#DejaVuSans-20" transform="translate(609.033203 0)"/>
     <use xlink:href="#DejaVuSans-7e" transform="translate(640.820312 0)"/>
     <use xlink:href="#DejaVuSans-33" transform="translate(724.609375 0)"/>
     <use xlink:href="#DejaVuSans-36" transform="translate(788.232422 0)"/>
    </g>
   </g>
   <g id="text_9">
    <g id="patch_8">
     <path d="M 602.429647 301.645254 
L 679.098397 301.645254 
Q 680.898397 301.645254 680.898397 299.845254 
L 680.898397 291.134941 
Q 680.898397 289.334941 679.098397 289.334941 
L 602.429647 289.334941 
Q 600.629647 289.334941 600.629647 291.134941 
L 600.629647 299.845254 
Q 600.629647 301.645254 602.429647 301.645254 
z
" style="fill: #ffffff; opacity: 0.85; stroke: #aaaaaa; stroke-linejoin: miter"/>
    </g>
    <!-- ASM Cycles: ~82 -->
    <g style="fill: #0000cc" transform="translate(602.429647 297.973535) scale(0.09 -0.09)">
     <defs>
      <path id="DejaVuSans-38" d="M 2034 2216 
Q 1584 2216 1326 1975 
Q 1069 1734 1069 1313 
Q 1069 891 1326 650 
Q 1584 409 2034 409 
Q 2484 409 2743 651 
Q 3003 894 3003 1313 
Q 3003 1734 2745 1975 
Q 2488 2216 2034 2216 
z
M 1403 2484 
Q 997 2584 770 2862 
Q 544 3141 544 3541 
Q 544 4100 942 4425 
Q 1341 4750 2034 4750 
Q 2731 4750 3128 4425 
Q 3525 4100 3525 3541 
Q 3525 3141 3298 2862 
Q 3072 2584 2669 2484 
Q 3125 2378 3379 2068 
Q 3634 1759 3634 1313 
Q 3634 634 3220 271 
Q 2806 -91 2034 -91 
Q 1263 -91 848 271 
Q 434 634 434 1313 
Q 434 1759 690 2068 
Q 947 2378 1403 2484 
z
M 1172 3481 
Q 1172 3119 1398 2916 
Q 1625 2713 2034 2713 
Q 2441 2713 2670 2916 
Q 2900 3119 2900 3481 
Q 2900 3844 2670 4047 
Q 2441 4250 2034 4250 
Q 1625 4250 1398 4047 
Q 1172 3844 1172 3481 
z
" transform="scale(0.015625)"/>
      <path id="DejaVuSans-32" d="M 1228 531 
L 3431 531 
L 3431 0 
L 469 0 
L 469 531 
Q 828 903 1448 1529 
Q 2069 2156 2228 2338 
Q 2531 2678 2651 2914 
Q 2772 3150 2772 3378 
Q 2772 3750 2511 3984 
Q 2250 4219 1831 4219 
Q 1534 4219 1204 4116 
Q 875 4013 500 3803 
L 500 4441 
Q 881 4594 1212 4672 
Q 1544 4750 1819 4750 
Q 2544 4750 2975 4387 
Q 3406 4025 3406 3419 
Q 3406 3131 3298 2873 
Q 3191 2616 2906 2266 
Q 2828 2175 2409 1742 
Q 1991 1309 1228 531 
z
" transform="scale(0.015625)"/>
     </defs>
     <use xlink:href="#DejaVuSans-41"/>
     <use xlink:href="#DejaVuSans-53" transform="translate(68.408203 0)"/>
     <use xlink:href="#DejaVuSans-4d" transform="translate(131.884766 0)"/>
     <use xlink:href="#DejaVuSans-20" transform="translate(218.164062 0)"/>
     <use xlink:href="#DejaVuSans-43" transform="translate(249.951172 0)"/>
     <use xlink:href="#DejaVuSans-79" transform="translate(319.775391 0)"/>
     <use xlink:href="#DejaVuSans-63" transform="translate(378.955078 0)"/>
     <use xlink:href="#DejaVuSans-6c" transform="translate(433.935547 0)"/>
     <use xlink:href="#DejaVuSans-65" transform="translate(461.71875 0)"/>
     <use xlink:href="#DejaVuSans-73" transform="translate(523.242188 0)"/>
     <use xlink:href="#DejaVuSans-3a" transform="translate(575.341797 0)"/>
     <use xlink:href="#DejaVuSans-20" transform="translate(609.033203 0)"/>
     <use xlink:href="#DejaVuSans-7e" transform="translate(640.820312 0)"/>
     <use xlink:href="#DejaVuSans-38" transform="translate(724.609375 0)"/>
     <use xlink:href="#DejaVuSans-32" transform="translate(788.232422 0)"/>
    </g>
   </g>
   <g id="text_10">
    <g id="patch_9">
     <path d="M 79.592898 202.153729 
L 156.261648 202.153729 
Q 158.061648 202.153729 158.061648 200.353729 
L 158.061648 191.643417 
Q 158.061648 189.843417 156.261648 189.843417 
L 79.592898 189.843417 
Q 77.792898 189.843417 77.792898 191.643417 
L 77.792898 200.353729 
Q 77.792898 202.153729 79.592898 202.153729 
z
" style="fill: #ffffff; opacity: 0.85; stroke: #aaaaaa; stroke-linejoin: miter"/>
    </g>
    <!-- ASM Cycles: ~36 -->
    <g style="fill: #0000cc" transform="translate(79.592898 198.48201) scale(0.09 -0.09)">
     <use xlink:href="#DejaVuSans-41"/>
     <use xlink:href="#DejaVuSans-53" transform="translate(68.408203 0)"/>
     <use xlink:href="#DejaVuSans-4d" transform="translate(131.884766 0)"/>
     <use xlink:href="#DejaVuSans-20" transform="translate(218.164062 0)"/>
     <use xlink:href="#DejaVuSans-43" transform="translate(249.951172 0)"/>
     <use xlink:href="#DejaVuSans-79" transform="translate(319.775391 0)"/>
     <use xlink:href="#DejaVuSans-63" transform="translate(378.955078 0)"/>
     <use xlink:href="#DejaVuSans-6c" transform="translate(433.935547 0)"/>
     <use xlink:href="#DejaVuSans-65" transform="translate(461.71875 0)"/>
     <use xlink:href="#DejaVuSans-73" transform="translate(523.242188 0)"/>
     <use xlink:href="#DejaVuSans-3a" transform="translate(575.341797 0)"/>
     <use xlink:href="#DejaVuSans-20" transform="translate(609.033203 0)"/>
     <use xlink:href="#DejaVuSans-7e" transform="translate(640.820312 0)"/>
     <use xlink:href="#DejaVuSans-33" transform="translate(724.609375 0)"/>
     <use xlink:href="#DejaVuSans-36" transform="translate(788.232422 0)"/>
    </g>
   </g>
   <g id="text_11">
    <g id="patch_10">
     <path d="M 1117.803049 776.662365 
L 1194.471799 776.662365 
Q 1196.271799 776.662365 1196.271799 774.862365 
L 1196.271799 766.152053 
Q 1196.271799 764.352053 1194.471799 764.352053 
L 1117.803049 764.352053 
Q 1116.003049 764.352053 1116.003049 766.152053 
L 1116.003049 774.862365 
Q 1116.003049 776.662365 1117.803049 776.662365 
z
" style="fill: #ffffff; opacity: 0.85; stroke: #aaaaaa; stroke-linejoin: miter"/>
    </g>
    <!-- ASM Cycles: ~46 -->
    <g style="fill: #0000cc" transform="translate(1117.803049 772.990646) scale(0.09 -0.09)">
     <use xlink:href="#DejaVuSans-41"/>
     <use xlink:href="#DejaVuSans-53" transform="translate(68.408203 0)"/>
     <use xlink:href="#DejaVuSans-4d" transform="translate(131.884766 0)"/>
     <use xlink:href="#DejaVuSans-20" transform="translate(218.164062 0)"/>
     <use xlink:href="#DejaVuSans-43" transform="translate(249.951172 0)"/>
     <use xlink:href="#DejaVuSans-79" transform="translate(319.775391 0)"/>
     <use xlink:href="#DejaVuSans-63" transform="translate(378.955078 0)"/>
     <use xlink:href="#DejaVuSans-6c" transform="translate(433.935547 0)"/>
     <use xlink:href="#DejaVuSans-65" transform="translate(461.71875 0)"/>
     <use xlink:href="#DejaVuSans-73" transform="translate(523.242188 0)"/>
     <use xlink:href="#DejaVuSans-3a" transform="translate(575.341797 0)"/>
     <use xlink:href="#DejaVuSans-20" transform="translate(609.033203 0)"/>
     <use xlink:href="#DejaVuSans-7e" transform="translate(640.820312 0)"/>
     <use xlink:href="#DejaVuSans-34" transform="translate(724.609375 0)"/>
     <use xlink:href="#DejaVuSans-36" transform="translate(788.232422 0)"/>
    </g>
   </g>
  </g>
 </g>
 <defs>
  <clipPath id="pc0365f7cce">
   <rect x="7.2" y="43.274" width="1276" height="1025.776"/>
  </clipPath>
 </defs>
</svg>
